<svg width="17" height="17" viewBox="0 0 17 17" fill="none" xmlns="http://www.w3.org/2000/svg">
<path d="M12.3069 1.98753V2.48753H12.8069H16.0555C16.1449 2.48753 16.2266 2.52177 16.2837 2.57655C16.3401 2.63066 16.3677 2.69951 16.3677 2.7667V15.2334C16.3677 15.3006 16.3401 15.3694 16.2837 15.4235C16.2266 15.4783 16.1449 15.5125 16.0555 15.5125H1.43656C1.34723 15.5125 1.26552 15.4783 1.20841 15.4235C1.15202 15.3694 1.12439 15.3006 1.12439 15.2334V2.7667C1.12439 2.69951 1.15202 2.63066 1.20841 2.57655C1.26552 2.52177 1.34723 2.48753 1.43656 2.48753H4.68522H5.18522V1.98753V0.929199H5.80955V1.98753V2.48753H6.30955H11.1825H11.6825V1.98753V0.929199H12.3069V1.98753ZM15.7434 8.22087V7.72087H15.2434H2.24872H1.74872V8.22087V14.4542V14.9542H2.24872H15.2434H15.7434V14.4542V8.22087ZM11.6825 3.54587V3.04587H11.1825H6.30955H5.80955V3.54587V4.6042H5.18522V3.54587V3.04587H4.68522H2.24872H1.74872V3.54587V6.66253V7.16253H2.24872H15.2434H15.7434V6.66253V3.54587V3.04587H15.2434H12.8069H12.3069V3.54587V4.6042H11.6825V3.54587ZM4.99739 10.2792V10.8375H4.37305V10.2792H4.99739ZM8.43388 10.2792H9.05822V10.8375H8.43388V10.2792ZM13.119 10.2792V10.8375H12.4947V10.2792H13.119Z" fill="#006EB5" stroke="black"/>
</svg>
