<svg width="44" height="43" viewBox="0 0 44 43" fill="none" xmlns="http://www.w3.org/2000/svg">
<g clip-path="url(#clip0)">
<path d="M21.9999 43C19.0621 43.0059 16.152 42.4312 13.4369 41.309C10.8311 40.2368 8.45673 38.6719 6.44394 36.7C4.44081 34.752 2.83894 32.4302 1.72894 29.866C0.588362 27.224 0 24.3767 0 21.499C0 18.6213 0.588362 15.774 1.72894 13.132C2.83917 10.5685 4.44102 8.24741 6.44394 6.29999C8.4569 4.32881 10.8313 2.76455 13.4369 1.69299C18.9232 -0.562214 25.0777 -0.562214 30.5639 1.69299C33.1693 2.76444 35.5434 4.32872 37.5559 6.29999C39.5591 8.248 41.1609 10.5698 42.2709 13.134C43.4112 15.7761 43.9994 18.6234 43.9994 21.501C43.9994 24.3786 43.4112 27.2259 42.2709 29.868C41.1607 32.4315 39.5589 34.7526 37.5559 36.7C35.5434 38.6713 33.1693 40.2355 30.5639 41.307C27.8486 42.4298 24.9383 43.0052 21.9999 43ZM18.5269 13.875V29.5L27.8649 21.688L18.5269 13.872V13.875Z" fill="#232E3D"/>
</g>
<defs>
<clipPath id="clip0">
<rect width="44" height="43" fill="white"/>
</clipPath>
</defs>
</svg>
