<svg version="1.1" id="Layer_1" xmlns="http://www.w3.org/2000/svg" x="0" y="0" viewBox="0 0 100 100" xml:space="preserve"><style>.st0{fill:inherit}</style><g id="layer1_1_" transform="translate(-200.552 -393.962)"><g id="g3019" transform="matrix(1.01883 0 0 -1.01883 170.6 498.033)"><path id="path28_1_" class="st0" d="M57.6 16.5v49.4H41.1V16.5h16.5zm-8.2 56.1c5.7 0 9.3 3.8 9.3 8.5-.1 4.8-3.6 8.5-9.2 8.5s-9.3-3.7-9.3-8.5c0-4.7 3.6-8.5 9.1-8.5h.1z"/><path id="path30_1_" class="st0" d="M66.6 16.5H83V44c0 1.5.1 3 .5 4 1.2 3 3.9 6 8.4 6 5.9 0 8.3-4.5 8.3-11.2V16.5h16.4v28.3c0 15.2-8.1 22.2-18.9 22.2-8.9 0-12.7-5-14.9-8.3h.1v7.2H66.6c.3-4.7 0-49.4 0-49.4z"/></g></g></svg>
