<svg version="1.1" id="Layer_1" xmlns="http://www.w3.org/2000/svg" x="0" y="0" viewBox="0 0 100 100" xml:space="preserve"><style>.st1{fill:inherit}</style><path d="M50 28.5c-11.9 0-21.5 9.6-21.5 21.5S38.1 71.5 50 71.5 71.5 61.9 71.5 50 61.9 28.5 50 28.5zm0 32c-5.8 0-10.5-4.7-10.5-10.5S44.2 39.5 50 39.5 60.5 44.2 60.5 50 55.8 60.5 50 60.5z" fill="none"/><circle class="st1" cx="50" cy="50" r="10.5"/><path class="st1" d="M74.9 12.5H25.1c-7 0-12.6 5.6-12.6 12.6v49.8c0 7 5.6 12.6 12.6 12.6h49.8c7 0 12.6-5.6 12.6-12.6V25.1c0-7-5.6-12.6-12.6-12.6zM50 71.5c-11.9 0-21.5-9.6-21.5-21.5S38.1 28.5 50 28.5 71.5 38.1 71.5 50 61.9 71.5 50 71.5zm25.1-41.1c-3 0-5.5-2.5-5.5-5.5s2.5-5.5 5.5-5.5 5.5 2.5 5.5 5.5-2.5 5.5-5.5 5.5z"/></svg>
