<svg xmlns="http://www.w3.org/2000/svg" viewBox="0 0 100 100"><path d="M92.18 23.893c-3.1 1.4-6.4 2.3-9.9 2.7 3.6-2.1 6.3-5.5 7.6-9.6-3.3 2-7 3.4-11 4.2-3.2-3.4-7.6-5.5-12.6-5.5-9.6 0-17.3 7.7-17.3 17.3 0 1.4.2 2.7.4 3.9-14.4-.7-27.1-7.6-35.6-18.1-1.5 2.6-2.3 5.5-2.3 8.7 0 6 3.1 11.3 7.7 14.4-2.8-.1-5.5-.9-7.8-2.2v.2c0 8.4 6 15.4 13.9 17-1.5.4-3 .6-4.6.6-1.1 0-2.2-.1-3.3-.3 2.2 6.9 8.6 11.9 16.2 12-5.9 4.6-13.4 7.4-21.5 7.4-1.4 0-2.8-.1-4.1-.2 7.7 4.9 16.7 7.8 26.5 7.8 31.8 0 49.2-26.4 49.2-49.2 0-.7 0-1.5-.1-2.2 3.3-2.4 6.2-5.5 8.6-8.9z" fill="#fff"/></svg>