<svg version="1.1" id="Ebene_1" xmlns="http://www.w3.org/2000/svg"  height="122" viewBox="0 0 237.4 482" xml:space="preserve"><style>.st0{fill:#fff}.st1{fill:#0063ac}</style><path class="st0" d="M0 0h237.4v482H0z"/><path class="st1" d="M0 244.7h115.1v115.1H0z"/><path class="st0" d="M29.2 263.6v45.3c0 24 11.9 32.9 27.6 32.9 16.6 0 29.1-9.6 29.1-33.2v-44.9h-10v45.6c0 16.9-7.4 24.4-18.7 24.4-10.3 0-17.9-7.3-17.9-24.4v-45.6l-10.1-.1z"/><path class="st1" d="M122.3 244.7h115.1v115.1H122.3z"/><path class="st0" d="M160.3 340.8s-.1-54.9-.7-64.6l.4-.1c3.8 8.3 38.7 64.7 38.7 64.7h10v-76.9h-9.3s.2 53.5 1.1 63.8l-.4.1c-3.5-8-38.2-63.9-38.2-63.9h-11v76.9h9.4z"/><path class="st1" d="M122.3 366.9h115.1V482H122.3z"/><path class="st0" d="M199.3 391.7c-4.6-4.1-11.8-6.4-21.6-6.4-8 0-14.2.7-19 1.6v75.9h9.9V432c2.3.6 5 .7 8 .7 9.7 0 18.2-2.9 23.5-8.4 4-4 6-9.5 6-16.4 0-7-2.6-12.6-6.8-16.2"/><path class="st1" d="M176.8 425.1a32 32 0 01-8.2-.8v-29.9c1.7-.3 5-.8 9.3-.8 10.9 0 18.1 4.9 18.1 15.2.1 10.4-7.1 16.3-19.2 16.3M-.1 367.1H115v115.1H-.1z"/><path class="st0" d="M80.9 394.6c-6.7-6.3-16.9-9.5-31.1-9.5-7.9 0-15 .7-21.2 1.6v75.6c5.1.7 11 .9 18.1.9 14.9 0 26.8-3.8 34.1-11 7-7.1 11-17.4 11-29.9 0-12.4-4-21.4-10.9-27.7"/><path class="st1" d="M48.6 455.3c-3.9 0-7.5 0-10-.5V394c2.6-.6 6.5-1 11.6-1 21 0 31.3 11.3 31.1 29.6 0 20.9-11.5 32.8-32.7 32.7M0 0h237.5v237.5H0z"/><path class="st0" d="M203.7 123.7c-3.3 4.7-7.3 9.1-10.4 13.9.3-3.8.8-8.5-.7-12.1-2.6-7.8-4.8-15.6-5.5-24.1l.1-3.3c1.9 8.7 10.5 14.7 9.9 24.4.2 2.4-.5 4.4-1 6.4l.2.2.4-.4c1.3-4.8 1.9-9.8 3.9-14.3 2.8-6.4 6.3-12.9 4.9-20.7a35.4 35.4 0 01-1.8 30"/><path class="st0" d="M198.5 74.4a29.6 29.6 0 012.8 28.4 50.5 50.5 0 00-3.2 11.7c-.3-.7-.4-1.6-.6-2.4-2.2-8.5-10.3-14.6-13.6-22.6-1-2.6-1.9-5.3-2.4-8.2 3.5 6.5 12.3 9.9 14.7 17.2 1 1.8.9 4.1 1.5 6.1l.3-.2c-1-7.4-.7-15.2.3-22.6-.1-4-.4-7.8-2.7-10.9 1.3.7 1.9 2.3 2.9 3.5"/><path class="st0" d="M194.5 72.9c1.5 6.6-.7 13.1.7 19.8l-.1.1c-3.6-7.1-11.3-10.5-16.6-16.2a22 22 0 01-5.1-11.9c3 7.3 11.2 8.9 15.9 15.1 1.6 1.4 2.1 3.4 3.1 5l.2-.2c-2.7-5.8-3.6-12.2-5.5-18.4-1-2.7-2.8-5.3-5.3-7 6.1 1.4 11.5 7.9 12.7 13.7"/><path class="st0" d="M178.1 57.7c4.6 4.1 6.7 9.5 8.1 15.1l.8 1.8a69.2 69.2 0 01-17.2-18.2l-5.3-5.4c4.6 2 9.6 3.1 13.6 6.7M90 52.5a63.5 63.5 0 0185.8 29.3 63.1 63.1 0 01-31 85.5 64.4 64.4 0 01-61.8-5.1 63.9 63.9 0 017-109.7M71.7 51.9c-4.7 4.1-7.9 9.2-11.3 14-3.1 3.8-7.1 6.4-10.6 9.6 1.9-3.9 2-8.6 4.7-12.2 3.8-6.6 10.9-8.9 17.2-11.4"/><path class="st0" d="M46.3 66.1c2.2-2.8 5.1-4.8 8.3-5.6-6.2 4.3-5.9 12-7.8 18.4-.6 2.4-1.7 4.6-2.3 7l.2.1c1-2.8 2.9-5.3 5.1-7.6 4.5-4.1 11.1-6.7 13.2-12.8-.1 8.5-7.2 15.1-13.9 19.8a27.5 27.5 0 00-7 8.3c-.2-2.1.3-4.3.2-6.5-.7-7.2-1.2-15.6 4-21.1"/><path class="st0" d="M33.6 91.3a28.8 28.8 0 017.3-19.1l.4-.2c-4.8 7.3-.8 16.5-1 24.8l-.6 8.5c.1.1.1.3.3.2.3-.9.4-2 .5-2.9 1.1-6.9 7.1-11.7 12.3-16.5 1.1-1.2 2.1-2.5 2.7-3.9-.4 3.4-1.5 6.9-2.9 10-4 7.9-11.6 14.4-12.9 23.4-.8-8.6-6.7-15.1-6.1-24.3"/><path class="st0" d="M30 102c.5-2.3 1-4.8 2-6.9-1.9 9.9 4.7 17 6.9 25.6.9 3.2 1.1 6.6 2.4 9.6.1.1.2-.1.3-.2-3.3-9.1 1.4-17.6 6.1-24.7 1.1-1.9 1.8-4.1 2.4-6.3.5 4.1-.5 8.9-1.1 13.1-1.1 5.4-2.8 10.6-4.3 15.9-1 3.3-.7 7-.2 10.5l-.5-.4c-3.5-6.4-10.3-11.3-12.3-18.3A36 36 0 0130 102"/><path class="st0" d="M29.6 121.3c.8 10.5 12 16 17.3 24.7 1.2 1.8 2.3 3.7 3.9 5.2-.3-1.1-1.3-2.1-1.7-3.2-1.8-3.6-2.5-8-2.1-12.4.5-5.3 2.8-10.3 1.9-16 4.6 9.9 3.2 22.3 5.8 33 .7 2.3 2 4.4 2.9 6.7-9.4-6.4-22.3-12.5-26.5-24.3a33 33 0 01-1.5-13.7"/><path class="st0" d="M35.3 145.3c5.3 11.9 18.4 12.9 27.3 20.1 1.6 1.4 3.3 2.7 5.2 3.5l.1-.1c-2-1.8-4.4-3.9-5.8-6.3-5.2-7.2-3.3-17.2-7.2-25 3.5 4.2 6.7 8.6 8.8 13.4 3.2 7.8 4.4 16.6 11.7 22.5-7.9-2.6-17.2-1.9-24.2-6.7a33.2 33.2 0 01-15.9-21.4"/><path class="st0" d="M48.8 167.5c8.4 9.6 22.2 6.4 33.4 8.9 1.6.2 3 .9 4.7.6-1.3-.9-3.2-.8-4.7-1.5-8.8-3.1-10.1-12.6-14.9-19 6.1 4.1 11.2 9.5 16.9 14.8 4.1 3.5 8.9 5.2 14 6.2-1.2.4-2.8.3-4.2.7-9.2 2.3-19.5 6-29.2 2.7a28.8 28.8 0 01-16-13.4"/><path class="st0" d="M163.2 189.8c-9.5 3.6-19.4-.2-26.8-5.8-3-1.9-5.7-4.7-9.6-4.4-1.4 0-2.8 0-4 .4 7.2 3.4 13.9 8 20 13.9-1 1.2-2.4 2.3-3.6 3.3a69.8 69.8 0 00-19.8-16c-1.4.2-2.8 1-4.1 1.7-6 3.8-11.9 8.6-16.3 14.5l-3.8-3.1a70.6 70.6 0 0120.1-14.3c-7.2-2.3-11.9 3.8-17.4 6.8a25.4 25.4 0 01-34.5-4.2 24.7 24.7 0 0022 1.9c9.3-4 18.9-9.1 30.1-6.7 1.8 0 3.5 1.8 5.1.3 8.3-2.2 17.7-.7 24.8 3.1l7.4 2.9a24.9 24.9 0 0021.6-2.3 24 24 0 01-11.2 8"/><path class="st0" d="M173.4 180c-10.7 4-21.4-.9-31.6-2.6l-2-.3v-.1c4.9-1.1 9.6-2.6 13.5-6.1 5.7-5.5 10.8-11.2 17.2-15.5-4.7 6.1-5.2 14.7-13 18.5-1.9 1.3-4.4 1.5-6.4 2.4 2.8.1 5.4-1 8.3-1.2 10.4-1.6 22.4 0 29.7-8.9a27.7 27.7 0 01-15.7 13.8"/><path class="st0" d="M179.3 169.2c-5.4 1.5-11.2 1.9-16.5 3.7 9-7.7 8.5-19.6 14.4-28.6 1.9-2.6 3.5-5.3 5.7-7.7-3.6 7.3-2.1 16.8-6.2 23.9a31.8 31.8 0 01-6.5 7.8c.8 0 1.6-.8 2.3-1.2 6.8-6.8 15.7-8.7 23-14.2 2.9-2.3 5.6-5.4 6.9-8.7-1.4 11.1-12.6 21.6-23.1 25"/><path class="st0" d="M192.7 150c-4.2 2.8-8.5 5.3-12.5 8.4v-.4c6.2-10.3 3.2-24.5 7-35.8l1.4-3.8c-.8 7.1 2.3 13 2.1 20.1a22 22 0 01-3.9 11.5h.4c3-4 5.4-8.2 9-12 5.5-5.3 11.1-10.8 11.8-18.1 1.8 12.4-5.1 23.2-15.3 30.1"/><path class="st1" d="M145.1 149.2l.4-.6c1.9-1.5 4-2.9 5.6-4.7h.2c-.4-.1-.9.3-1.3.1-.9-.4-1-1.2-1-2.1l-3.9-4-.2-.6c-.3.8-.9 1.2-1.4 1.8 0 .5-.2 1.3.4 1.6 1.3.4 2.9 1.2 3.2 2.7-.5 1.4-3.2 2.7-1.5 4.2.6.7-.7 1-.5 1.6M122.5 97.8c.7.4 1.1-.3 1.8-.5.9.1 1.6.9 2.1 1.4.6.2 1.1-.1 1.6-.3.4-2.6 3.6-2.2 4.6-4.7l-.6.2c-.2-.4-.9-.2-.8-.8.5-.5 1.2-1.3 1.9-1.5a30.5 30.5 0 00-9-4.1c-1.3-.3-2.6-.3-3.8-.8.6 1.8.1 4.5.5 6.6l2.3.8c.7-1.1 2.1-1.3 2.8-2.4.4-.3.9 0 1.2.4.1.9-.1 1.7-.4 2.5-1.1 1.8-3.1 2-4.2 3.2M156.2 119.1a40.3 40.3 0 01-5.6 12.1c-1 1.3-2.1 3.2-3.4 3.9l2.9 2.5c.2-.2.1-.4.1-.6 0-.4.2-.8.7-.8 1.4 0 1.4 1.5 2.2 2.2-.2 1.2.9 2.2.5 3.3 8-8.4 12-18.7 12.7-30.2l.4-.5c-2.8.3-5.9.1-8.8.1l-.7-.2c.2 1.9-.3 3.8-.4 5.7l1 1.1c.3.4.2 1.1-.2 1.5a1 1 0 01-1.4-.1M148.6 91.1c-1.1-2-2.8-3.8-4.2-5.6l-.2.4c-2.9 3-6.1 6.2-8.9 9.3.2.4.5.7.9.9.1-.8.5-1.4.6-2.2.7-1 1.9-.4 2.9-.2 1.5-.4 2.9.4 4.5.3 1.1.6 1.2 2 2.3 2.6.3.4.1.9-.3 1.2.3 2.4 1.5-.6 2.7-.1.5.2 1.1.1 1.5.7.2 1 1.4.8 1.5 1.7-.1.5-.6.6-.9.9.3.9-1 1.5-.5 2.6 1.8.3 1.9-1.8 2.8-2.7-.5-1.6-.8-3.3-1.8-4.8-1-.2-1.7-1.5-2.7-1.7-2.3-.8 0-2.1-.2-3.3M120.3 157.2c2.3-.8 5.1-.7 7.6-1.1-.5-.2-1-.3-1.4-.8-1.5-.1-2.2-1.6-2.6-2.8-.2-.8.4-1.5.7-2.3-.6-1.3-2.6-.4-3.7-.8-.3-.3-.5-.6-1-.7l.5.7c-.1 2.6.3 5.2-.1 7.8M122.4 132.5c.8.2.2 1.1.8 1.4 1.3-.4 2.3 1.1 3.3.1-.1-1.5 1.6-1.4 2.5-1.7 1.4-.9 3-2 2.9-3.9l-.2-.3c-1 0-1.5.8-2.2 1.4-.9.5-1.4-.9-2.1-.6 0 .2.2.2.3.3.2.2.2.7 0 .9-1.1 1-1.6-.5-2.6-.4v.4c0 .2-.1.6-.4.4-.6-1-1.9-.7-2.6-1.6-.4-.2-.8.1-1.1.3-.2.5-1.2-.1-1 .8-.8.3-.9 1.1-1.4 1.6-1-.2-1.4.9-2.4.9.1.2 0 .5.3.5.6.3 1.1.3 1.9.2 1.1-1.4 2.7-.1 4-.7M131.7 120.1c0 .5.1 1.1.5 1.5 1.2-.2.7 1.5 1.8 1.4.6-.2 0-.7.2-1.1-.2-1-1.1-1.1-1.7-1.6-.1-.2.1-.3.1-.5-.3-.3-.6 0-.9.3M130.3 76.4c-3.2-1.1-6.7-1.6-10.2-2.1l.3.7-.1 8.6.8-.2c5.2.7 10 2.4 14.2 5.8l.2.7c1.4-2 3.6-3.7 5.2-5.6l1.6-.9-.8-.3c-3.3-3-7.1-5.2-11.2-6.7M71.4 111.8l.7 5.8c.3 2.2 1.3 4.4 1.2 6.6.3-.5.1-1.4 1-1.5-.4-.7.7-1.3.1-1.9.3-1.5.5-3.1 1.8-4.2 1.6-.1 1.7-2.2 3.4-2.3.8 0 1.3 1.1 1.7 1.5-1-1.2-1-3.2-.7-4.6l-.7.3c-2.9-.1-6 .2-8.8-.2l.3.5zM128.2 126.6c.8-.8 2.3-.8 2.4-1.9-1.1-.2-1.7.4-2.4 1-.1.3-.5.7 0 .9M148.3 110.7l1 1c1 .7.3 2.1 1.4 2.7 1.2.6 1.7 2.1 2.2 3.1l.3-.9c.4-1.7.4-3.7.9-5.4-2 0-4.1.2-5.8-.5M135.5 132.9c1.1.3 1.8 1.6 3.2 1.2 1.1-.6 3 .4 3.8-.8-.1-1.2.9-2 1.4-3l.4-.1c.6.7.6 1.7.9 2.4.9-.9 1.6-2 2.4-3 2.1-3 3.9-6.3 4.6-9.8-.8 0-1.7.2-2.5.4-.9-.1-2 .5-2.8-.2-.3-.2-.5.1-.4.4-.3.5-.6 1.1-1.4.9-.6-.3-.6-.9-.8-1.3l-.2 1c-.7.7-.9 1.4-1.4 2.1-.7.7-1.7.5-2.4 1.1-.1 1.5-1.8 1.2-2.8 1.7-.1.2.2.2.2.4.5.1 1.1.1 1.4-.3 1.3.4 1-1.3 1.8-1.9.7-.1 1.3-.7 2-.2.7.8.9 2.1.8 3.2-.8.8-.4 2-.9 2.9.1 1.1-1.1 1.5-1 2.6-.4.5-1.1.5-1.7.5-2.5-.9-5.1-1.6-7.9-1.8-.3.1-.4.3-.4.6 1.2.4 2.5.5 3.7 1M116.7 160.6l.3-.5-1 .3a49.7 49.7 0 01-32.3-13.9l-.1.4-6.5 6.6c9.9 8.6 21 14.1 33.7 15.8 2 .3 4.4.2 6.3.8l-.5-.8v-8.7h.1zM103.9 126.5c3.4 2.8 7.2 4.5 11.4 5.3.2-.9-.1-1.9.3-2.7.3-.7 1.2-.7 1.8-.6.4 0 .6-.5.4-.8-.9-.2-.5-1.2-.8-1.8 0-.3.6-.2.4-.7-.6-.5.3-1.1-.2-1.6l.4-.4c-1.9.8-4-.4-5.6-1.1-.8-.5-2-.9-2.2-2-1.4 2.3-4 4.3-5.9 6.4M100.7 116.6c-.3-.2-.4-.1-.6.1l-.5-.1c0-1.8-2-.7-2.8-1.7.9 1.6 1.4 3.5 2.3 5.1.6 1.5 1.8 2.6 2.4 4 .6-1.1 1.8-2.1 2.7-3.1.1-.5 0-.9-.3-1.2-.3-.7 0-1.6-.5-2.2-.8.3.3 1.1-.1 1.6-.3.2-.7-.1-.8-.4-.7-.1-1.3-.8-1.5-1.4.6-.2-.2-.4-.3-.7M106.7 117.5c-.2.8-.7 1.5-1.3 2.1l.1.1c.8-.5 1.3-1.5 2.3-1.6l-1.1-.6z"/><path class="st1" d="M115.9 148.3a36.6 36.6 0 01-20.4-7.7c.2.8 1.2 1.2.9 2.2-.5.9-1.6.9-2.5.9-1.8-.3-3.1 1.1-4.8 1.3-1.6.5-2.1-1.4-3.5-1.3a49.4 49.4 0 0030.6 13.1l.9.6-.4-1.1V148l-.8.3zM81.7 144.2c-1.1-.8-2-2-2.9-3-1-.3-2.1-1-2.7-2-.3-.4 0-1-.4-1.2l-.4.5c-1.1.5-1.5-.6-2.3-1.1-1-.5-.5-2.4-1.8-2.1-.5 0-.7-.6-1-.9-1.2.1-1.5-1.2-2.2-1.9-.1.3 0 .7-.4.8-1.3.3-1.7-1.3-2.6-1.9-.2.1-.4.4-.7.3A3.9 3.9 0 0163 129c-1-1.2-.6-3-.4-4.5.2-.4.7-.6.6-1.1.3-.7 1-.7 1.7-.8.3.1.5.4.6.6.4-.3 1.3 0 1-.9.5-.5 1.3-.6 2.1-.8.5.6.8 1.4 1.4 2l-.4-.7c-.8-3.1-1.4-6.3-1.5-9.6 0-.2-.4-.3-.2-.5l.1.1.1-1.8-.9.3-8.8-.1a64.3 64.3 0 007.8 27.8c2.2 4.2 5.5 7.9 8.4 11.8l6.3-6.5.8-.1zM91.9 70.3c-2 1.4-3.8 3.1-5.8 4.3 2.3 1.5 4.3 4 6.4 5.9l.2.6a37.1 37.1 0 0119-9.6c1.7-.2 3.4-.7 5-.4-.1-3-.4-6.1-.1-9.1-9.2.6-17.4 3.3-24.7 8.3M84.3 103.3c-.3 1.5-.2 3.3-.8 4.7 1.1-.5 2.7-.3 4-.2-.7-.4-.1-1.3-.5-1.8-.1-.8-.2-1.8.5-2.3-.1-1.3 1.3-2 1.4-3.1.3-1.3 1.9-.4 2.6-1.1.5-.3.1-.7.1-1 .6-.9 1.6-.8 2.4-1.3.5-.8 1.2-1.7 2.1-2.2 1.9.1 1.9-2.6 3.7-2.7-2.5-1.9-4.8-4.4-7-6.5-4.3 5.2-7.3 11-8.5 17.5M85.5 116.2c.1-.6-.8-.7-.7-1.3.6-1.2 0-3.1 1.6-3.6-1.1.2-2.1.4-3-.3l.4.8c.1 2.1.9 4.1.5 6.2.4-.6.5-1.5 1.2-1.8M94.3 139l-.2-.2.2.4zM83.7 77.3l-3.4 4.4a50.7 50.7 0 00-9.1 26.3l8.7-.2.8.3c-.3-.2-.3-.6-.4-.9.7-9 3.9-17.1 10.1-23.8a70.6 70.6 0 01-6.7-6.7v.6zM110.5 136.4a6 6 0 012.4-1.5c-2.8.6-5.3-1.5-7.7-2.6-1.4-1-3.1-1.8-4-3.4a55.4 55.4 0 01-6.3 6.5c1 .1 1.5 1.1 2.3 1.6a39.9 39.9 0 0016.2 7.2l-1.5-.7c-1.1-1.3-2.8-2.8-2.8-4.6 1.1-.3 1-1.6 1.4-2.5M88.8 111.3l-.2 1.7c-.4 1-1.6.2-2.2.9-.4.6 0 1.3.4 1.8-.9 2 2 2.7 2 4.5.9 1.1-.1 2.8 1.1 3.8.3 2.1-.3 4.8 1.5 6.5l.3 2c.4 1.4-1.6 1-1.4 2.2.4-.2.5.3.5.4v-.1c2.4-2.8 5.2-5.8 8.1-8.3l-1.2-1.2c-2.2-3.4-4-6.9-4.9-10.9l-.9-.5c0 1-.5 1.8-.4 2.8l-.3.4c-.7 0-1.1-.6-1.6-.9-.1-.3-.5-.9.1-1.2l.8.2c.3-.3.2-.8.3-1.3.1-.8-.6-1.5-.1-2.1.6-.1 1.1.7 1.3 1.1.6.2 1.1-.3 1.6-.5 0-.5.8-1.3-.1-1.6.5-1.2.1-2.5-.1-3.7-.3-1-1.5-.9-2.4-.8-2.6.8.4 2.8-.2 4.3-.4 1-1.3.1-2 .5M169.9 111.1l-.5-.4.3.9c-.5 10.5-4 19.8-10 28.1-1.2 1.4-2.2 3.1-3.7 4.1 2.4 1.9 5.1 4.7 7.1 6.9l.2-.5a60.7 60.7 0 0015.8-38.6l.4-.8-.5.2-9.1.1z"/><path class="st1" d="M84.2 72.4l.2-.4c9.2-8.4 20-13 32.3-13.6l-.3-.8-.1-7.6.3-.9c-12.7.5-24 4.8-34 12.1-1.9 1.3-3.6 3.4-5.6 4.5h.3c2.4 1.8 4.8 4.4 6.9 6.7M116.2 74.6c-8 .6-15 3.9-21.1 9 2.4 1.7 4.6 4.4 6.7 6.3l.5-.7c3-2.1 6.1-4.1 9.7-5 1.6-.2 3.1-.9 4.8-.5-.3-3-.3-6.3 0-9.3l-.6.2zM116.7 87.1c-5.1.7-9.8 2.4-13.5 6.4h.7c.8.8 2 .6 2.6 1.6.3.6-.5.5-.5 1l.5.4c.6.2.5-.3.7-.6.8-.8.9.8 1.7.8.5-.4 1.3-.4 1.7.2.5-.4 1.6 0 1.8-.8 1-1.1.4-2.7 1.9-3.3.5.3 0 .8.2 1.2 1 .4 2.1-.8 2.9.2-1-2.3-.8-4.8-.7-7.1M117 101.3c-.9 1.6-2.5 1.9-4 2.4-.4.5-.3 1.6-1.3 1.5-.3.7-1.4 1.1-1 2.1-.5 1.1-.3 2.5-.5 3.6-1.9 1.2-1.3-1.6-2.3-2.1l-.3.5c-.4.1-.6-.1-.9-.4-.3-.1-.8-.2-1 .1-.4.7-1 1.3-.9 2.2-.2.6-1.1.4-1 1 1 0 2.2-.2 3.2-.4.7.2 1.3-.3 2.1-.4.2.1.6.4.4.8h.3c.5-.4.7-1 .5-1.5.1-.7.8-.7 1.2-.9.4.2.2.6.2.9 1.4.5-.4 1.6-.6 2.3-.4.6 0 2-1.2 1.8-.2-.1-.4-.3-.3-.5h-.2c0 .5.4 1.2.9 1.4.9-.7.9-2 2.2-2.1.6-.7-.3-1.8.7-2.3 1.6 0 3.4-.7 4.7.6-.1.6-.3.8.2 1.3-.3.7-.5 1.5-1.1 2.1.2.4 0 .9-.3 1.2-.4 1.9-2.6 1-3.9 1.7a10 10 0 007 1.9c1.4-.1.8-1.7 1.5-2.5.4-2.2 2.5-.7 3.7-1.3.5-.9.9-1.9 1.1-2.9-.8-.5-1.1-1.5-.8-2.4-.5-.7-.5-2.1-1.7-2.2-.2-.2 0-.6.1-.8 0-.7.7-.9.9-1.5-.7-.5-.5-1.5-.5-2.1-1.2.4-1.4-1.3-2.3-1.6-.2-.7-1-.9-1.6-1-1.5.7-1.8-1.1-2.9-1.6-.1-.3-.4-.9 0-1.1.6-.5 1.3-.1 2-.1l-.5-.3c-.5-.6-1.6-.2-2.3 0 .4.6.1 1.8.5 2.6M68.2 108l-.2-1.2a51 51 0 019.5-27.1c1.4-1.6 2.5-3.6 4.2-4.8-2.1-1.9-4.2-4.2-6.4-6.3l-.2-.9c-9 10-14.6 21.5-16.2 34.6-.4 1.9-.1 3.9-.5 5.8a46 46 0 019.8-.1M153.8 145.8c-.9 1.7-2.9 2.8-4.3 4.2-2.1 2.1-5.4 2.5-6.5 5.5-1.1 1-1.5 2.6-3 3.2-.6 1.5-2.2 1.4-3.1 2.5-2.7 2.4-4.4-1.5-6.8-2l-4.8.9c-1.7 0-3.4.6-4.9.1.2 3.2.2 6.7 0 9.9l.6-.4a62 62 0 0039.7-16.7l-6.7-6.4-.2-.8zM120.2 57.5c0-.3.1-.5.3-.7.4-.3.8.1 1 .4 0 .4.2 1.2-.1 1.5.4.1.6-.2.9-.2 7.2.5 14 2.7 20 6.1v-.2c1.2-.6 2.8-1.4 4.1-.3 1.5-.6 1.8 1.3 3 1.5 1.5.9 3.2 2.5 3.4 4.3.3.6 1.2 1 1.3 1.6 1-2.2 3-3.7 4.8-5.5l1.1-.4a59.6 59.6 0 00-33.6-15.9c-2-.3-4.2-.2-6.2-.8.3 2.4.2 5.8 0 8.6M120.2 71.1c1.2-.4 2.4.1 3.6.1 6.2 1 12.1 3 17 6.8a5.1 5.1 0 01-1.5-2.3c.1-.1.2-.2.4-.1.1-1-1-1.5-1.1-2.4.1-.2.4-.4.7-.3 1.1 1 2 2.1 2.8 3.2.7-.3 1.3.2 1.8.5.9.5.3 1.7 1.1 2.3.1 1.9 2.4 2.9 2.3 4.8 0 .4.6.1.8.3l1.9 2.3c-.4.5-.1 1 .3 1.3.8.4 1.3-.7 2.2-.5 1.2.7-.2 1.5-.1 2.3.5 0 1.1-.4 1.5.1.2.7-.6 1.1-.9 1.6 0 .7.6.5 1.1.7.6 0 .9.7.8 1.1 1.6 1.6-.5 3.4.3 5.2.5 1.1-.1 2.2-.8 3.1 0 1.4-1.2 2.2-1.7 3.4l-1.6.3c-.9.9.7 1.9-.1 2.4l3.5.1-.4-.4c-.5-1.4-.4-3.3.5-4.5.5-1.1.7-2.5 1.7-3.5.2-.1.6-.5.8 0 .1 1.1 0 2.3-.5 3.3 1 1.5.9 3.4 1 5.2 3.1-.2 6.2-.2 9.3-.2l-.3-.6a47.1 47.1 0 00-4.1-16.4c-.7 0-1.1.6-1.9.4a.7.7 0 01-.4-.6c-1.3-1.2-2.1-2.8-3.5-3.9-1.6.2-2.4-1.7-3.8-1.9-1.3-.5-.4-2.6-2.3-2.1-.9-.4-1.8-1.1-2-2.1 0-1.6-.3-3.4-1.8-4.5-1.1-.4-1.6 1.1-2.8.9-.6-.3-.3-1.1-.5-1.7-.2-.5-.8-.8-.7-1.5 1.5-2-1.8-1.9-1.1-3.9-.2-1.4-1.6-1.9-2.3-3A52.6 52.6 0 00124 62c-1.4-.2-2.6.1-3.8-.5l.3.6c-.2 3.1 0 6.3-.3 9"/><path class="st1" d="M154.8 74.4c.7.2.9.9 1.3 1.4 2.3 1.2 2.9 3.7 4.9 5.1 1.1 2.4 3.8 4.2 3.9 6.9a49.7 49.7 0 014.8 19.7l-.2.4c.3 0 .5-.1.8-.3l9.1-.2c-.6-.9-.3-2.2-.5-3.3a62.9 62.9 0 00-16.6-36.8c-1.8 2.3-4.1 4.5-6.3 6.8l-1.2.3z"/><path class="st0" d="M121.5 56c.3-.5 1-.3 1.4-.2l4.6-2c1.8.2 3.9.4 4.9 1.9v.3c-1.1.9-2.6 1.7-4.1 1.1-2.1.4-5 1.6-6.7-.5-.1-.2-.3-.4-.1-.6M148.7 61.8c.6.2 1.2.5 1.4 1.2-.2.7.7 1.3.2 1.9-1.7.4-1.9-1.5-3.2-2-.2-.3-.2-.6-.2-.9.5-.8 1.1.4 1.8-.2M257.6 244.7h115.1v115.1H257.6z"/><path class="st1" d="M286.8 263.6v45.3c0 24 11.9 32.9 27.6 32.9 16.6 0 29.1-9.6 29.1-33.2v-44.9h-10v45.6c0 16.9-7.4 24.4-18.7 24.4-10.3 0-17.9-7.3-17.9-24.4v-45.6l-10.1-.1z"/><path class="st0" d="M379.9 244.7H495v115.1H379.9z"/><path class="st1" d="M417.9 340.8s-.1-54.9-.7-64.6l.4-.1c3.8 8.3 38.7 64.7 38.7 64.7h10v-76.9H457s.2 53.5 1.1 63.8l-.4.1c-3.5-8-38.2-63.9-38.2-63.9h-11v76.9h9.4z"/><path class="st0" d="M379.9 366.9H495V482H379.9z"/><path class="st1" d="M456.9 391.7c-4.6-4.1-11.8-6.4-21.6-6.4-8 0-14.2.7-19 1.6v75.9h9.9V432c2.3.6 5 .7 8 .7 9.7 0 18.2-2.9 23.5-8.4 4-4 6-9.5 6-16.4 0-7-2.6-12.6-6.8-16.2"/><path class="st0" d="M434.4 425.1a32 32 0 01-8.2-.8v-29.9c1.7-.3 5-.8 9.3-.8 10.9 0 18.1 4.9 18.1 15.2.1 10.4-7.1 16.3-19.2 16.3M257.5 367.1h115.1v115.1H257.5z"/><path class="st1" d="M338.5 394.6c-6.7-6.3-16.9-9.5-31.1-9.5-7.9 0-15 .7-21.2 1.6v75.6c5.1.7 11 .9 18.1.9 14.9 0 26.8-3.8 34.1-11 7-7.1 11-17.4 11-29.9 0-12.4-4-21.4-10.9-27.7"/><path class="st0" d="M306.2 455.3c-3.9 0-7.5 0-10-.5V394c2.6-.6 6.5-1 11.6-1 21 0 31.3 11.3 31.1 29.6 0 20.9-11.5 32.8-32.7 32.7M257.6 0h237.5v237.5H257.6z"/><path class="st1" d="M461.3 123.7c-3.3 4.7-7.3 9.1-10.4 13.9.3-3.8.8-8.5-.7-12.1-2.6-7.8-4.8-15.6-5.5-24.1l.1-3.3c1.9 8.7 10.5 14.7 9.9 24.4.2 2.4-.5 4.4-1 6.4l.2.2.4-.4c1.3-4.8 1.9-9.8 3.9-14.3 2.8-6.4 6.3-12.9 4.9-20.7a35.4 35.4 0 01-1.8 30"/><path class="st1" d="M456.1 74.4a29.6 29.6 0 012.8 28.4 50.5 50.5 0 00-3.2 11.7c-.3-.7-.4-1.6-.6-2.4-2.2-8.5-10.3-14.6-13.6-22.6-1-2.6-1.9-5.3-2.4-8.2 3.5 6.5 12.3 9.9 14.7 17.2 1 1.8.9 4.1 1.5 6.1l.3-.2c-1-7.4-.7-15.2.3-22.6-.1-4-.4-7.8-2.7-10.9 1.3.7 1.9 2.3 2.9 3.5"/><path class="st1" d="M452.1 72.9c1.5 6.6-.7 13.1.7 19.8l-.1.1c-3.6-7.1-11.3-10.5-16.6-16.2a22 22 0 01-5.1-11.9c3 7.3 11.2 8.9 15.9 15.1 1.6 1.4 2.1 3.4 3.1 5l.2-.2c-2.7-5.8-3.6-12.2-5.5-18.4-1-2.7-2.8-5.3-5.3-7 6.1 1.4 11.5 7.9 12.7 13.7"/><path class="st1" d="M435.7 57.7c4.6 4.1 6.7 9.5 8.1 15.1l.8 1.8a69.2 69.2 0 01-17.2-18.2l-5.3-5.3c4.6 1.9 9.6 3 13.6 6.6M347.5 52.4a63.5 63.5 0 0185.8 29.3 63.1 63.1 0 01-31 85.5 64.4 64.4 0 01-61.8-5.1 64 64 0 017-109.7M329.3 51.9c-4.7 4.1-7.9 9.2-11.3 14-3.1 3.8-7.1 6.4-10.6 9.6 1.9-3.9 2-8.6 4.7-12.2 3.8-6.6 10.9-8.9 17.2-11.4"/><path class="st1" d="M303.9 66.1c2.2-2.8 5.1-4.8 8.3-5.6-6.2 4.3-5.9 12-7.8 18.4-.6 2.4-1.7 4.6-2.3 7l.2.1c1-2.8 2.9-5.3 5.1-7.6 4.5-4.1 11.1-6.7 13.2-12.8-.1 8.5-7.2 15.1-13.9 19.8a27.5 27.5 0 00-7 8.3c-.2-2.1.3-4.3.2-6.5-.7-7.2-1.2-15.6 4-21.1"/><path class="st1" d="M291.2 91.3a28.8 28.8 0 017.3-19.1l.4-.2c-4.8 7.3-.8 16.5-1 24.8l-.6 8.5c.1.1.1.3.3.2.3-.9.4-2 .5-2.9 1.1-6.9 7.1-11.7 12.3-16.5 1.1-1.2 2.1-2.5 2.7-3.9-.4 3.4-1.5 6.9-2.9 10-4 7.9-11.6 14.4-12.9 23.4-.8-8.6-6.7-15.1-6.1-24.3"/><path class="st1" d="M287.6 102c.5-2.3 1-4.8 2-6.9-1.9 9.9 4.7 17 6.9 25.6.9 3.2 1.1 6.6 2.4 9.6.1.1.2-.1.3-.2-3.3-9.1 1.4-17.6 6.1-24.7 1.1-1.9 1.8-4.1 2.4-6.3.5 4.1-.5 8.9-1.1 13.1-1.1 5.4-2.8 10.6-4.3 15.9-1 3.3-.7 7-.2 10.5l-.5-.4c-3.5-6.4-10.3-11.3-12.3-18.3a36 36 0 01-1.7-17.9"/><path class="st1" d="M287.2 121.3c.8 10.5 12 16 17.3 24.7 1.2 1.8 2.3 3.7 3.9 5.2-.3-1.1-1.3-2.1-1.7-3.2-1.8-3.6-2.5-8-2.1-12.4.5-5.3 2.8-10.3 1.9-16 4.6 9.9 3.2 22.3 5.8 33 .7 2.3 2 4.4 2.9 6.7-9.4-6.4-22.3-12.5-26.5-24.3a33 33 0 01-1.5-13.7"/><path class="st1" d="M292.9 145.3c5.3 11.9 18.4 12.9 27.3 20.1 1.6 1.4 3.3 2.7 5.2 3.5l.1-.1c-2-1.8-4.4-3.9-5.8-6.3-5.2-7.2-3.3-17.2-7.2-25 3.5 4.2 6.7 8.6 8.8 13.4 3.2 7.8 4.4 16.6 11.7 22.5-7.9-2.6-17.2-1.9-24.2-6.7a33.2 33.2 0 01-15.9-21.4"/><path class="st1" d="M306.4 167.5c8.4 9.6 22.2 6.4 33.4 8.9 1.6.2 3 .9 4.7.6-1.3-.9-3.2-.8-4.7-1.5-8.8-3.1-10.1-12.6-14.9-19 6.1 4.1 11.2 9.5 16.9 14.8 4.1 3.5 8.9 5.2 14 6.2-1.2.4-2.8.3-4.2.7-9.2 2.3-19.5 6-29.2 2.7a28.8 28.8 0 01-16-13.4"/><path class="st1" d="M420.8 189.8c-9.5 3.6-19.4-.2-26.8-5.8-3-1.9-5.7-4.7-9.6-4.4-1.4 0-2.8 0-4 .4 7.2 3.4 13.9 8 20 13.9-1 1.2-2.4 2.3-3.6 3.3a69.8 69.8 0 00-19.8-16c-1.4.2-2.8 1-4.1 1.7-6 3.8-11.9 8.6-16.3 14.5l-3.8-3.1a70.6 70.6 0 0120.1-14.3c-7.2-2.3-11.9 3.8-17.4 6.8a25.4 25.4 0 01-34.5-4.2 24.7 24.7 0 0022 1.9c9.3-4 18.9-9.1 30.1-6.7 1.8 0 3.5 1.8 5.1.3 8.3-2.2 17.7-.7 24.8 3.1l7.4 2.9a24.9 24.9 0 0021.6-2.3c-2.9 3.8-7 6.5-11.2 8"/><path class="st1" d="M431 180c-10.7 4-21.4-.9-31.6-2.6l-2-.3v-.1c4.9-1.1 9.6-2.6 13.5-6.1 5.7-5.5 10.8-11.2 17.2-15.5-4.7 6.1-5.2 14.7-13 18.5-1.9 1.3-4.4 1.5-6.4 2.4 2.8.1 5.4-1 8.3-1.2 10.4-1.6 22.4 0 29.7-8.9A27.7 27.7 0 01431 180"/><path class="st1" d="M436.9 169.2c-5.4 1.5-11.2 1.9-16.5 3.7 9-7.7 8.5-19.6 14.4-28.6 1.9-2.6 3.5-5.3 5.7-7.7-3.6 7.3-2.1 16.8-6.2 23.9a31.8 31.8 0 01-6.5 7.8c.8 0 1.6-.8 2.3-1.2 6.8-6.8 15.7-8.7 23-14.2 2.9-2.3 5.6-5.4 6.9-8.7-1.4 11.1-12.6 21.6-23.1 25"/><path class="st1" d="M450.3 150c-4.2 2.8-8.5 5.3-12.5 8.4v-.4c6.2-10.3 3.2-24.5 7-35.8l1.4-3.8c-.8 7.1 2.3 13 2.1 20.1a22 22 0 01-3.9 11.5h.4c3-4 5.4-8.2 9-12 5.5-5.3 11.1-10.8 11.8-18.1 1.8 12.4-5.1 23.2-15.3 30.1"/><path class="st0" d="M402.7 149.2l.4-.6c1.9-1.5 4-2.9 5.6-4.7h.2c-.4-.1-.9.3-1.3.1-.9-.4-1-1.2-1-2.1l-3.9-4-.2-.6c-.3.8-.9 1.2-1.4 1.8 0 .5-.2 1.3.4 1.6 1.3.4 2.9 1.2 3.2 2.7-.5 1.4-3.2 2.7-1.5 4.2.6.7-.7 1-.5 1.6M380.1 97.8c.7.4 1.1-.3 1.8-.5.9.1 1.6.9 2.1 1.4.6.2 1.1-.1 1.6-.3.4-2.6 3.6-2.2 4.6-4.7l-.6.2c-.2-.4-.9-.2-.8-.8.5-.5 1.2-1.3 1.9-1.5a30.5 30.5 0 00-9-4.1c-1.3-.3-2.6-.3-3.8-.8.6 1.8.1 4.5.5 6.6l2.3.8c.7-1.1 2.1-1.3 2.8-2.4.4-.3.9 0 1.2.4.1.9-.1 1.7-.4 2.5-1.1 1.8-3.1 2-4.2 3.2M413.8 119.1a40.3 40.3 0 01-5.6 12.1c-1 1.3-2.1 3.2-3.4 3.9l2.9 2.5c.2-.2.1-.4.1-.6 0-.4.2-.8.7-.8 1.4 0 1.4 1.5 2.2 2.2-.2 1.2.9 2.2.5 3.3 8-8.4 12-18.7 12.7-30.2l.4-.5c-2.8.3-5.9.1-8.8.1l-.7-.2c.2 1.9-.3 3.8-.4 5.7l1 1.1c.3.4.2 1.1-.2 1.5a1 1 0 01-1.4-.1M406.2 91.1c-1.1-2-2.8-3.8-4.2-5.6l-.2.4c-2.9 3-6.1 6.2-8.9 9.3.2.4.5.7.9.9.1-.8.5-1.4.6-2.2.7-1 1.9-.4 2.9-.2 1.5-.4 2.9.4 4.5.3 1.1.6 1.2 2 2.3 2.6.3.4.1.9-.3 1.2.3 2.4 1.5-.6 2.7-.1.5.2 1.1.1 1.5.7.2 1 1.4.8 1.5 1.7-.1.5-.6.6-.9.9.3.9-1 1.5-.5 2.6 1.8.3 1.9-1.8 2.8-2.7-.5-1.6-.8-3.3-1.8-4.8-1-.2-1.7-1.5-2.7-1.7-2.3-.8 0-2.1-.2-3.3M377.9 157.2c2.3-.8 5.1-.7 7.6-1.1-.5-.2-1-.3-1.4-.8-1.5-.1-2.2-1.6-2.6-2.8-.2-.8.4-1.5.7-2.3-.6-1.3-2.6-.4-3.7-.8-.3-.3-.5-.6-1-.7l.5.7c-.1 2.6.3 5.2-.1 7.8M380 132.5c.8.2.2 1.1.8 1.4 1.3-.4 2.3 1.1 3.3.1-.1-1.5 1.6-1.4 2.5-1.7 1.4-.9 3-2 2.9-3.9l-.2-.3c-1 0-1.5.8-2.2 1.4-.9.5-1.4-.9-2.1-.6 0 .2.2.2.3.3.2.2.2.7 0 .9-1.1 1-1.6-.5-2.6-.4v.4c0 .2-.1.6-.4.4-.6-1-1.9-.7-2.6-1.6-.4-.2-.8.1-1.1.3-.2.5-1.2-.1-1 .8-.8.3-.9 1.1-1.4 1.6-1-.2-1.4.9-2.4.9.1.2 0 .5.3.5.6.3 1.1.3 1.9.2 1.1-1.4 2.6-.1 4-.7M389.3 120.1c0 .5.1 1.1.5 1.5 1.2-.2.7 1.5 1.8 1.4.6-.2 0-.7.2-1.1-.2-1-1.1-1.1-1.7-1.6-.1-.2.1-.3.1-.5-.4-.3-.6 0-.9.3M387.9 76.4c-3.2-1.1-6.7-1.6-10.2-2.1l.3.7-.1 8.6.8-.2c5.2.7 10 2.4 14.2 5.8l.2.7c1.4-2 3.6-3.7 5.2-5.6l1.6-.9-.8-.3c-3.3-3-7.1-5.2-11.2-6.7M329 111.8l.7 5.8c.3 2.2 1.3 4.4 1.2 6.6.3-.5.1-1.4 1-1.5-.4-.7.7-1.3.1-1.9.3-1.5.5-3.1 1.8-4.2 1.6-.1 1.7-2.2 3.4-2.3.8 0 1.3 1.1 1.7 1.5-1-1.2-1-3.2-.7-4.6l-.7.3c-2.9-.1-6 .2-8.8-.2l.3.5zM385.8 126.6c.8-.8 2.3-.8 2.4-1.9-1.1-.2-1.7.4-2.4 1-.1.3-.5.7 0 .9M405.9 110.7l1 1c1 .7.3 2.1 1.4 2.7 1.2.6 1.7 2.1 2.2 3.1l.3-.9c.4-1.7.4-3.7.9-5.4-2 0-4.1.2-5.8-.5M393.1 132.9c1.1.3 1.8 1.6 3.2 1.2 1.1-.6 3 .4 3.8-.8-.1-1.2.9-2 1.4-3l.4-.1c.6.7.6 1.7.9 2.4.9-.9 1.6-2 2.4-3 2.1-3 3.9-6.3 4.6-9.8-.8 0-1.7.2-2.5.4-.9-.1-2 .5-2.8-.2-.3-.2-.5.1-.4.4-.3.5-.6 1.1-1.4.9-.6-.3-.6-.9-.8-1.3l-.2 1c-.7.7-.9 1.4-1.4 2.1-.7.7-1.7.5-2.4 1.1-.1 1.5-1.8 1.2-2.8 1.7-.1.2.2.2.2.4.5.1 1.1.1 1.4-.3 1.3.4 1-1.3 1.8-1.9.7-.1 1.3-.7 2-.2.7.8.9 2.1.8 3.2-.8.8-.4 2-.9 2.9.1 1.1-1.1 1.5-1 2.6-.4.5-1.1.5-1.7.5-2.5-.9-5.1-1.6-7.9-1.8-.3.1-.4.3-.4.6 1.2.4 2.5.5 3.7 1M374.3 160.6l.3-.5-1 .3a49.7 49.7 0 01-32.3-13.9l-.1.4-6.5 6.6c9.9 8.6 21 14.1 33.7 15.8 2 .3 4.4.2 6.3.8l-.5-.8.1-8.7zM361.5 126.5c3.4 2.8 7.2 4.5 11.4 5.3.2-.9-.1-1.9.3-2.7.3-.7 1.2-.7 1.8-.6.4 0 .6-.5.4-.8-.9-.2-.5-1.2-.8-1.8 0-.3.6-.2.4-.7-.6-.5.3-1.1-.2-1.6l.4-.4c-1.9.8-4-.4-5.6-1.1-.8-.5-2-.9-2.2-2-1.4 2.3-4 4.3-5.9 6.4M358.3 116.6c-.3-.2-.4-.1-.6.1l-.5-.1c0-1.8-2-.7-2.8-1.7.9 1.6 1.4 3.5 2.3 5.1.6 1.5 1.8 2.6 2.4 4 .6-1.1 1.8-2.1 2.7-3.1.1-.5 0-.9-.3-1.2-.3-.7 0-1.6-.5-2.2-.8.3.3 1.1-.1 1.6-.3.2-.7-.1-.8-.4-.7-.1-1.3-.8-1.5-1.4.6-.2-.2-.4-.3-.7M364.3 117.5c-.2.8-.7 1.5-1.3 2.1l.1.1c.8-.5 1.3-1.5 2.3-1.6l-1.1-.6z"/><path class="st0" d="M373.5 148.3a36.6 36.6 0 01-20.4-7.7c.2.8 1.2 1.2.9 2.2-.5.9-1.6.9-2.5.9-1.8-.3-3.1 1.1-4.8 1.3-1.6.5-2.1-1.4-3.5-1.3a49.4 49.4 0 0030.6 13.1l.9.6-.4-1.1V148l-.8.3zM339.3 144.2c-1.1-.8-2-2-2.9-3-1-.3-2.1-1-2.7-2-.3-.4 0-1-.4-1.2l-.4.5c-1.1.5-1.5-.6-2.3-1.1-1-.5-.5-2.4-1.8-2.1-.5 0-.7-.6-1-.9-1.2.1-1.5-1.2-2.2-1.9-.1.3 0 .7-.4.8-1.3.3-1.7-1.3-2.6-1.9-.2.1-.4.4-.7.3a3.9 3.9 0 01-1.3-2.7c-1-1.2-.6-3-.4-4.5.2-.4.7-.6.6-1.1.3-.7 1-.7 1.7-.8.3.1.5.4.6.6.4-.3 1.3 0 1-.9.5-.5 1.3-.6 2.1-.8.5.6.8 1.4 1.4 2l-.4-.7c-.8-3.1-1.4-6.3-1.5-9.6 0-.2-.4-.3-.2-.5l.1.1.1-1.8-.9.3-8.8-.1a64.3 64.3 0 007.8 27.8c2.2 4.2 5.5 7.9 8.4 11.8l6.3-6.5.8-.1zM349.5 70.3c-2 1.4-3.8 3.1-5.8 4.3 2.3 1.5 4.3 4 6.4 5.9l.2.6a37.1 37.1 0 0119-9.6c1.7-.2 3.4-.7 5-.4-.1-3-.4-6.1-.1-9.1-9.2.6-17.4 3.3-24.7 8.3M341.9 103.3c-.3 1.5-.2 3.3-.8 4.7 1.1-.5 2.7-.3 4-.2-.7-.4-.1-1.3-.5-1.8-.1-.8-.2-1.8.5-2.3-.1-1.3 1.3-2 1.4-3.1.3-1.3 1.9-.4 2.6-1.1.5-.3.1-.7.1-1 .6-.9 1.6-.8 2.4-1.3.5-.8 1.2-1.7 2.1-2.2 1.9.1 1.9-2.6 3.7-2.7-2.5-1.9-4.8-4.4-7-6.5-4.3 5.2-7.3 11-8.5 17.5M343.1 116.2c.1-.6-.8-.7-.7-1.3.6-1.2 0-3.1 1.6-3.6-1.1.2-2.1.4-3-.3l.4.8c.1 2.1.9 4.1.5 6.2.4-.6.5-1.5 1.2-1.8M351.9 139l-.2-.2.2.4zM341.3 77.3l-3.4 4.4a50.7 50.7 0 00-9.1 26.3l8.7-.2.8.3c-.3-.2-.3-.6-.4-.9.7-9 3.9-17.1 10.1-23.8a70.6 70.6 0 01-6.7-6.7v.6zM368.1 136.4a6 6 0 012.4-1.5c-2.8.6-5.3-1.5-7.7-2.6-1.4-1-3.1-1.8-4-3.4a55.4 55.4 0 01-6.3 6.5c1 .1 1.5 1.1 2.3 1.6a39.9 39.9 0 0016.2 7.2l-1.5-.7c-1.1-1.3-2.8-2.8-2.8-4.6 1.1-.3 1-1.6 1.4-2.5M346.4 111.3l-.2 1.7c-.4 1-1.6.2-2.2.9-.4.6 0 1.3.4 1.8-.9 2 2 2.7 2 4.5.9 1.1-.1 2.8 1.1 3.8.3 2.1-.3 4.8 1.5 6.5l.3 2c.4 1.4-1.6 1-1.4 2.2.4-.2.5.3.5.4v-.1c2.4-2.8 5.2-5.8 8.1-8.3l-1.2-1.2c-2.2-3.4-4-6.9-4.9-10.9l-.9-.5c0 1-.5 1.8-.4 2.8l-.3.4c-.7 0-1.1-.6-1.6-.9-.1-.3-.5-.9.1-1.2l.8.2c.3-.3.2-.8.3-1.3.1-.8-.6-1.5-.1-2.1.6-.1 1.1.7 1.3 1.1.6.2 1.1-.3 1.6-.5 0-.5.8-1.3-.1-1.6.5-1.2.1-2.5-.1-3.7-.3-1-1.5-.9-2.4-.8-2.6.8.4 2.8-.2 4.3-.4 1-1.3.1-2 .5M427.5 111.1l-.5-.4.3.9c-.5 10.5-4 19.8-10 28.1-1.2 1.4-2.2 3.1-3.7 4.1 2.4 1.9 5.1 4.7 7.1 6.9l.2-.5a60.7 60.7 0 0015.8-38.6l.4-.8-.5.2-9.1.1z"/><path class="st0" d="M341.8 72.4l.2-.4c9.2-8.4 20-13 32.3-13.6l-.3-.8-.1-7.6.3-.9c-12.7.5-24 4.8-34 12.1-1.9 1.3-3.6 3.4-5.6 4.5h.3c2.4 1.8 4.8 4.4 6.9 6.7M373.8 74.6c-8 .6-15 3.9-21.1 9 2.4 1.7 4.6 4.4 6.7 6.3l.5-.7c3-2.1 6.1-4.1 9.7-5 1.6-.2 3.1-.9 4.8-.5-.3-3-.3-6.3 0-9.3l-.6.2zM374.3 87.1c-5.1.7-9.8 2.4-13.5 6.4h.7c.8.8 2 .6 2.6 1.6.3.6-.5.5-.5 1l.5.4c.6.2.5-.3.7-.6.8-.8.9.8 1.7.8.5-.4 1.3-.4 1.7.2.5-.4 1.6 0 1.8-.8 1-1.1.4-2.7 1.9-3.3.5.3 0 .8.2 1.2 1 .4 2.1-.8 2.9.2-1-2.3-.8-4.8-.7-7.1M374.6 101.3c-.9 1.6-2.5 1.9-4 2.4-.4.5-.3 1.6-1.3 1.5-.3.7-1.4 1.1-1 2.1-.5 1.1-.3 2.5-.5 3.6-1.9 1.2-1.3-1.6-2.3-2.1l-.3.5c-.4.1-.6-.1-.9-.4-.3-.1-.8-.2-1 .1-.4.7-1 1.3-.9 2.2-.2.6-1.1.4-1 1 1 0 2.2-.2 3.2-.4.7.2 1.3-.3 2.1-.4.2.1.6.4.4.8h.3c.5-.4.7-1 .5-1.5.1-.7.8-.7 1.2-.9.4.2.2.6.2.9 1.4.5-.4 1.6-.6 2.3-.4.6 0 2-1.2 1.8-.2-.1-.4-.3-.3-.5h-.2c0 .5.4 1.2.9 1.4.9-.7.9-2 2.2-2.1.6-.7-.3-1.8.7-2.3 1.6 0 3.4-.7 4.7.6-.1.6-.3.8.2 1.3-.3.7-.5 1.5-1.1 2.1.2.4 0 .9-.3 1.2-.4 1.9-2.6 1-3.9 1.7a10 10 0 007 1.9c1.4-.1.8-1.7 1.5-2.5.4-2.2 2.5-.7 3.7-1.3.5-.9.9-1.9 1.1-2.9-.8-.5-1.1-1.5-.8-2.4-.5-.7-.5-2.1-1.7-2.2-.2-.2 0-.6.1-.8 0-.7.7-.9.9-1.5-.7-.5-.5-1.5-.5-2.1-1.2.4-1.4-1.3-2.3-1.6-.2-.7-1-.9-1.6-1-1.5.7-1.8-1.1-2.9-1.6-.1-.3-.4-.9 0-1.1.6-.5 1.3-.1 2-.1l-.5-.3c-.5-.6-1.6-.2-2.3 0 .4.6.1 1.8.5 2.6M325.8 108l-.2-1.2a51 51 0 019.5-27.1c1.4-1.6 2.5-3.6 4.2-4.8-2.1-1.9-4.2-4.2-6.4-6.3l-.2-.9c-9 10-14.6 21.5-16.2 34.6-.4 1.9-.1 3.9-.5 5.8a46 46 0 019.8-.1M411.4 145.8c-.9 1.7-2.9 2.8-4.3 4.2-2.1 2.1-5.4 2.5-6.5 5.5-1.1 1-1.5 2.6-3 3.2-.6 1.5-2.2 1.4-3.1 2.5-2.7 2.4-4.4-1.5-6.8-2l-4.8.9c-1.7 0-3.4.6-4.9.1.2 3.2.2 6.7 0 9.9l.6-.4a62 62 0 0039.7-16.7l-6.7-6.4-.2-.8zM377.8 57.5c0-.3.1-.5.3-.7.4-.3.8.1 1 .4 0 .4.2 1.2-.1 1.5.4.1.6-.2.9-.2 7.2.5 14 2.7 20 6.1v-.2c1.2-.6 2.8-1.4 4.1-.3 1.5-.6 1.8 1.3 3 1.5 1.5.9 3.2 2.5 3.4 4.3.3.6 1.2 1 1.3 1.6 1-2.2 3-3.7 4.8-5.5l1.1-.4A59.6 59.6 0 00384 49.7c-2-.3-4.2-.2-6.2-.8.3 2.4.2 5.8 0 8.6M377.8 71.1c1.2-.4 2.4.1 3.6.1 6.2 1 12.1 3 17 6.8a5.1 5.1 0 01-1.5-2.3c.1-.1.2-.2.4-.1.1-1-1-1.5-1.1-2.4.1-.2.4-.4.7-.3 1.1 1 2 2.1 2.8 3.2.7-.3 1.3.2 1.8.5.9.5.3 1.7 1.1 2.3.1 1.9 2.4 2.9 2.3 4.8 0 .4.6.1.8.3l1.9 2.3c-.4.5-.1 1 .3 1.3.8.4 1.3-.7 2.2-.5 1.2.7-.2 1.5-.1 2.3.5 0 1.1-.4 1.5.1.2.7-.6 1.1-.9 1.6 0 .7.6.5 1.1.7.6 0 .9.7.8 1.1 1.6 1.6-.5 3.4.3 5.2.5 1.1-.1 2.2-.8 3.1 0 1.4-1.2 2.2-1.7 3.4l-1.6.3c-.9.9.7 1.9-.1 2.4l3.5.1-.4-.4c-.5-1.4-.4-3.3.5-4.5.5-1.1.7-2.5 1.7-3.5.2-.1.6-.5.8 0 .1 1.1 0 2.3-.5 3.3 1 1.5.9 3.4 1 5.2 3.1-.2 6.2-.2 9.3-.2l-.3-.6a47.1 47.1 0 00-4.1-16.4c-.7 0-1.1.6-1.9.4a.7.7 0 01-.4-.6c-1.3-1.2-2.1-2.8-3.5-3.9-1.6.2-2.4-1.7-3.8-1.9-1.3-.5-.4-2.6-2.3-2.1-.9-.4-1.8-1.1-2-2.1 0-1.6-.3-3.4-1.8-4.5-1.1-.4-1.6 1.1-2.8.9-.6-.3-.3-1.1-.5-1.7-.2-.5-.8-.8-.7-1.5 1.5-2-1.8-1.9-1.1-3.9-.2-1.4-1.6-1.9-2.3-3a52.6 52.6 0 00-15.4-4.4c-1.4-.2-2.6.1-3.8-.5l.3.6c-.2 3.1 0 6.3-.3 9"/><path class="st0" d="M412.4 74.4c.7.2.9.9 1.3 1.4 2.3 1.2 2.9 3.7 4.9 5.1 1.1 2.4 3.8 4.2 3.9 6.9a49.7 49.7 0 014.8 19.7l-.2.4c.3 0 .5-.1.8-.3l9.1-.2c-.6-.9-.3-2.2-.5-3.3a62.9 62.9 0 00-16.6-36.8c-1.8 2.3-4.1 4.5-6.3 6.8l-1.2.3z"/><path class="st1" d="M379.1 56c.3-.5 1-.3 1.4-.2l4.6-2c1.8.2 3.9.4 4.9 1.9v.3c-1.1.9-2.6 1.7-4.1 1.1-2.1.4-5 1.6-6.7-.5-.1-.2-.3-.4-.1-.6M406.3 61.8c.6.2 1.2.5 1.4 1.2-.2.7.7 1.3.2 1.9-1.7.4-1.9-1.5-3.2-2-.2-.3-.2-.6-.2-.9.5-.8 1.1.4 1.8-.2"/></svg>