<svg enable-background="new 0 0 237.6 482.2" viewBox="0 0 237.6 482.2" xmlns="http://www.w3.org/2000/svg"><path d="m-257.5 244.7h115.1v115.1h-115.1z" fill="#0063ac"/><path d="m-228.3 263.6v45.3c0 24 11.9 32.9 27.6 32.9 16.6 0 29.1-9.6 29.1-33.2v-44.9h-10v45.6c0 16.9-7.4 24.4-18.7 24.4-10.3 0-17.9-7.3-17.9-24.4v-45.6h-10.1z" fill="#fff"/><path d="m-135.2 244.7h115.1v115.1h-115.1z" fill="#0063ac"/><path d="m-97.2 340.8s-.1-54.9-.7-64.6l.4-.1c3.8 8.3 38.7 64.7 38.7 64.7h10v-76.9h-9.3s.2 53.5 1.1 63.8l-.4.1c-3.5-8-38.2-63.9-38.2-63.9h-11v76.9z" fill="#fff"/><path d="m-135.2 366.9h115.1v115.1h-115.1z" fill="#0063ac"/><path d="m-58.2 391.7c-4.6-4.1-11.8-6.4-21.6-6.4-8 0-14.2.7-19 1.6v75.9h9.9v-30.8c2.3.6 5 .7 8 .7 9.7 0 18.2-2.9 23.5-8.4 4-4 6-9.5 6-16.4 0-7-2.6-12.6-6.8-16.2" fill="#fff"/><path d="m-80.7 425.1c-3.2 0-6.1-.2-8.2-.8v-29.9c1.7-.3 5-.8 9.3-.8 10.9 0 18.1 4.9 18.1 15.2.1 10.4-7.1 16.3-19.2 16.3" fill="#0063ac"/><path d="m-257.6 367.1h115.1v115.1h-115.1z" fill="#0063ac"/><path d="m-176.6 394.6c-6.7-6.3-16.9-9.5-31.1-9.5-7.9 0-15 .7-21.2 1.6v75.6c5.1.7 11 .9 18.1.9 14.9 0 26.8-3.8 34.1-11 7-7.1 11-17.4 11-29.9 0-12.4-4-21.4-10.9-27.7" fill="#fff"/><path d="m-208.9 455.3c-3.9 0-7.5 0-10-.5v-60.8c2.6-.6 6.5-1 11.6-1 21 0 31.3 11.3 31.1 29.6 0 20.9-11.5 32.8-32.7 32.7" fill="#0063ac"/><path d="m-257.5 0h237.5v237.5h-237.5z" fill="#0063ac"/><path d="m-53.8 123.7c-3.3 4.7-7.3 9.1-10.4 13.9.3-3.8.8-8.5-.7-12.1-2.6-7.8-4.8-15.6-5.5-24.1l.1-3.3c1.9 8.7 10.5 14.7 9.9 24.4.2 2.4-.5 4.4-1 6.4l.2.2.4-.4c1.3-4.8 1.9-9.8 3.9-14.3 2.8-6.4 6.3-12.9 4.9-20.7 4.2 9.2 2.9 21.4-1.8 30" fill="#fff"/><path d="m-59 74.4c5.6 7.6 6.9 19.7 2.8 28.4-1.5 3.7-2.6 7.6-3.2 11.7-.3-.7-.4-1.6-.6-2.4-2.2-8.5-10.3-14.6-13.6-22.6-1-2.6-1.9-5.3-2.4-8.2 3.5 6.5 12.3 9.9 14.7 17.2 1 1.8.9 4.1 1.5 6.1.1 0 .3-.1.3-.2-1-7.4-.7-15.2.3-22.6-.1-4-.4-7.8-2.7-10.9 1.3.7 1.9 2.3 2.9 3.5" fill="#fff"/><path d="m-63 72.9c1.5 6.6-.7 13.1.7 19.8l-.1.1c-3.6-7.1-11.3-10.5-16.6-16.2-3.1-3.4-4.4-7.5-5.1-11.9 3 7.3 11.2 8.9 15.9 15.1 1.6 1.4 2.1 3.4 3.1 5l.2-.2c-2.7-5.8-3.6-12.2-5.5-18.4-1-2.7-2.8-5.3-5.3-7 6.1 1.4 11.5 7.9 12.7 13.7" fill="#fff"/><path d="m-79.4 57.7c4.6 4.1 6.7 9.5 8.1 15.1l.8 1.8c-6.7-4.8-12.8-11.4-17.2-18.2l-5.3-5.4c4.6 2 9.6 3.1 13.6 6.7" fill="#fff"/><path d="m-167.5 52.5c8.8-4.3 18.4-6.6 28.8-6.8 23.9 0 46.6 14 57 36.1 6.6 12.7 8.4 30.2 4.2 44.5-4.3 16.9-18.6 34.1-35.2 41-18.7 9.1-45.2 6.9-61.8-5.1-23.1-15.8-32.6-43.2-25.6-70.1 4.3-16 17-32.1 32.6-39.6" fill="#fff"/><path d="m-185.8 51.9c-4.7 4.1-7.9 9.2-11.3 14-3.1 3.8-7.1 6.4-10.6 9.6 1.9-3.9 2-8.6 4.7-12.2 3.8-6.6 10.9-8.9 17.2-11.4" fill="#fff"/><path d="m-211.2 66.1c2.2-2.8 5.1-4.8 8.3-5.6-6.2 4.3-5.9 12-7.8 18.4-.6 2.4-1.7 4.6-2.3 7l.2.1c1-2.8 2.9-5.3 5.1-7.6 4.5-4.1 11.1-6.7 13.2-12.8-.1 8.5-7.2 15.1-13.9 19.8-2.8 2.4-5.5 5.2-7 8.3-.2-2.1.3-4.3.2-6.5-.7-7.2-1.2-15.6 4-21.1" fill="#fff"/><path d="m-223.9 91.3c-.2-7.5 2.9-13.6 7.3-19.1.1-.1.2-.2.4-.2-4.8 7.3-.8 16.5-1 24.8l-.6 8.5c.1.1.1.3.3.2.3-.9.4-2 .5-2.9 1.1-6.9 7.1-11.7 12.3-16.5 1.1-1.2 2.1-2.5 2.7-3.9-.4 3.4-1.5 6.9-2.9 10-4 7.9-11.6 14.4-12.9 23.4-.8-8.6-6.7-15.1-6.1-24.3" fill="#fff"/><path d="m-227.5 102c.5-2.3 1-4.8 2-6.9-1.9 9.9 4.7 17 6.9 25.6.9 3.2 1.1 6.6 2.4 9.6.1.1.2-.1.3-.2-3.3-9.1 1.4-17.6 6.1-24.7 1.1-1.9 1.8-4.1 2.4-6.3.5 4.1-.5 8.9-1.1 13.1-1.1 5.4-2.8 10.6-4.3 15.9-1 3.3-.7 7-.2 10.5l-.5-.4c-3.5-6.4-10.3-11.3-12.3-18.3-1.8-5.5-2.9-11.9-1.7-17.9" fill="#fff"/><path d="m-227.9 121.3c.8 10.5 12 16 17.3 24.7 1.2 1.8 2.3 3.7 3.9 5.2-.3-1.1-1.3-2.1-1.7-3.2-1.8-3.6-2.5-8-2.1-12.4.5-5.3 2.8-10.3 1.9-16 4.6 9.9 3.2 22.3 5.8 33 .7 2.3 2 4.4 2.9 6.7-9.4-6.4-22.3-12.5-26.5-24.3-1.6-4.1-1.8-9.1-1.5-13.7" fill="#fff"/><path d="m-222.2 145.3c5.3 11.9 18.4 12.9 27.3 20.1 1.6 1.4 3.3 2.7 5.2 3.5l.1-.1c-2-1.8-4.4-3.9-5.8-6.3-5.2-7.2-3.3-17.2-7.2-25 3.5 4.2 6.7 8.6 8.8 13.4 3.2 7.8 4.4 16.6 11.7 22.5-7.9-2.6-17.2-1.9-24.2-6.7-7.7-4.7-14.5-12.7-15.9-21.4" fill="#fff"/><path d="m-208.7 167.5c8.4 9.6 22.2 6.4 33.4 8.9 1.6.2 3 .9 4.7.6-1.3-.9-3.2-.8-4.7-1.5-8.8-3.1-10.1-12.6-14.9-19 6.1 4.1 11.2 9.5 16.9 14.8 4.1 3.5 8.9 5.2 14 6.2-1.2.4-2.8.3-4.2.7-9.2 2.3-19.5 6-29.2 2.7-6.3-2.1-12.8-7.1-16-13.4" fill="#fff"/><path d="m-94.3 189.8c-9.5 3.6-19.4-.2-26.8-5.8-3-1.9-5.7-4.7-9.6-4.4-1.4 0-2.8 0-4 .4 7.2 3.4 13.9 8 20 13.9-1 1.2-2.4 2.3-3.6 3.3-5.9-6.3-12.4-12.5-19.8-16-1.4.2-2.8 1-4.1 1.7-6 3.8-11.9 8.6-16.3 14.5l-3.8-3.1c6.1-6.1 12.8-10.9 20.1-14.3-7.2-2.3-11.9 3.8-17.4 6.8-6.4 4.5-15.6 6.6-23.3 3.5-4.1-1.6-8.1-3.9-11.2-7.7 6.1 4.2 15.1 4.6 22 1.9 9.3-4 18.9-9.1 30.1-6.7 1.8 0 3.5 1.8 5.1.3 8.3-2.2 17.7-.7 24.8 3.1l7.4 2.9c6.8 2.5 15.7 1.8 21.6-2.3-2.8 3.8-7 6.5-11.2 8" fill="#fff"/><path d="m-84.1 180c-10.7 4-21.4-.9-31.6-2.6l-2-.3v-.1c4.9-1.1 9.6-2.6 13.5-6.1 5.7-5.5 10.8-11.2 17.2-15.5-4.7 6.1-5.2 14.7-13 18.5-1.9 1.3-4.4 1.5-6.4 2.4 2.8.1 5.4-1 8.3-1.2 10.4-1.6 22.4 0 29.7-8.9-2.7 6.4-9.5 11.6-15.7 13.8" fill="#fff"/><path d="m-78.2 169.2c-5.4 1.5-11.2 1.9-16.5 3.7 9-7.7 8.5-19.6 14.4-28.6 1.9-2.6 3.5-5.3 5.7-7.7-3.6 7.3-2.1 16.8-6.2 23.9-1.6 2.8-3.9 5.5-6.5 7.8.8 0 1.6-.8 2.3-1.2 6.8-6.8 15.7-8.7 23-14.2 2.9-2.3 5.6-5.4 6.9-8.7-1.4 11.1-12.6 21.6-23.1 25" fill="#fff"/><path d="m-64.8 150c-4.2 2.8-8.5 5.3-12.5 8.4v-.4c6.2-10.3 3.2-24.5 7-35.8l1.4-3.8c-.8 7.1 2.3 13 2.1 20.1-.2 4.3-1.6 8.1-3.9 11.5h.4c3-4 5.4-8.2 9-12 5.5-5.3 11.1-10.8 11.8-18.1 1.8 12.4-5.1 23.2-15.3 30.1" fill="#fff"/><g fill="#0063ac"><path d="m-112.4 149.2.4-.6c1.9-1.5 4-2.9 5.6-4.7h.2c-.4-.1-.9.3-1.3.1-.9-.4-1-1.2-1-2.1l-3.9-4-.2-.6c-.3.8-.9 1.2-1.4 1.8 0 .5-.2 1.3.4 1.6 1.3.4 2.9 1.2 3.2 2.7-.5 1.4-3.2 2.7-1.5 4.2.6.7-.7 1-.5 1.6"/><path d="m-135 97.8c.7.4 1.1-.3 1.8-.5.9.1 1.6.9 2.1 1.4.6.2 1.1-.1 1.6-.3.4-2.6 3.6-2.2 4.6-4.7l-.6.2c-.2-.4-.9-.2-.8-.8.5-.5 1.2-1.3 1.9-1.5-2.8-1.8-5.8-3.3-9-4.1-1.3-.3-2.6-.3-3.8-.8.6 1.8.1 4.5.5 6.6l2.3.8c.7-1.1 2.1-1.3 2.8-2.4.4-.3.9 0 1.2.4.1.9-.1 1.7-.4 2.5-1.1 1.8-3.1 2-4.2 3.2"/><path d="m-101.3 119.1c-1.3 4.2-2.9 8.4-5.6 12.1-1 1.3-2.1 3.2-3.4 3.9l2.9 2.5c.2-.2.1-.4.1-.6 0-.4.2-.8.7-.8 1.4 0 1.4 1.5 2.2 2.2-.2 1.2.9 2.2.5 3.3 8-8.4 12-18.7 12.7-30.2l.4-.5c-2.8.3-5.9.1-8.8.1l-.7-.2c.2 1.9-.3 3.8-.4 5.7l1 1.1c.3.4.2 1.1-.2 1.5-.4.3-1 .3-1.4-.1"/><path d="m-108.9 91.1c-1.1-2-2.8-3.8-4.2-5.6l-.2.4c-2.9 3-6.1 6.2-8.9 9.3.2.4.5.7.9.9.1-.8.5-1.4.6-2.2.7-1 1.9-.4 2.9-.2 1.5-.4 2.9.4 4.5.3 1.1.6 1.2 2 2.3 2.6.3.4.1.9-.3 1.2.3 2.4 1.5-.6 2.7-.1.5.2 1.1.1 1.5.7.2 1 1.4.8 1.5 1.7-.1.5-.6.6-.9.9.3.9-1 1.5-.5 2.6 1.8.3 1.9-1.8 2.8-2.7-.5-1.6-.8-3.3-1.8-4.8-1-.2-1.7-1.5-2.7-1.7-2.3-.8 0-2.1-.2-3.3"/><path d="m-137.2 157.2c2.3-.8 5.1-.7 7.6-1.1-.5-.2-1-.3-1.4-.8-1.5-.1-2.2-1.6-2.6-2.8-.2-.8.4-1.5.7-2.3-.6-1.3-2.6-.4-3.7-.8-.3-.3-.5-.6-1-.7l.5.7c-.1 2.6.3 5.2-.1 7.8"/><path d="m-135.1 132.5c.8.2.2 1.1.8 1.4 1.3-.4 2.3 1.1 3.3.1-.1-1.5 1.6-1.4 2.5-1.7 1.4-.9 3-2 2.9-3.9l-.2-.3c-1 0-1.5.8-2.2 1.4-.9.5-1.4-.9-2.1-.6 0 .2.2.2.3.3.2.2.2.7 0 .9-1.1 1-1.6-.5-2.6-.4v.4c0 .2-.1.6-.4.4-.6-1-1.9-.7-2.6-1.6-.4-.2-.8.1-1.1.3-.2.5-1.2-.1-1 .8-.8.3-.9 1.1-1.4 1.6-1-.2-1.4.9-2.4.9.1.2 0 .5.3.5.6.3 1.1.3 1.9.2 1.1-1.4 2.7-.1 4-.7"/><path d="m-125.8 120.1c0 .5.1 1.1.5 1.5 1.2-.2.7 1.5 1.8 1.4.6-.2 0-.7.2-1.1-.2-1-1.1-1.1-1.7-1.6-.1-.2.1-.3.1-.5-.3-.3-.6 0-.9.3"/><path d="m-127.2 76.4c-3.2-1.1-6.7-1.6-10.2-2.1l.3.7-.1 8.6.8-.2c5.2.7 10 2.4 14.2 5.8l.2.7c1.4-2 3.6-3.7 5.2-5.6l1.6-.9-.8-.3c-3.3-3-7.1-5.2-11.2-6.7"/><path d="m-186.1 111.8.7 5.8c.3 2.2 1.3 4.4 1.2 6.6.3-.5.1-1.4 1-1.5-.4-.7.7-1.3.1-1.9.3-1.5.5-3.1 1.8-4.2 1.6-.1 1.7-2.2 3.4-2.3.8 0 1.3 1.1 1.7 1.5-1-1.2-1-3.2-.7-4.6l-.7.3c-2.9-.1-6 .2-8.8-.2z"/><path d="m-129.3 126.6c.8-.8 2.3-.8 2.4-1.9-1.1-.2-1.7.4-2.4 1-.1.3-.5.7 0 .9"/><path d="m-109.2 110.7 1 1c1 .7.3 2.1 1.4 2.7 1.2.6 1.7 2.1 2.2 3.1.2-.3.2-.6.3-.9.4-1.7.4-3.7.9-5.4-2 0-4.1.2-5.8-.5"/><path d="m-122 132.9c1.1.3 1.8 1.6 3.2 1.2 1.1-.6 3 .4 3.8-.8-.1-1.2.9-2 1.4-3l.4-.1c.6.7.6 1.7.9 2.4.9-.9 1.6-2 2.4-3 2.1-3 3.9-6.3 4.6-9.8-.8 0-1.7.2-2.5.4-.9-.1-2 .5-2.8-.2-.3-.2-.5.1-.4.4-.3.5-.6 1.1-1.4.9-.6-.3-.6-.9-.8-1.3 0 .4-.1.7-.2 1-.7.7-.9 1.4-1.4 2.1-.7.7-1.7.5-2.4 1.1-.1 1.5-1.8 1.2-2.8 1.7-.1.2.2.2.2.4.5.1 1.1.1 1.4-.3 1.3.4 1-1.3 1.8-1.9.7-.1 1.3-.7 2-.2.7.8.9 2.1.8 3.2-.8.8-.4 2-.9 2.9.1 1.1-1.1 1.5-1 2.6-.4.5-1.1.5-1.7.5-2.5-.9-5.1-1.6-7.9-1.8-.3.1-.4.3-.4.6 1.2.4 2.5.5 3.7 1"/><path d="m-140.8 160.6.3-.5-1 .3c-12.3-.8-23.3-5.2-32.3-13.9l-.1.4-6.5 6.6c9.9 8.6 21 14.1 33.7 15.8 2 .3 4.4.2 6.3.8l-.5-.8v-8.7z"/><path d="m-153.6 126.5c3.4 2.8 7.2 4.5 11.4 5.3.2-.9-.1-1.9.3-2.7.3-.7 1.2-.7 1.8-.6.4 0 .6-.5.4-.8-.9-.2-.5-1.2-.8-1.8 0-.3.6-.2.4-.7-.6-.5.3-1.1-.2-1.6.2-.1.3-.3.4-.4-1.9.8-4-.4-5.6-1.1-.8-.5-2-.9-2.2-2-1.4 2.3-4 4.3-5.9 6.4"/><path d="m-156.8 116.6c-.3-.2-.4-.1-.6.1-.2 0-.3 0-.5-.1 0-1.8-2-.7-2.8-1.7.9 1.6 1.4 3.5 2.3 5.1.6 1.5 1.8 2.6 2.4 4 .6-1.1 1.8-2.1 2.7-3.1.1-.5 0-.9-.3-1.2-.3-.7 0-1.6-.5-2.2-.8.3.3 1.1-.1 1.6-.3.2-.7-.1-.8-.4-.7-.1-1.3-.8-1.5-1.4.6-.2-.2-.4-.3-.7"/><path d="m-150.8 117.5c-.2.8-.7 1.5-1.3 2.1l.1.1c.8-.5 1.3-1.5 2.3-1.6z"/><path d="m-141.6 148.3c-7.7-.4-14.4-3.2-20.4-7.7.2.8 1.2 1.2.9 2.2-.5.9-1.6.9-2.5.9-1.8-.3-3.1 1.1-4.8 1.3-1.6.5-2.1-1.4-3.5-1.3 8.8 7.7 18.8 12.5 30.6 13.1l.9.6-.4-1.1v-8.3z"/><path d="m-175.8 144.2c-1.1-.8-2-2-2.9-3-1-.3-2.1-1-2.7-2-.3-.4 0-1-.4-1.2l-.4.5c-1.1.5-1.5-.6-2.3-1.1-1-.5-.5-2.4-1.8-2.1-.5 0-.7-.6-1-.9-1.2.1-1.5-1.2-2.2-1.9-.1.3 0 .7-.4.8-1.3.3-1.7-1.3-2.6-1.9-.2.1-.4.4-.7.3-.7-.7-1.3-1.6-1.3-2.7-1-1.2-.6-3-.4-4.5.2-.4.7-.6.6-1.1.3-.7 1-.7 1.7-.8.3.1.5.4.6.6.4-.3 1.3 0 1-.9.5-.5 1.3-.6 2.1-.8.5.6.8 1.4 1.4 2l-.4-.7c-.8-3.1-1.4-6.3-1.5-9.6 0-.2-.4-.3-.2-.5l.1.1c0-.7 0-1.3.1-1.8l-.9.3-8.8-.1c.5 10.1 3.2 19.3 7.8 27.8 2.2 4.2 5.5 7.9 8.4 11.8l6.3-6.5z"/><path d="m-165.6 70.3c-2 1.4-3.8 3.1-5.8 4.3 2.3 1.5 4.3 4 6.4 5.9l.2.6c5.4-5.2 11.9-8.2 19-9.6 1.7-.2 3.4-.7 5-.4-.1-3-.4-6.1-.1-9.1-9.2.6-17.4 3.3-24.7 8.3"/><path d="m-173.2 103.3c-.3 1.5-.2 3.3-.8 4.7 1.1-.5 2.7-.3 4-.2-.7-.4-.1-1.3-.5-1.8-.1-.8-.2-1.8.5-2.3-.1-1.3 1.3-2 1.4-3.1.3-1.3 1.9-.4 2.6-1.1.5-.3.1-.7.1-1 .6-.9 1.6-.8 2.4-1.3.5-.8 1.2-1.7 2.1-2.2 1.9.1 1.9-2.6 3.7-2.7-2.5-1.9-4.8-4.4-7-6.5-4.3 5.2-7.3 11-8.5 17.5"/><path d="m-172 116.2c.1-.6-.8-.7-.7-1.3.6-1.2 0-3.1 1.6-3.6-1.1.2-2.1.4-3-.3l.4.8c.1 2.1.9 4.1.5 6.2.4-.6.5-1.5 1.2-1.8"/><path d="m-163.2 139-.2-.2.2.4z"/><path d="m-173.8 77.3-3.4 4.4c-5.6 7.7-8.3 16.6-9.1 26.3l8.7-.2.8.3c-.3-.2-.3-.6-.4-.9.7-9 3.9-17.1 10.1-23.8-2.4-2.1-4.6-4.3-6.7-6.7z"/><path d="m-147 136.4c.7-.7 1.5-1.2 2.4-1.5-2.8.6-5.3-1.5-7.7-2.6-1.4-1-3.1-1.8-4-3.4-1.9 2.3-4.1 4.6-6.3 6.5 1 .1 1.5 1.1 2.3 1.6 4.8 3.9 10.7 5.9 16.2 7.2l-1.5-.7c-1.1-1.3-2.8-2.8-2.8-4.6 1.1-.3 1-1.6 1.4-2.5"/><path d="m-168.7 111.3-.2 1.7c-.4 1-1.6.2-2.2.9-.4.6 0 1.3.4 1.8-.9 2 2 2.7 2 4.5.9 1.1-.1 2.8 1.1 3.8.3 2.1-.3 4.8 1.5 6.5l.3 2c.4 1.4-1.6 1-1.4 2.2.4-.2.5.3.5.4v-.1c2.4-2.8 5.2-5.8 8.1-8.3l-1.2-1.2c-2.2-3.4-4-6.9-4.9-10.9l-.9-.5c0 1-.5 1.8-.4 2.8l-.3.4c-.7 0-1.1-.6-1.6-.9-.1-.3-.5-.9.1-1.2.3 0 .5.1.8.2.3-.3.2-.8.3-1.3.1-.8-.6-1.5-.1-2.1.6-.1 1.1.7 1.3 1.1.6.2 1.1-.3 1.6-.5 0-.5.8-1.3-.1-1.6.5-1.2.1-2.5-.1-3.7-.3-1-1.5-.9-2.4-.8-2.6.8.4 2.8-.2 4.3-.4 1-1.3.1-2 .5"/><path d="m-87.6 111.1-.5-.4.3.9c-.5 10.5-4 19.8-10 28.1-1.2 1.4-2.2 3.1-3.7 4.1 2.4 1.9 5.1 4.7 7.1 6.9l.2-.5c9.7-11 15.2-23.8 15.8-38.6l.4-.8-.5.2z"/><path d="m-173.3 72.4.2-.4c9.2-8.4 20-13 32.3-13.6l-.3-.8-.1-7.6.3-.9c-12.7.5-24 4.8-34 12.1-1.9 1.3-3.6 3.4-5.6 4.5h.3c2.4 1.8 4.8 4.4 6.9 6.7"/><path d="m-141.3 74.6c-8 .6-15 3.9-21.1 9 2.4 1.7 4.6 4.4 6.7 6.3.2-.2.3-.4.5-.7 3-2.1 6.1-4.1 9.7-5 1.6-.2 3.1-.9 4.8-.5-.3-3-.3-6.3 0-9.3z"/><path d="m-140.8 87.1c-5.1.7-9.8 2.4-13.5 6.4h.7c.8.8 2 .6 2.6 1.6.3.6-.5.5-.5 1 .2.1.4.2.5.4.6.2.5-.3.7-.6.8-.8.9.8 1.7.8.5-.4 1.3-.4 1.7.2.5-.4 1.6 0 1.8-.8 1-1.1.4-2.7 1.9-3.3.5.3 0 .8.2 1.2 1 .4 2.1-.8 2.9.2-1-2.3-.8-4.8-.7-7.1"/><path d="m-140.5 101.3c-.9 1.6-2.5 1.9-4 2.4-.4.5-.3 1.6-1.3 1.5-.3.7-1.4 1.1-1 2.1-.5 1.1-.3 2.5-.5 3.6-1.9 1.2-1.3-1.6-2.3-2.1l-.3.5c-.4.1-.6-.1-.9-.4-.3-.1-.8-.2-1 .1-.4.7-1 1.3-.9 2.2-.2.6-1.1.4-1 1 1 0 2.2-.2 3.2-.4.7.2 1.3-.3 2.1-.4.2.1.6.4.4.8h.3c.5-.4.7-1 .5-1.5.1-.7.8-.7 1.2-.9.4.2.2.6.2.9 1.4.5-.4 1.6-.6 2.3-.4.6 0 2-1.2 1.8-.2-.1-.4-.3-.3-.5h-.2c0 .5.4 1.2.9 1.4.9-.7.9-2 2.2-2.1.6-.7-.3-1.8.7-2.3 1.6 0 3.4-.7 4.7.6-.1.6-.3.8.2 1.3-.3.7-.5 1.5-1.1 2.1.2.4 0 .9-.3 1.2-.4 1.9-2.6 1-3.9 1.7 2 1.5 4.4 2.1 7 1.9 1.4-.1.8-1.7 1.5-2.5.4-2.2 2.5-.7 3.7-1.3.5-.9.9-1.9 1.1-2.9-.8-.5-1.1-1.5-.8-2.4-.5-.7-.5-2.1-1.7-2.2-.2-.2 0-.6.1-.8 0-.7.7-.9.9-1.5-.7-.5-.5-1.5-.5-2.1-1.2.4-1.4-1.3-2.3-1.6-.2-.7-1-.9-1.6-1-1.5.7-1.8-1.1-2.9-1.6-.1-.3-.4-.9 0-1.1.6-.5 1.3-.1 2-.1l-.5-.3c-.5-.6-1.6-.2-2.3 0 .4.6.1 1.8.5 2.6"/><path d="m-189.3 108-.2-1.2c.6-10.1 3.8-19.1 9.5-27.1 1.4-1.6 2.5-3.6 4.2-4.8-2.1-1.9-4.2-4.2-6.4-6.3l-.2-.9c-9 10-14.6 21.5-16.2 34.6-.4 1.9-.1 3.9-.5 5.8 3.2-.4 6.7-.4 9.8-.1"/><path d="m-103.7 145.8c-.9 1.7-2.9 2.8-4.3 4.2-2.1 2.1-5.4 2.5-6.5 5.5-1.1 1-1.5 2.6-3 3.2-.6 1.5-2.2 1.4-3.1 2.5-2.7 2.4-4.4-1.5-6.8-2l-4.8.9c-1.7 0-3.4.6-4.9.1.2 3.2.2 6.7 0 9.9l.6-.4c15.3-.7 28.4-6.5 39.7-16.7l-6.7-6.4z"/><path d="m-137.3 57.5c0-.3.1-.5.3-.7.4-.3.8.1 1 .4 0 .4.2 1.2-.1 1.5.4.1.6-.2.9-.2 7.2.5 14 2.7 20 6.1v-.2c1.2-.6 2.8-1.4 4.1-.3 1.5-.6 1.8 1.3 3 1.5 1.5.9 3.2 2.5 3.4 4.3.3.6 1.2 1 1.3 1.6 1-2.2 3-3.7 4.8-5.5l1.1-.4c-9.6-9.1-20.9-14.1-33.6-15.9-2-.3-4.2-.2-6.2-.8.3 2.4.2 5.8 0 8.6"/><path d="m-137.3 71.1c1.2-.4 2.4.1 3.6.1 6.2 1 12.1 3 17 6.8-.6-.6-1.3-1.4-1.5-2.3.1-.1.2-.2.4-.1.1-1-1-1.5-1.1-2.4.1-.2.4-.4.7-.3 1.1 1 2 2.1 2.8 3.2.7-.3 1.3.2 1.8.5.9.5.3 1.7 1.1 2.3.1 1.9 2.4 2.9 2.3 4.8 0 .4.6.1.8.3l1.9 2.3c-.4.5-.1 1 .3 1.3.8.4 1.3-.7 2.2-.5 1.2.7-.2 1.5-.1 2.3.5 0 1.1-.4 1.5.1.2.7-.6 1.1-.9 1.6 0 .7.6.5 1.1.7.6 0 .9.7.8 1.1 1.6 1.6-.5 3.4.3 5.2.5 1.1-.1 2.2-.8 3.1 0 1.4-1.2 2.2-1.7 3.4l-1.6.3c-.9.9.7 1.9-.1 2.4l3.5.1-.4-.4c-.5-1.4-.4-3.3.5-4.5.5-1.1.7-2.5 1.7-3.5.2-.1.6-.5.8 0 .1 1.1 0 2.3-.5 3.3 1 1.5.9 3.4 1 5.2 3.1-.2 6.2-.2 9.3-.2l-.3-.6c-.5-5.8-1.7-11.4-4.1-16.4-.7 0-1.1.6-1.9.4-.2-.1-.4-.3-.4-.6-1.3-1.2-2.1-2.8-3.5-3.9-1.6.2-2.4-1.7-3.8-1.9-1.3-.5-.4-2.6-2.3-2.1-.9-.4-1.8-1.1-2-2.1 0-1.6-.3-3.4-1.8-4.5-1.1-.4-1.6 1.1-2.8.9-.6-.3-.3-1.1-.5-1.7-.2-.5-.8-.8-.7-1.5 1.5-2-1.8-1.9-1.1-3.9-.2-1.4-1.6-1.9-2.3-3-4.9-2.2-9.8-3.7-15.4-4.4-1.4-.2-2.6.1-3.8-.5l.3.6c-.2 3.1 0 6.3-.3 9"/><path d="m-102.7 74.4c.7.2.9.9 1.3 1.4 2.3 1.2 2.9 3.7 4.9 5.1 1.1 2.4 3.8 4.2 3.9 6.9 2.8 6.1 4.6 12.5 4.8 19.7l-.2.4c.3 0 .5-.1.8-.3l9.1-.2c-.6-.9-.3-2.2-.5-3.3-1.2-14.1-7.2-26.1-16.6-36.8-1.8 2.3-4.1 4.5-6.3 6.8z"/></g><path d="m-136 56c.3-.5 1-.3 1.4-.2l4.6-2c1.8.2 3.9.4 4.9 1.9v.3c-1.1.9-2.6 1.7-4.1 1.1-2.1.4-5 1.6-6.7-.5-.1-.2-.3-.4-.1-.6" fill="#fff"/><path d="m-108.8 61.8c.6.2 1.2.5 1.4 1.2-.2.7.7 1.3.2 1.9-1.7.4-1.9-1.5-3.2-2-.2-.3-.2-.6-.2-.9.5-.8 1.1.4 1.8-.2" fill="#fff"/><path d="m.1 244.7h115.1v115.1h-115.1z" fill="#fff"/><path d="m29.3 263.6v45.3c0 24 11.9 32.9 27.6 32.9 16.6 0 29.1-9.6 29.1-33.2v-44.9h-10v45.6c0 16.9-7.4 24.4-18.7 24.4-10.3 0-17.9-7.3-17.9-24.4v-45.6h-10.1z" fill="#0063ac"/><path d="m122.4 244.7h115.1v115.1h-115.1z" fill="#fff"/><path d="m160.4 340.8s-.1-54.9-.7-64.6l.4-.1c3.8 8.3 38.7 64.7 38.7 64.7h10v-76.9h-9.3s.2 53.5 1.1 63.8l-.4.1c-3.5-8-38.2-63.9-38.2-63.9h-11v76.9z" fill="#0063ac"/><path d="m122.4 366.9h115.1v115.1h-115.1z" fill="#fff"/><path d="m199.4 391.7c-4.6-4.1-11.8-6.4-21.6-6.4-8 0-14.2.7-19 1.6v75.9h9.9v-30.8c2.3.6 5 .7 8 .7 9.7 0 18.2-2.9 23.5-8.4 4-4 6-9.5 6-16.4 0-7-2.6-12.6-6.8-16.2" fill="#0063ac"/><path d="m176.9 425.1c-3.2 0-6.1-.2-8.2-.8v-29.9c1.7-.3 5-.8 9.3-.8 10.9 0 18.1 4.9 18.1 15.2.1 10.4-7.1 16.3-19.2 16.3" fill="#fff"/><path d="m0 367.1h115.1v115.1h-115.1z" fill="#fff"/><path d="m81 394.6c-6.7-6.3-16.9-9.5-31.1-9.5-7.9 0-15 .7-21.2 1.6v75.6c5.1.7 11 .9 18.1.9 14.9 0 26.8-3.8 34.1-11 7-7.1 11-17.4 11-29.9 0-12.4-4-21.4-10.9-27.7" fill="#0063ac"/><path d="m48.7 455.3c-3.9 0-7.5 0-10-.5v-60.8c2.6-.6 6.5-1 11.6-1 21 0 31.3 11.3 31.1 29.6 0 20.9-11.5 32.8-32.7 32.7" fill="#fff"/><path d="m.1 0h237.5v237.5h-237.5z" fill="#fff"/><path d="m203.8 123.7c-3.3 4.7-7.3 9.1-10.4 13.9.3-3.8.8-8.5-.7-12.1-2.6-7.8-4.8-15.6-5.5-24.1l.1-3.3c1.9 8.7 10.5 14.7 9.9 24.4.2 2.4-.5 4.4-1 6.4l.2.2.4-.4c1.3-4.8 1.9-9.8 3.9-14.3 2.8-6.4 6.3-12.9 4.9-20.7 4.2 9.2 2.9 21.4-1.8 30" fill="#0063ac"/><path d="m198.6 74.4c5.6 7.6 6.9 19.7 2.8 28.4-1.5 3.7-2.6 7.6-3.2 11.7-.3-.7-.4-1.6-.6-2.4-2.2-8.5-10.3-14.6-13.6-22.6-1-2.6-1.9-5.3-2.4-8.2 3.5 6.5 12.3 9.9 14.7 17.2 1 1.8.9 4.1 1.5 6.1.1 0 .3-.1.3-.2-1-7.4-.7-15.2.3-22.6-.1-4-.4-7.8-2.7-10.9 1.3.7 1.9 2.3 2.9 3.5" fill="#0063ac"/><path d="m194.6 72.9c1.5 6.6-.7 13.1.7 19.8l-.1.1c-3.6-7.1-11.3-10.5-16.6-16.2-3.1-3.4-4.4-7.5-5.1-11.9 3 7.3 11.2 8.9 15.9 15.1 1.6 1.4 2.1 3.4 3.1 5l.2-.2c-2.7-5.8-3.6-12.2-5.5-18.4-1-2.7-2.8-5.3-5.3-7 6.1 1.4 11.5 7.9 12.7 13.7" fill="#0063ac"/><path d="m178.2 57.7c4.6 4.1 6.7 9.5 8.1 15.1l.8 1.8c-6.7-4.8-12.8-11.4-17.2-18.2l-5.3-5.3c4.6 1.9 9.6 3 13.6 6.6" fill="#0063ac"/><path d="m90 52.4c8.8-4.3 18.4-6.6 28.8-6.8 23.9 0 46.6 14 57 36.1 6.6 12.7 8.4 30.2 4.2 44.5-4.3 16.9-18.6 34.1-35.2 41-18.7 9.1-45.2 6.9-61.8-5.1-23.1-15.8-32.5-43.1-25.6-70.1 4.3-16 17-32.1 32.6-39.6" fill="#0063ac"/><path d="m71.8 51.9c-4.7 4.1-7.9 9.2-11.3 14-3.1 3.8-7.1 6.4-10.6 9.6 1.9-3.9 2-8.6 4.7-12.2 3.8-6.6 10.9-8.9 17.2-11.4" fill="#0063ac"/><path d="m46.4 66.1c2.2-2.8 5.1-4.8 8.3-5.6-6.2 4.3-5.9 12-7.8 18.4-.6 2.4-1.7 4.6-2.3 7l.2.1c1-2.8 2.9-5.3 5.1-7.6 4.5-4.1 11.1-6.7 13.2-12.8-.1 8.5-7.2 15.1-13.9 19.8-2.8 2.4-5.5 5.2-7 8.3-.2-2.1.3-4.3.2-6.5-.7-7.2-1.2-15.6 4-21.1" fill="#0063ac"/><path d="m33.7 91.3c-.2-7.5 2.9-13.6 7.3-19.1.1-.1.2-.2.4-.2-4.8 7.3-.8 16.5-1 24.8l-.6 8.5c.1.1.1.3.3.2.3-.9.4-2 .5-2.9 1.1-6.9 7.1-11.7 12.3-16.5 1.1-1.2 2.1-2.5 2.7-3.9-.4 3.4-1.5 6.9-2.9 10-4 7.9-11.6 14.4-12.9 23.4-.8-8.6-6.7-15.1-6.1-24.3" fill="#0063ac"/><path d="m30.1 102c.5-2.3 1-4.8 2-6.9-1.9 9.9 4.7 17 6.9 25.6.9 3.2 1.1 6.6 2.4 9.6.1.1.2-.1.3-.2-3.3-9.1 1.4-17.6 6.1-24.7 1.1-1.9 1.8-4.1 2.4-6.3.5 4.1-.5 8.9-1.1 13.1-1.1 5.4-2.8 10.6-4.3 15.9-1 3.3-.7 7-.2 10.5l-.5-.4c-3.5-6.4-10.3-11.3-12.3-18.3-1.8-5.5-2.9-11.9-1.7-17.9" fill="#0063ac"/><path d="m29.7 121.3c.8 10.5 12 16 17.3 24.7 1.2 1.8 2.3 3.7 3.9 5.2-.3-1.1-1.3-2.1-1.7-3.2-1.8-3.6-2.5-8-2.1-12.4.5-5.3 2.8-10.3 1.9-16 4.6 9.9 3.2 22.3 5.8 33 .7 2.3 2 4.4 2.9 6.7-9.4-6.4-22.3-12.5-26.5-24.3-1.6-4.1-1.8-9.1-1.5-13.7" fill="#0063ac"/><path d="m35.4 145.3c5.3 11.9 18.4 12.9 27.3 20.1 1.6 1.4 3.3 2.7 5.2 3.5l.1-.1c-2-1.8-4.4-3.9-5.8-6.3-5.2-7.2-3.3-17.2-7.2-25 3.5 4.2 6.7 8.6 8.8 13.4 3.2 7.8 4.4 16.6 11.7 22.5-7.9-2.6-17.2-1.9-24.2-6.7-7.7-4.7-14.5-12.7-15.9-21.4" fill="#0063ac"/><path d="m48.9 167.5c8.4 9.6 22.2 6.4 33.4 8.9 1.6.2 3 .9 4.7.6-1.3-.9-3.2-.8-4.7-1.5-8.8-3.1-10.1-12.6-14.9-19 6.1 4.1 11.2 9.5 16.9 14.8 4.1 3.5 8.9 5.2 14 6.2-1.2.4-2.8.3-4.2.7-9.2 2.3-19.5 6-29.2 2.7-6.3-2.1-12.8-7.1-16-13.4" fill="#0063ac"/><path d="m163.3 189.8c-9.5 3.6-19.4-.2-26.8-5.8-3-1.9-5.7-4.7-9.6-4.4-1.4 0-2.8 0-4 .4 7.2 3.4 13.9 8 20 13.9-1 1.2-2.4 2.3-3.6 3.3-5.9-6.3-12.4-12.5-19.8-16-1.4.2-2.8 1-4.1 1.7-6 3.8-11.9 8.6-16.3 14.5l-3.8-3.1c6.1-6.1 12.8-10.9 20.1-14.3-7.2-2.3-11.9 3.8-17.4 6.8-6.4 4.5-15.6 6.6-23.3 3.5-4.1-1.6-8.1-3.9-11.2-7.7 6.1 4.2 15.1 4.6 22 1.9 9.3-4 18.9-9.1 30.1-6.7 1.8 0 3.5 1.8 5.1.3 8.3-2.2 17.7-.7 24.8 3.1l7.4 2.9c6.8 2.5 15.7 1.8 21.6-2.3-2.9 3.8-7 6.5-11.2 8" fill="#0063ac"/><path d="m173.5 180c-10.7 4-21.4-.9-31.6-2.6l-2-.3v-.1c4.9-1.1 9.6-2.6 13.5-6.1 5.7-5.5 10.8-11.2 17.2-15.5-4.7 6.1-5.2 14.7-13 18.5-1.9 1.3-4.4 1.5-6.4 2.4 2.8.1 5.4-1 8.3-1.2 10.4-1.6 22.4 0 29.7-8.9-2.7 6.4-9.5 11.6-15.7 13.8" fill="#0063ac"/><path d="m179.4 169.2c-5.4 1.5-11.2 1.9-16.5 3.7 9-7.7 8.5-19.6 14.4-28.6 1.9-2.6 3.5-5.3 5.7-7.7-3.6 7.3-2.1 16.8-6.2 23.9-1.6 2.8-3.9 5.5-6.5 7.8.8 0 1.6-.8 2.3-1.2 6.8-6.8 15.7-8.7 23-14.2 2.9-2.3 5.6-5.4 6.9-8.7-1.4 11.1-12.6 21.6-23.1 25" fill="#0063ac"/><path d="m192.8 150c-4.2 2.8-8.5 5.3-12.5 8.4v-.4c6.2-10.3 3.2-24.5 7-35.8l1.4-3.8c-.8 7.1 2.3 13 2.1 20.1-.2 4.3-1.6 8.1-3.9 11.5h.4c3-4 5.4-8.2 9-12 5.5-5.3 11.1-10.8 11.8-18.1 1.8 12.4-5.1 23.2-15.3 30.1" fill="#0063ac"/><path d="m145.2 149.2.4-.6c1.9-1.5 4-2.9 5.6-4.7h.2c-.4-.1-.9.3-1.3.1-.9-.4-1-1.2-1-2.1l-3.9-4-.2-.6c-.3.8-.9 1.2-1.4 1.8 0 .5-.2 1.3.4 1.6 1.3.4 2.9 1.2 3.2 2.7-.5 1.4-3.2 2.7-1.5 4.2.6.7-.7 1-.5 1.6" fill="#fff"/><path d="m122.6 97.8c.7.4 1.1-.3 1.8-.5.9.1 1.6.9 2.1 1.4.6.2 1.1-.1 1.6-.3.4-2.6 3.6-2.2 4.6-4.7l-.6.2c-.2-.4-.9-.2-.8-.8.5-.5 1.2-1.3 1.9-1.5-2.8-1.8-5.8-3.3-9-4.1-1.3-.3-2.6-.3-3.8-.8.6 1.8.1 4.5.5 6.6l2.3.8c.7-1.1 2.1-1.3 2.8-2.4.4-.3.9 0 1.2.4.1.9-.1 1.7-.4 2.5-1.1 1.8-3.1 2-4.2 3.2" fill="#fff"/><path d="m156.3 119.1c-1.3 4.2-2.9 8.4-5.6 12.1-1 1.3-2.1 3.2-3.4 3.9l2.9 2.5c.2-.2.1-.4.1-.6 0-.4.2-.8.7-.8 1.4 0 1.4 1.5 2.2 2.2-.2 1.2.9 2.2.5 3.3 8-8.4 12-18.7 12.7-30.2l.4-.5c-2.8.3-5.9.1-8.8.1l-.7-.2c.2 1.9-.3 3.8-.4 5.7l1 1.1c.3.4.2 1.1-.2 1.5-.4.3-1 .3-1.4-.1" fill="#fff"/><path d="m148.7 91.1c-1.1-2-2.8-3.8-4.2-5.6l-.2.4c-2.9 3-6.1 6.2-8.9 9.3.2.4.5.7.9.9.1-.8.5-1.4.6-2.2.7-1 1.9-.4 2.9-.2 1.5-.4 2.9.4 4.5.3 1.1.6 1.2 2 2.3 2.6.3.4.1.9-.3 1.2.3 2.4 1.5-.6 2.7-.1.5.2 1.1.1 1.5.7.2 1 1.4.8 1.5 1.7-.1.5-.6.6-.9.9.3.9-1 1.5-.5 2.6 1.8.3 1.9-1.8 2.8-2.7-.5-1.6-.8-3.3-1.8-4.8-1-.2-1.7-1.5-2.7-1.7-2.3-.8 0-2.1-.2-3.3" fill="#fff"/><path d="m120.4 157.2c2.3-.8 5.1-.7 7.6-1.1-.5-.2-1-.3-1.4-.8-1.5-.1-2.2-1.6-2.6-2.8-.2-.8.4-1.5.7-2.3-.6-1.3-2.6-.4-3.7-.8-.3-.3-.5-.6-1-.7l.5.7c-.1 2.6.3 5.2-.1 7.8" fill="#fff"/><path d="m122.5 132.5c.8.2.2 1.1.8 1.4 1.3-.4 2.3 1.1 3.3.1-.1-1.5 1.6-1.4 2.5-1.7 1.4-.9 3-2 2.9-3.9l-.2-.3c-1 0-1.5.8-2.2 1.4-.9.5-1.4-.9-2.1-.6 0 .2.2.2.3.3.2.2.2.7 0 .9-1.1 1-1.6-.5-2.6-.4v.4c0 .2-.1.6-.4.4-.6-1-1.9-.7-2.6-1.6-.4-.2-.8.1-1.1.3-.2.5-1.2-.1-1 .8-.8.3-.9 1.1-1.4 1.6-1-.2-1.4.9-2.4.9.1.2 0 .5.3.5.6.3 1.1.3 1.9.2 1.1-1.4 2.6-.1 4-.7" fill="#fff"/><path d="m131.8 120.1c0 .5.1 1.1.5 1.5 1.2-.2.7 1.5 1.8 1.4.6-.2 0-.7.2-1.1-.2-1-1.1-1.1-1.7-1.6-.1-.2.1-.3.1-.5-.4-.3-.6 0-.9.3" fill="#fff"/><path d="m130.4 76.4c-3.2-1.1-6.7-1.6-10.2-2.1l.3.7-.1 8.6.8-.2c5.2.7 10 2.4 14.2 5.8l.2.7c1.4-2 3.6-3.7 5.2-5.6l1.6-.9-.8-.3c-3.3-3-7.1-5.2-11.2-6.7" fill="#fff"/><path d="m71.5 111.8.7 5.8c.3 2.2 1.3 4.4 1.2 6.6.3-.5.1-1.4 1-1.5-.4-.7.7-1.3.1-1.9.3-1.5.5-3.1 1.8-4.2 1.6-.1 1.7-2.2 3.4-2.3.8 0 1.3 1.1 1.7 1.5-1-1.2-1-3.2-.7-4.6l-.7.3c-2.9-.1-6 .2-8.8-.2z" fill="#fff"/><path d="m128.3 126.6c.8-.8 2.3-.8 2.4-1.9-1.1-.2-1.7.4-2.4 1-.1.3-.5.7 0 .9" fill="#fff"/><path d="m148.4 110.7 1 1c1 .7.3 2.1 1.4 2.7 1.2.6 1.7 2.1 2.2 3.1.2-.3.2-.6.3-.9.4-1.7.4-3.7.9-5.4-2 0-4.1.2-5.8-.5" fill="#fff"/><path d="m135.6 132.9c1.1.3 1.8 1.6 3.2 1.2 1.1-.6 3 .4 3.8-.8-.1-1.2.9-2 1.4-3l.4-.1c.6.7.6 1.7.9 2.4.9-.9 1.6-2 2.4-3 2.1-3 3.9-6.3 4.6-9.8-.8 0-1.7.2-2.5.4-.9-.1-2 .5-2.8-.2-.3-.2-.5.1-.4.4-.3.5-.6 1.1-1.4.9-.6-.3-.6-.9-.8-1.3 0 .4-.1.7-.2 1-.7.7-.9 1.4-1.4 2.1-.7.7-1.7.5-2.4 1.1-.1 1.5-1.8 1.2-2.8 1.7-.1.2.2.2.2.4.5.1 1.1.1 1.4-.3 1.3.4 1-1.3 1.8-1.9.7-.1 1.3-.7 2-.2.7.8.9 2.1.8 3.2-.8.8-.4 2-.9 2.9.1 1.1-1.1 1.5-1 2.6-.4.5-1.1.5-1.7.5-2.5-.9-5.1-1.6-7.9-1.8-.3.1-.4.3-.4.6 1.2.4 2.5.5 3.7 1" fill="#fff"/><path d="m116.8 160.6.3-.5-1 .3c-12.3-.8-23.3-5.2-32.3-13.9l-.1.4-6.5 6.6c9.9 8.6 21 14.1 33.7 15.8 2 .3 4.4.2 6.3.8l-.5-.8v-8.7z" fill="#fff"/><path d="m104 126.5c3.4 2.8 7.2 4.5 11.4 5.3.2-.9-.1-1.9.3-2.7.3-.7 1.2-.7 1.8-.6.4 0 .6-.5.4-.8-.9-.2-.5-1.2-.8-1.8 0-.3.6-.2.4-.7-.6-.5.3-1.1-.2-1.6.2-.1.3-.3.4-.4-1.9.8-4-.4-5.6-1.1-.8-.5-2-.9-2.2-2-1.4 2.3-4 4.3-5.9 6.4" fill="#fff"/><path d="m100.8 116.6c-.3-.2-.4-.1-.6.1-.2 0-.3 0-.5-.1 0-1.8-2-.7-2.8-1.7.9 1.6 1.4 3.5 2.3 5.1.6 1.5 1.8 2.6 2.4 4 .6-1.1 1.8-2.1 2.7-3.1.1-.5 0-.9-.3-1.2-.3-.7 0-1.6-.5-2.2-.8.3.3 1.1-.1 1.6-.3.2-.7-.1-.8-.4-.7-.1-1.3-.8-1.5-1.4.6-.2-.2-.4-.3-.7" fill="#fff"/><path d="m106.8 117.5c-.2.8-.7 1.5-1.3 2.1l.1.1c.8-.5 1.3-1.5 2.3-1.6z" fill="#fff"/><path d="m116 148.3c-7.7-.4-14.4-3.2-20.4-7.7.2.8 1.2 1.2.9 2.2-.5.9-1.6.9-2.5.9-1.8-.3-3.1 1.1-4.8 1.3-1.6.5-2.1-1.4-3.5-1.3 8.8 7.7 18.8 12.5 30.6 13.1l.9.6-.4-1.1v-8.3z" fill="#fff"/><path d="m81.8 144.2c-1.1-.8-2-2-2.9-3-1-.3-2.1-1-2.7-2-.3-.4 0-1-.4-1.2l-.4.5c-1.1.5-1.5-.6-2.3-1.1-1-.5-.5-2.4-1.8-2.1-.5 0-.7-.6-1-.9-1.2.1-1.5-1.2-2.2-1.9-.1.3 0 .7-.4.8-1.3.3-1.7-1.3-2.6-1.9-.2.1-.4.4-.7.3-.7-.7-1.3-1.6-1.3-2.7-1-1.2-.6-3-.4-4.5.2-.4.7-.6.6-1.1.3-.7 1-.7 1.7-.8.3.1.5.4.6.6.4-.3 1.3 0 1-.9.5-.5 1.3-.6 2.1-.8.5.6.8 1.4 1.4 2l-.4-.7c-.8-3.1-1.4-6.3-1.5-9.6 0-.2-.4-.3-.2-.5l.1.1c0-.7 0-1.3.1-1.8l-.9.3-8.8-.1c.5 10.1 3.2 19.3 7.8 27.8 2.2 4.2 5.5 7.9 8.4 11.8l6.3-6.5z" fill="#fff"/><path d="m92 70.3c-2 1.4-3.8 3.1-5.8 4.3 2.3 1.5 4.3 4 6.4 5.9l.2.6c5.4-5.2 11.9-8.2 19-9.6 1.7-.2 3.4-.7 5-.4-.1-3-.4-6.1-.1-9.1-9.2.6-17.4 3.3-24.7 8.3" fill="#fff"/><path d="m84.4 103.3c-.3 1.5-.2 3.3-.8 4.7 1.1-.5 2.7-.3 4-.2-.7-.4-.1-1.3-.5-1.8-.1-.8-.2-1.8.5-2.3-.1-1.3 1.3-2 1.4-3.1.3-1.3 1.9-.4 2.6-1.1.5-.3.1-.7.1-1 .6-.9 1.6-.8 2.4-1.3.5-.8 1.2-1.7 2.1-2.2 1.9.1 1.9-2.6 3.7-2.7-2.5-1.9-4.8-4.4-7-6.5-4.3 5.2-7.3 11-8.5 17.5" fill="#fff"/><path d="m85.6 116.2c.1-.6-.8-.7-.7-1.3.6-1.2 0-3.1 1.6-3.6-1.1.2-2.1.4-3-.3l.4.8c.1 2.1.9 4.1.5 6.2.4-.6.5-1.5 1.2-1.8" fill="#fff"/><path d="m94.4 139-.2-.2.2.4z" fill="#fff"/><path d="m83.8 77.3-3.4 4.4c-5.6 7.7-8.3 16.6-9.1 26.3l8.7-.2.8.3c-.3-.2-.3-.6-.4-.9.7-9 3.9-17.1 10.1-23.8-2.4-2.1-4.6-4.3-6.7-6.7z" fill="#fff"/><path d="m110.6 136.4c.7-.7 1.5-1.2 2.4-1.5-2.8.6-5.3-1.5-7.7-2.6-1.4-1-3.1-1.8-4-3.4-1.9 2.3-4.1 4.6-6.3 6.5 1 .1 1.5 1.1 2.3 1.6 4.8 3.9 10.7 5.9 16.2 7.2l-1.5-.7c-1.1-1.3-2.8-2.8-2.8-4.6 1.1-.3 1-1.6 1.4-2.5" fill="#fff"/><path d="m88.9 111.3-.2 1.7c-.4 1-1.6.2-2.2.9-.4.6 0 1.3.4 1.8-.9 2 2 2.7 2 4.5.9 1.1-.1 2.8 1.1 3.8.3 2.1-.3 4.8 1.5 6.5l.3 2c.4 1.4-1.6 1-1.4 2.2.4-.2.5.3.5.4v-.1c2.4-2.8 5.2-5.8 8.1-8.3l-1.2-1.2c-2.2-3.4-4-6.9-4.9-10.9l-.9-.5c0 1-.5 1.8-.4 2.8l-.3.4c-.7 0-1.1-.6-1.6-.9-.1-.3-.5-.9.1-1.2.3 0 .5.1.8.2.3-.3.2-.8.3-1.3.1-.8-.6-1.5-.1-2.1.6-.1 1.1.7 1.3 1.1.6.2 1.1-.3 1.6-.5 0-.5.8-1.3-.1-1.6.5-1.2.1-2.5-.1-3.7-.3-1-1.5-.9-2.4-.8-2.6.8.4 2.8-.2 4.3-.4 1-1.3.1-2 .5" fill="#fff"/><path d="m170 111.1-.5-.4.3.9c-.5 10.5-4 19.8-10 28.1-1.2 1.4-2.2 3.1-3.7 4.1 2.4 1.9 5.1 4.7 7.1 6.9l.2-.5c9.7-11 15.2-23.8 15.8-38.6l.4-.8-.5.2z" fill="#fff"/><path d="m84.3 72.4.2-.4c9.2-8.4 20-13 32.3-13.6l-.3-.8-.1-7.6.3-.9c-12.7.5-24 4.8-34 12.1-1.9 1.3-3.6 3.4-5.6 4.5h.3c2.4 1.8 4.8 4.4 6.9 6.7" fill="#fff"/><path d="m116.3 74.6c-8 .6-15 3.9-21.1 9 2.4 1.7 4.6 4.4 6.7 6.3.2-.2.3-.4.5-.7 3-2.1 6.1-4.1 9.7-5 1.6-.2 3.1-.9 4.8-.5-.3-3-.3-6.3 0-9.3z" fill="#fff"/><path d="m116.8 87.1c-5.1.7-9.8 2.4-13.5 6.4h.7c.8.8 2 .6 2.6 1.6.3.6-.5.5-.5 1 .2.1.4.2.5.4.6.2.5-.3.7-.6.8-.8.9.8 1.7.8.5-.4 1.3-.4 1.7.2.5-.4 1.6 0 1.8-.8 1-1.1.4-2.7 1.9-3.3.5.3 0 .8.2 1.2 1 .4 2.1-.8 2.9.2-1-2.3-.8-4.8-.7-7.1" fill="#fff"/><path d="m117.1 101.3c-.9 1.6-2.5 1.9-4 2.4-.4.5-.3 1.6-1.3 1.5-.3.7-1.4 1.1-1 2.1-.5 1.1-.3 2.5-.5 3.6-1.9 1.2-1.3-1.6-2.3-2.1l-.3.5c-.4.1-.6-.1-.9-.4-.3-.1-.8-.2-1 .1-.4.7-1 1.3-.9 2.2-.2.6-1.1.4-1 1 1 0 2.2-.2 3.2-.4.7.2 1.3-.3 2.1-.4.2.1.6.4.4.8h.3c.5-.4.7-1 .5-1.5.1-.7.8-.7 1.2-.9.4.2.2.6.2.9 1.4.5-.4 1.6-.6 2.3-.4.6 0 2-1.2 1.8-.2-.1-.4-.3-.3-.5h-.2c0 .5.4 1.2.9 1.4.9-.7.9-2 2.2-2.1.6-.7-.3-1.8.7-2.3 1.6 0 3.4-.7 4.7.6-.1.6-.3.8.2 1.3-.3.7-.5 1.5-1.1 2.1.2.4 0 .9-.3 1.2-.4 1.9-2.6 1-3.9 1.7 2 1.5 4.4 2.1 7 1.9 1.4-.1.8-1.7 1.5-2.5.4-2.2 2.5-.7 3.7-1.3.5-.9.9-1.9 1.1-2.9-.8-.5-1.1-1.5-.8-2.4-.5-.7-.5-2.1-1.7-2.2-.2-.2 0-.6.1-.8 0-.7.7-.9.9-1.5-.7-.5-.5-1.5-.5-2.1-1.2.4-1.4-1.3-2.3-1.6-.2-.7-1-.9-1.6-1-1.5.7-1.8-1.1-2.9-1.6-.1-.3-.4-.9 0-1.1.6-.5 1.3-.1 2-.1l-.5-.3c-.5-.6-1.6-.2-2.3 0 .4.6.1 1.8.5 2.6" fill="#fff"/><path d="m68.3 108-.2-1.2c.6-10.1 3.8-19.1 9.5-27.1 1.4-1.6 2.5-3.6 4.2-4.8-2.1-1.9-4.2-4.2-6.4-6.3l-.2-.9c-9 10-14.6 21.5-16.2 34.6-.4 1.9-.1 3.9-.5 5.8 3.2-.4 6.7-.4 9.8-.1" fill="#fff"/><path d="m153.9 145.8c-.9 1.7-2.9 2.8-4.3 4.2-2.1 2.1-5.4 2.5-6.5 5.5-1.1 1-1.5 2.6-3 3.2-.6 1.5-2.2 1.4-3.1 2.5-2.7 2.4-4.4-1.5-6.8-2l-4.8.9c-1.7 0-3.4.6-4.9.1.2 3.2.2 6.7 0 9.9l.6-.4c15.3-.7 28.4-6.5 39.7-16.7l-6.7-6.4z" fill="#fff"/><path d="m120.3 57.5c0-.3.1-.5.3-.7.4-.3.8.1 1 .4 0 .4.2 1.2-.1 1.5.4.1.6-.2.9-.2 7.2.5 14 2.7 20 6.1v-.2c1.2-.6 2.8-1.4 4.1-.3 1.5-.6 1.8 1.3 3 1.5 1.5.9 3.2 2.5 3.4 4.3.3.6 1.2 1 1.3 1.6 1-2.2 3-3.7 4.8-5.5l1.1-.4c-9.6-9.1-20.9-14.1-33.6-15.9-2-.3-4.2-.2-6.2-.8.3 2.4.2 5.8 0 8.6" fill="#fff"/><path d="m120.3 71.1c1.2-.4 2.4.1 3.6.1 6.2 1 12.1 3 17 6.8-.6-.6-1.3-1.4-1.5-2.3.1-.1.2-.2.4-.1.1-1-1-1.5-1.1-2.4.1-.2.4-.4.7-.3 1.1 1 2 2.1 2.8 3.2.7-.3 1.3.2 1.8.5.9.5.3 1.7 1.1 2.3.1 1.9 2.4 2.9 2.3 4.8 0 .4.6.1.8.3l1.9 2.3c-.4.5-.1 1 .3 1.3.8.4 1.3-.7 2.2-.5 1.2.7-.2 1.5-.1 2.3.5 0 1.1-.4 1.5.1.2.7-.6 1.1-.9 1.6 0 .7.6.5 1.1.7.6 0 .9.7.8 1.1 1.6 1.6-.5 3.4.3 5.2.5 1.1-.1 2.2-.8 3.1 0 1.4-1.2 2.2-1.7 3.4l-1.6.3c-.9.9.7 1.9-.1 2.4l3.5.1-.4-.4c-.5-1.4-.4-3.3.5-4.5.5-1.1.7-2.5 1.7-3.5.2-.1.6-.5.8 0 .1 1.1 0 2.3-.5 3.3 1 1.5.9 3.4 1 5.2 3.1-.2 6.2-.2 9.3-.2l-.3-.6c-.5-5.8-1.7-11.4-4.1-16.4-.7 0-1.1.6-1.9.4-.2-.1-.4-.3-.4-.6-1.3-1.2-2.1-2.8-3.5-3.9-1.6.2-2.4-1.7-3.8-1.9-1.3-.5-.4-2.6-2.3-2.1-.9-.4-1.8-1.1-2-2.1 0-1.6-.3-3.4-1.8-4.5-1.1-.4-1.6 1.1-2.8.9-.6-.3-.3-1.1-.5-1.7-.2-.5-.8-.8-.7-1.5 1.5-2-1.8-1.9-1.1-3.9-.2-1.4-1.6-1.9-2.3-3-4.9-2.2-9.8-3.7-15.4-4.4-1.4-.2-2.6.1-3.8-.5l.3.6c-.2 3.1 0 6.3-.3 9" fill="#fff"/><path d="m154.9 74.4c.7.2.9.9 1.3 1.4 2.3 1.2 2.9 3.7 4.9 5.1 1.1 2.4 3.8 4.2 3.9 6.9 2.8 6.1 4.6 12.5 4.8 19.7l-.2.4c.3 0 .5-.1.8-.3l9.1-.2c-.6-.9-.3-2.2-.5-3.3-1.2-14.1-7.2-26.1-16.6-36.8-1.8 2.3-4.1 4.5-6.3 6.8z" fill="#fff"/><path d="m121.6 56c.3-.5 1-.3 1.4-.2l4.6-2c1.8.2 3.9.4 4.9 1.9v.3c-1.1.9-2.6 1.7-4.1 1.1-2.1.4-5 1.6-6.7-.5-.1-.2-.3-.4-.1-.6" fill="#0063ac"/><path d="m148.8 61.8c.6.2 1.2.5 1.4 1.2-.2.7.7 1.3.2 1.9-1.7.4-1.9-1.5-3.2-2-.2-.3-.2-.6-.2-.9.5-.8 1.1.4 1.8-.2" fill="#0063ac"/></svg>