<svg width="17" height="17" viewBox="0 0 17 17" fill="none" xmlns="http://www.w3.org/2000/svg">
<path d="M12.3068 1.98753V2.48753H12.8068H16.0555C16.1448 2.48753 16.2265 2.52177 16.2836 2.57655C16.34 2.63066 16.3676 2.69951 16.3676 2.7667V15.2334C16.3676 15.3006 16.34 15.3694 16.2836 15.4235C16.2265 15.4783 16.1448 15.5125 16.0555 15.5125H1.43649C1.34717 15.5125 1.26546 15.4783 1.20835 15.4235C1.15196 15.3694 1.12433 15.3006 1.12433 15.2334V2.7667C1.12433 2.69951 1.15196 2.63066 1.20835 2.57655C1.26546 2.52177 1.34717 2.48753 1.43649 2.48753H4.68516H5.18516V1.98753V0.929199H5.80949V1.98753V2.48753H6.30949H11.1825H11.6825V1.98753V0.929199H12.3068V1.98753ZM15.7433 8.22087V7.72087H15.2433H2.24866H1.74866V8.22087V14.4542V14.9542H2.24866H15.2433H15.7433V14.4542V8.22087ZM11.6825 3.54587V3.04587H11.1825H6.30949H5.80949V3.54587V4.6042H5.18516V3.54587V3.04587H4.68516H2.24866H1.74866V3.54587V6.66253V7.16253H2.24866H15.2433H15.7433V6.66253V3.54587V3.04587H15.2433H12.8068H12.3068V3.54587V4.6042H11.6825V3.54587ZM4.99732 10.2792V10.8375H4.37299V10.2792H4.99732ZM8.43382 10.2792H9.05816V10.8375H8.43382V10.2792ZM13.119 10.2792V10.8375H12.4947V10.2792H13.119Z" fill="#006EB5" stroke="#D4D6D8"/>
</svg>
