<svg width="25" height="26" viewBox="0 0 25 26" fill="none" xmlns="http://www.w3.org/2000/svg">
<g clip-path="url(#clip0)">
<path d="M16.599 23.688C17.7895 22.3987 18.4193 20.6895 18.35 18.936H0.75V0.75H23.88V15.468L23.875 15.474C23.875 15.521 23.875 15.568 23.875 15.616C23.905 20.278 17.206 24.488 16.175 24.488C15.921 24.488 16.004 24.24 16.599 23.688Z" stroke="#006EB5" stroke-width="1.5"/>
<path d="M13.5854 13.542L16.9429 5.45215L20.2144 13.542" stroke="#006EB5" stroke-width="1.5" stroke-linecap="round" stroke-linejoin="round"/>
<path d="M15.0576 10.6704H18.9863" stroke="#006EB5" stroke-width="1.5"/>
<path d="M4.13086 6.76706H10.6748" stroke="#006EB5" stroke-width="1.5" stroke-linecap="round"/>
<path d="M4.13086 13.1656C4.13086 13.1656 9.59778 13.6368 9.92578 6.90781" stroke="#006EB5" stroke-width="1.5" stroke-linecap="round"/>
<path d="M10.8271 13.5417C10.8271 13.5417 6.38075 13.065 5.21875 9.11597" stroke="#006EB5" stroke-width="1.5" stroke-linecap="round"/>
<path d="M7.40723 4.08563V6.56317" stroke="#006EB5" stroke-width="1.5" stroke-linecap="round"/>
</g>
<defs>
<clipPath id="clip0">
<rect width="24.63" height="25.239" fill="white"/>
</clipPath>
</defs>
</svg>
