<svg width="20" height="18" viewBox="0 0 20 18" fill="none" xmlns="http://www.w3.org/2000/svg">
<path d="M4.93994 1.99999C4.93968 2.53043 4.72871 3.03903 4.35345 3.41391C3.97819 3.7888 3.46937 3.99926 2.93894 3.99899C2.40851 3.99873 1.89991 3.78776 1.52502 3.4125C1.15014 3.03724 0.939676 2.52843 0.939942 1.99799C0.940207 1.46756 1.15117 0.958958 1.52644 0.584072C1.9017 0.209187 2.41051 -0.00127205 2.94094 -0.00100683C3.47137 -0.000741613 3.97998 0.210226 4.35486 0.585487C4.72975 0.960747 4.94021 1.46956 4.93994 1.99999ZM4.99994 5.47999H0.999942V18H4.99994V5.47999ZM11.3199 5.47999H7.33994V18H11.2799V11.43C11.2799 7.76999 16.0499 7.42999 16.0499 11.43V18H19.9999V10.07C19.9999 3.89999 12.9399 4.12999 11.2799 7.15999L11.3199 5.47999Z" fill="black"/>
</svg>
