<svg width="22" height="18" viewBox="0 0 22 18" fill="none" xmlns="http://www.w3.org/2000/svg">
<path d="M21.1618 2.65605C20.3984 2.99374 19.5888 3.21552 18.7598 3.31405C19.6336 2.79148 20.2875 1.96906 20.5998 1.00005C19.7798 1.48805 18.8808 1.83005 17.9438 2.01505C17.3144 1.34163 16.4802 0.895012 15.5708 0.744633C14.6614 0.594255 13.7277 0.74854 12.9151 1.1835C12.1024 1.61846 11.4562 2.30973 11.0769 3.14984C10.6976 3.98995 10.6066 4.93183 10.8178 5.82905C9.15492 5.7457 7.52814 5.31357 6.0431 4.56071C4.55805 3.80785 3.24794 2.7511 2.19781 1.45905C1.8261 2.0975 1.63076 2.82328 1.63181 3.56205C1.63181 5.01205 2.36981 6.29305 3.49181 7.04305C2.82782 7.02215 2.17844 6.84283 1.59781 6.52005V6.57205C1.59801 7.53775 1.93218 8.47366 2.54366 9.22111C3.15513 9.96855 4.00629 10.4815 4.95281 10.673C4.33642 10.8401 3.69012 10.8647 3.06281 10.745C3.32968 11.5763 3.84982 12.3032 4.5504 12.8242C5.25099 13.3451 6.09694 13.6338 6.96981 13.65C6.10229 14.3314 5.10899 14.835 4.04669 15.1322C2.98439 15.4294 1.87394 15.5143 0.778809 15.382C2.69051 16.6115 4.9159 17.2642 7.18881 17.262C14.8818 17.262 19.0888 10.889 19.0888 5.36205C19.0888 5.18205 19.0838 5.00005 19.0758 4.82205C19.8947 4.23022 20.6014 3.49707 21.1628 2.65705L21.1618 2.65605Z" fill="white"/>
</svg>
