<svg width="22" height="18" viewBox="0 0 22 18" fill="none" xmlns="http://www.w3.org/2000/svg">
<path d="M21.1621 2.65593C20.3986 2.99362 19.589 3.2154 18.7601 3.31393C19.6338 2.79136 20.2878 1.96894 20.6001 0.999927C19.7801 1.48793 18.8811 1.82993 17.9441 2.01493C17.3147 1.34151 16.4804 0.89489 15.571 0.744511C14.6616 0.594133 13.728 0.748418 12.9153 1.18338C12.1026 1.61834 11.4564 2.30961 11.0772 3.14972C10.6979 3.98983 10.6068 4.93171 10.8181 5.82893C9.15516 5.74558 7.52838 5.31345 6.04334 4.56059C4.55829 3.80773 3.24818 2.75097 2.19805 1.45893C1.82634 2.09738 1.63101 2.82315 1.63205 3.56193C1.63205 5.01193 2.37005 6.29293 3.49205 7.04293C2.82806 7.02202 2.17869 6.84271 1.59805 6.51993V6.57193C1.59825 7.53763 1.93242 8.47354 2.5439 9.22099C3.15538 9.96843 4.00653 10.4814 4.95305 10.6729C4.33667 10.84 3.69036 10.8646 3.06305 10.7449C3.32992 11.5762 3.85006 12.3031 4.55064 12.824C5.25123 13.3449 6.09718 13.6337 6.97005 13.6499C6.10253 14.3313 5.10923 14.8349 4.04693 15.1321C2.98464 15.4293 1.87418 15.5142 0.779053 15.3819C2.69075 16.6114 4.91615 17.264 7.18905 17.2619C14.8821 17.2619 19.0891 10.8889 19.0891 5.36193C19.0891 5.18193 19.0841 4.99993 19.0761 4.82193C19.8949 4.23009 20.6017 3.49695 21.1631 2.65693L21.1621 2.65593Z" fill="black"/>
</svg>
