<svg width="22" height="18" viewBox="0 0 22 18" fill="none" xmlns="http://www.w3.org/2000/svg">
<path d="M21.1618 2.65599C20.3984 2.99368 19.5888 3.21546 18.7598 3.31399C19.6336 2.79142 20.2875 1.969 20.5998 0.999988C19.7798 1.48799 18.8808 1.82999 17.9438 2.01499C17.3144 1.34157 16.4802 0.894951 15.5708 0.744572C14.6614 0.594194 13.7277 0.748479 12.9151 1.18344C12.1024 1.6184 11.4562 2.30967 11.0769 3.14978C10.6976 3.98989 10.6066 4.93177 10.8178 5.82899C9.15492 5.74564 7.52814 5.31351 6.0431 4.56065C4.55805 3.80779 3.24794 2.75104 2.19781 1.45899C1.8261 2.09744 1.63076 2.82321 1.63181 3.56199C1.63181 5.01199 2.36981 6.29299 3.49181 7.04299C2.82782 7.02208 2.17844 6.84277 1.59781 6.51999V6.57199C1.59801 7.53769 1.93218 8.4736 2.54366 9.22105C3.15513 9.96849 4.00629 10.4815 4.95281 10.673C4.33642 10.84 3.69012 10.8646 3.06281 10.745C3.32968 11.5762 3.84982 12.3032 4.5504 12.8241C5.25099 13.345 6.09694 13.6338 6.96981 13.65C6.10229 14.3313 5.10899 14.835 4.04669 15.1322C2.98439 15.4293 1.87394 15.5142 0.778809 15.382C2.69051 16.6114 4.9159 17.2641 7.18881 17.262C14.8818 17.262 19.0888 10.889 19.0888 5.36199C19.0888 5.18199 19.0838 4.99999 19.0758 4.82199C19.8947 4.23016 20.6014 3.49701 21.1628 2.65699L21.1618 2.65599Z" fill="black"/>
</svg>
