<svg width="60" height="122" viewBox="0 0 60 122" fill="none" xmlns="http://www.w3.org/2000/svg">
<g clip-path="url(#clip0)">
<path d="M59.1501 0.589996H0.590088V59.15H59.1501V0.589996Z" fill="white"/>
<path d="M28.6301 61.9H0.340088V90.19H28.6301V61.9Z" fill="white"/>
<path d="M59.25 61.9H30.96V90.19H59.25V61.9Z" fill="white"/>
<path d="M28.6301 92.78H0.340088V121.07H28.6301V92.78Z" fill="white"/>
<path d="M59.25 92.78H30.96V121.07H59.25V92.78Z" fill="white"/>
<path d="M36.3001 21.5V21.6C35.5701 22.36 34.7601 23.15 34.0601 23.93C34.1086 24.027 34.1853 24.1072 34.2801 24.16C34.2801 23.97 34.4101 23.8 34.4301 23.61C34.6201 23.34 34.9101 23.51 35.1601 23.61C35.5352 23.5922 35.9112 23.6191 36.2801 23.69C36.5701 23.83 36.6001 24.19 36.8601 24.34C36.8891 24.3904 36.897 24.4503 36.882 24.5065C36.867 24.5627 36.8304 24.6107 36.7801 24.64C36.8601 25.24 37.1501 24.48 37.4501 24.64C37.5701 24.69 37.7401 24.64 37.8301 24.81C37.9201 24.98 38.1801 25.01 38.2001 25.25C38.2201 25.49 38.0501 25.4 37.9701 25.46C38.0401 25.7 37.7201 25.85 37.8301 26.11C38.2901 26.2 38.3101 25.66 38.5201 25.42C38.4336 25.0004 38.2853 24.596 38.0801 24.22C37.8101 24.17 37.6501 23.86 37.3901 23.8C36.8801 23.6 37.4701 23.28 37.3901 22.98C37.0749 22.4529 36.7099 21.9573 36.3001 21.5Z" fill="#0968B1"/>
<path d="M39.28 30C38.9725 31.0651 38.5038 32.0768 37.89 33C37.62 33.33 37.37 33.8 37.02 34L37.75 34.64C37.75 34.64 37.75 34.53 37.75 34.48C37.75 34.43 37.75 34.27 37.92 34.29C38.27 34.29 38.28 34.65 38.48 34.84C38.48 35.15 38.7 35.39 38.61 35.67C40.5492 33.6036 41.6844 30.9111 41.81 28.08L41.92 27.95C41.2 28.02 40.45 27.95 39.7 27.95L39.53 27.89C39.5336 28.3722 39.4968 28.8539 39.42 29.33L39.68 29.62C39.714 29.6767 39.7275 29.7433 39.7184 29.8088C39.7093 29.8743 39.6781 29.9347 39.63 29.98C39.5759 30.0183 39.5113 30.0389 39.445 30.0389C39.3787 30.0389 39.3141 30.0183 39.26 29.98" fill="#0968B1"/>
<path d="M36.4901 37.54L36.6 37.39C37.1022 37.0371 37.5709 36.6388 38 36.2H38.0601C37.9601 36.2 37.84 36.27 37.73 36.2C37.6363 36.1478 37.561 36.0679 37.5144 35.9712C37.4679 35.8746 37.4524 35.7658 37.4701 35.66L36.4701 34.66L36.41 34.51C36.3262 34.6885 36.2031 34.8457 36.05 34.97C36.05 35.09 36.05 35.28 36.17 35.37C36.29 35.46 36.9001 35.68 36.9701 36.06C36.8401 36.41 36.17 36.73 36.59 37.06C36.72 37.25 36.4001 37.32 36.4501 37.48" fill="#0968B1"/>
<path d="M30.77 33.34C30.98 33.34 30.84 33.6 30.99 33.68C31.32 33.57 31.56 33.96 31.83 33.68C31.83 33.3 32.23 33.34 32.46 33.24C32.69 33.14 33.23 32.74 33.19 32.24L33.13 32.17C32.88 32.17 32.76 32.36 32.57 32.51C32.38 32.66 32.24 32.27 32.06 32.36C32.06 32.36 32.06 32.42 32.14 32.43C32.22 32.44 32.2 32.61 32.14 32.66C31.87 32.91 31.74 32.54 31.48 32.57V32.66C31.48 32.72 31.48 32.81 31.39 32.77C31.23 32.51 30.9 32.61 30.74 32.38C30.64 32.32 30.54 32.38 30.47 32.46C30.4 32.54 30.16 32.46 30.22 32.65C30.03 32.72 30 32.93 29.86 33.06C29.61 33.06 29.5 33.3 29.27 33.29C29.27 33.29 29.27 33.42 29.34 33.43C29.49 33.4756 29.6501 33.4756 29.8 33.43C30.04 33.05 30.44 33.37 30.8 33.23" fill="#0968B1"/>
<path d="M29.3399 40.41L29.4199 40.29L29.1699 40.35C26.1281 40.208 23.2418 38.9639 21.0499 36.85V36.94L19.4099 38.59C21.7765 40.742 24.7337 42.1353 27.8999 42.59C28.4305 42.6209 28.9584 42.6877 29.4799 42.79L29.3599 42.59L29.3399 40.41Z" fill="#0968B1"/>
<path d="M30.7999 24.62C30.9799 24.72 31.0799 24.53 31.2399 24.49C31.4537 24.5434 31.6415 24.671 31.7699 24.85C31.9099 24.91 32.0499 24.85 32.1799 24.78C32.2599 24.11 33.0899 24.21 33.3399 23.59L33.1899 23.65C33.1199 23.56 32.9599 23.65 32.9699 23.45C33.1085 23.2984 33.2705 23.17 33.4499 23.07C32.7487 22.6228 31.9832 22.2856 31.1799 22.07C30.8599 21.99 30.5299 21.99 30.1799 21.88C30.2523 22.4238 30.2924 22.9714 30.2999 23.52L30.8699 23.71C31.0399 23.44 31.3999 23.38 31.5599 23.12C31.6699 23.03 31.7899 23.12 31.8699 23.21C31.8767 23.4277 31.8428 23.6448 31.7699 23.85C31.5499 24.28 31.0399 24.34 30.7699 24.65" fill="#0968B1"/>
<path d="M35.92 32.67C35.92 32.93 35.63 33.05 35.67 33.31C35.6109 33.3633 35.541 33.4033 35.4651 33.4275C35.3893 33.4516 35.3091 33.4593 35.23 33.45C34.5872 33.2069 33.9144 33.0522 33.23 32.99C33.1994 33.0029 33.174 33.0257 33.1577 33.0546C33.1414 33.0836 33.1352 33.1171 33.14 33.15C33.42 33.3 33.77 33.3 34.08 33.43C34.39 33.56 34.53 33.84 34.87 33.73C35.21 33.62 35.64 33.83 35.87 33.53C35.87 33.23 36.09 33.02 36.22 32.76H36.31C36.4283 32.9415 36.5067 33.146 36.54 33.36C36.76 33.12 36.94 32.85 37.14 32.61C37.6776 31.87 38.0711 31.0355 38.3 30.15C38.0853 30.1508 37.8723 30.188 37.67 30.26C37.44 30.26 37.16 30.38 36.96 30.26C36.76 30.14 36.84 30.26 36.85 30.35C36.86 30.44 36.69 30.62 36.51 30.57C36.33 30.52 36.36 30.35 36.31 30.24C36.3253 30.3226 36.3253 30.4074 36.31 30.49C36.1784 30.6542 36.0645 30.8319 35.97 31.02C35.81 31.21 35.53 31.14 35.36 31.29C35.36 31.68 34.91 31.6 34.67 31.72C34.67 31.72 34.67 31.77 34.73 31.81C34.7882 31.8324 34.8517 31.8367 34.9124 31.8224C34.973 31.8082 35.028 31.776 35.07 31.73C35.41 31.82 35.34 31.4 35.53 31.25C35.72 31.1 35.85 31.09 36.03 31.2C36.1889 31.4345 36.2565 31.7191 36.22 32C36.03 32.19 36.12 32.51 35.99 32.73" fill="#0968B1"/>
<path d="M32.23 31.85C32.42 31.65 32.83 31.66 32.85 31.37C32.57 31.37 32.42 31.48 32.23 31.63C32.23 31.7 32.12 31.81 32.23 31.85Z" fill="#0968B1"/>
<path d="M30.2599 39.55C30.8914 39.4077 31.5336 39.3174 32.1799 39.28C32.0434 39.2501 31.9205 39.1763 31.8299 39.07C31.4499 39.07 31.2799 38.66 31.1599 38.36C31.0399 38.06 31.2399 37.97 31.3299 37.79C31.1699 37.46 30.6799 37.7 30.3899 37.58C30.3099 37.52 30.2599 37.42 30.1399 37.41L30.2599 37.58C30.3011 38.246 30.3011 38.914 30.2599 39.58" fill="#0968B1"/>
<path d="M38.69 36.68C38.47 37.12 37.97 37.4 37.6 37.68C37.08 38.2 36.24 38.31 35.97 39.06C35.7 39.31 35.6 39.71 35.21 39.86C35.07 40.24 34.66 40.21 34.43 40.49C33.76 41.09 33.33 40.11 32.73 39.99L31.51 40.21C31.0963 40.2799 30.6737 40.2799 30.26 40.21C30.32 41.0422 30.32 41.8777 30.26 42.71L30.42 42.62C34.1513 42.4655 37.7017 40.9707 40.42 38.41L38.74 36.81L38.69 36.68Z" fill="#0968B1"/>
<path d="M37.3 27.85L37.5401 28.1C37.7901 28.26 37.62 28.62 37.89 28.76C38.16 28.9 38.31 29.28 38.44 29.55C38.4769 29.4781 38.5006 29.4002 38.51 29.32C38.63 28.88 38.61 28.39 38.75 27.96C38.2645 28.0306 37.7694 27.993 37.3 27.85Z" fill="#0968B1"/>
<path d="M32.7599 19.23C31.9241 18.9752 31.0675 18.7945 30.2 18.69L30.28 18.87V21.02H30.49C31.7951 21.1672 33.0341 21.6724 34.07 22.48L34.1199 22.65C34.4799 22.15 35.0199 21.72 35.4399 21.24L35.84 21.01L35.65 20.93C34.8003 20.2094 33.8282 19.6472 32.7799 19.27" fill="#0968B1"/>
<path d="M28.9999 33.14C29.0599 32.93 28.9999 32.66 29.0799 32.48C29.1599 32.3 29.3699 32.31 29.5299 32.34C29.5526 32.3366 29.5742 32.3277 29.5927 32.3141C29.6112 32.3004 29.626 32.2824 29.6359 32.2617C29.6458 32.2409 29.6504 32.218 29.6494 32.1951C29.6483 32.1721 29.6416 32.1498 29.6299 32.13C29.3999 32.13 29.4999 31.83 29.4199 31.69C29.3399 31.55 29.5599 31.62 29.5299 31.52C29.4999 31.42 29.6099 31.25 29.4799 31.11C29.4799 31.11 29.5399 31.04 29.5799 31.01C29.0999 31.22 28.5799 30.92 28.1599 30.73C27.9599 30.61 27.6499 30.49 27.5999 30.24C27.161 30.812 26.6688 31.341 26.1299 31.82C26.9515 32.5085 27.9425 32.9643 28.9999 33.14Z" fill="#0968B1"/>
<path d="M18.0001 28.12L18.1801 29.59C18.3235 30.1346 18.4238 30.6897 18.4801 31.25C18.5701 31.13 18.4801 30.89 18.7301 30.87C18.6401 30.69 18.9001 30.54 18.7301 30.39C18.7466 29.9948 18.9107 29.6201 19.1901 29.34C19.5901 29.34 19.6201 28.79 20.0301 28.77C20.2401 28.77 20.3601 29.04 20.4501 29.13C20.2373 28.7943 20.1655 28.3883 20.2501 28L20.0701 28.08C19.3325 28.0938 18.5948 28.0671 17.8601 28L18.0001 28.12Z" fill="#0968B1"/>
<path d="M27.11 29.7L26.84 29.57C26.7789 29.7699 26.6649 29.9496 26.51 30.09C26.7 29.96 26.83 29.71 27.08 29.69" fill="#0968B1"/>
<path d="M20.55 36.27C20.2762 36.0445 20.0281 35.7896 19.81 35.51C19.6703 35.4731 19.5392 35.4091 19.4242 35.3216C19.3093 35.2341 19.2127 35.1248 19.14 35C19.06 34.91 19.14 34.75 19.04 34.69L18.95 34.81C18.67 34.94 18.57 34.66 18.38 34.54C18.19 34.42 18.25 33.93 17.91 34.02C17.79 34.02 17.75 33.87 17.67 33.79C17.36 33.79 17.28 33.48 17.11 33.31C17.11 33.38 17.11 33.48 17.01 33.53C16.7 33.6 16.58 33.21 16.37 33.05C16.31 33.05 16.27 33.14 16.19 33.12C16.0013 32.946 15.8867 32.7061 15.87 32.45C15.6 32.16 15.72 31.69 15.77 31.33C15.82 31.23 15.95 31.18 15.93 31.06C15.91 30.94 16.18 30.88 16.34 30.87C16.4096 30.903 16.4685 30.955 16.51 31.02C16.61 30.95 16.84 31.02 16.75 30.8C16.9048 30.6928 17.0831 30.6242 17.27 30.6C17.3741 30.7775 17.4947 30.9449 17.63 31.1L17.52 30.92C17.3068 30.1289 17.1761 29.318 17.13 28.5C17.13 28.45 17.03 28.43 17.13 28.38C17.1187 28.2302 17.1187 28.0798 17.13 27.93L16.92 28.01L14.7 28C14.8297 30.4544 15.5134 32.8475 16.7 35C17.3315 36.0486 18.0366 37.0511 18.81 38L20.4 36.36L20.55 36.27Z" fill="#0968B1"/>
<path d="M29.15 37.31C27.277 37.2056 25.4803 36.5323 24 35.38C24 35.57 24.31 35.69 24.24 35.93C24.17 36.17 23.82 36.15 23.6 36.15C23.14 36.07 22.81 36.42 22.38 36.47C21.95 36.52 21.85 36.11 21.5 36.15C23.612 38.1009 26.3307 39.266 29.2 39.45L29.43 39.6L29.33 39.33V37.23L29.15 37.31Z" fill="#0968B1"/>
<path d="M23.0999 17.68C22.5999 18.02 22.0999 18.47 21.6399 18.77C22.2169 19.2212 22.7554 19.7196 23.2499 20.26L23.2999 20.41C24.6331 19.1706 26.2906 18.3349 28.0799 18C28.4929 17.9062 28.9178 17.8758 29.3399 17.91C29.285 17.1443 29.285 16.3757 29.3399 15.61C27.1166 15.7281 24.967 16.4469 23.1199 17.69" fill="#0968B1"/>
<path d="M25.3101 29.34C25.2301 29.34 25.2201 29.34 25.1601 29.34C25.1001 29.34 25.0701 29.34 25.0401 29.34C25.0401 28.89 24.5301 29.16 24.3401 28.92C24.5601 29.33 24.6801 29.8 24.9101 30.22C25.1401 30.64 25.3801 30.87 25.5201 31.22C25.7152 30.9371 25.9398 30.6756 26.1901 30.44C26.2043 30.3316 26.1795 30.2217 26.1201 30.13C26.0401 29.96 26.1201 29.72 25.9801 29.58C25.7701 29.65 26.0501 29.86 25.9801 29.98C25.9614 29.9899 25.9406 29.9951 25.9194 29.9951C25.8983 29.9952 25.8774 29.99 25.8587 29.9802C25.84 29.9703 25.8239 29.956 25.812 29.9386C25.8 29.9211 25.7925 29.901 25.7901 29.88C25.701 29.858 25.6192 29.8133 25.5525 29.7502C25.4859 29.6871 25.4368 29.6078 25.4101 29.52C25.5601 29.43 25.4101 29.39 25.3301 29.31" fill="#0968B1"/>
<path d="M21.2 26C21.1694 26.3986 21.1024 26.7936 21 27.18C21.328 27.0953 21.672 27.0953 22 27.18C21.81 27.09 22 26.85 21.86 26.73C21.72 26.61 21.81 26.28 22 26.15C22 25.83 22.32 25.66 22.36 25.36C22.4 25.06 22.83 25.25 23.01 25.08C23.19 24.91 23.01 24.9 23.01 24.82C23.17 24.6 23.42 24.61 23.61 24.49C23.7443 24.2641 23.9291 24.0724 24.15 23.93C24.62 23.93 24.63 23.28 25.08 23.26C24.4625 22.7474 23.8748 22.1998 23.32 21.62C22.2481 22.8732 21.5179 24.3819 21.2 26Z" fill="#0968B1"/>
<path d="M21.0499 19.44L20.1899 20.53C18.8269 22.4768 18.037 24.7668 17.9099 27.14H20.0999L20.2999 27.22C20.2199 27.17 20.2399 27.07 20.2099 26.99C20.3287 24.7545 21.2275 22.6313 22.7499 20.99C22.1482 20.4733 21.5866 19.9117 21.0699 19.31L21.0499 19.44Z" fill="#0968B1"/>
<path d="M21.51 29.23C21.51 29.08 21.31 29.04 21.34 28.9C21.37 28.76 21.34 28.13 21.74 28C21.614 28.0436 21.4802 28.0599 21.3474 28.0478C21.2147 28.0358 21.086 27.9956 20.97 27.93L21.09 28.12C21.1912 28.6334 21.2281 29.1574 21.2 29.68C21.29 29.53 21.31 29.32 21.51 29.23Z" fill="#0968B1"/>
<path d="M22.3299 28L22.2699 28.42C22.1699 28.67 21.8599 28.49 21.7199 28.65C21.5799 28.81 21.7199 28.98 21.8199 29.11C21.5899 29.62 22.3199 29.78 22.3099 30.24C22.5299 30.52 22.3099 30.94 22.5999 31.24C22.6699 31.76 22.5299 32.46 22.9799 32.87L23.0599 33.36C23.1499 33.7 22.6499 33.62 22.7199 33.92C22.8099 33.92 22.8299 34 22.8399 34.03C23.4771 33.2895 24.1619 32.5913 24.8899 31.94L24.5899 31.64C24.0117 30.8119 23.5944 29.8824 23.3599 28.9L23.1299 28.79C23.0787 29.0208 23.0419 29.2546 23.0199 29.49L22.9399 29.59C22.7699 29.59 22.6699 29.45 22.5299 29.36C22.3899 29.27 22.3999 29.13 22.5299 29.06C22.5633 29.0545 22.5975 29.056 22.6303 29.0647C22.663 29.0733 22.6936 29.0887 22.7199 29.11C22.7899 29.02 22.7199 28.9 22.7999 28.79C22.8799 28.68 22.6599 28.42 22.7999 28.25C22.9499 28.25 23.0599 28.42 23.1199 28.52C23.1799 28.62 23.3999 28.44 23.5199 28.39C23.6399 28.34 23.7099 28.07 23.5199 27.99C23.6 27.6818 23.6 27.3582 23.5199 27.05C23.4299 26.79 23.1399 26.83 22.9199 26.86C22.2799 27.07 23.0299 27.55 22.8699 27.95C22.7799 28.18 22.5399 27.95 22.3699 28.06" fill="#0968B1"/>
<path d="M27.7801 34.33C27.9462 34.1541 28.1519 34.0204 28.3801 33.94C27.6701 34.08 27.0401 33.58 26.4401 33.3C26.1001 33.04 25.6501 32.83 25.4401 32.45C24.9644 33.0438 24.4319 33.5897 23.8501 34.08C24.1001 34.08 24.2401 34.36 24.4401 34.48C25.6402 35.3892 27.0324 36.0117 28.5101 36.3L28.1301 36.12C27.8401 35.8 27.4301 35.41 27.4201 34.96C27.7101 34.86 27.6701 34.55 27.7701 34.33" fill="#0968B1"/>
<path d="M38.9399 18.72C39.0999 18.72 39.1499 18.95 39.2599 19.07C39.8399 19.38 39.9999 20.01 40.5099 20.36C40.7899 20.95 41.4499 21.41 41.5099 22.1C42.2422 23.6518 42.6538 25.3354 42.7199 27.05L42.6499 27.14C42.7196 27.1403 42.7871 27.1154 42.8399 27.07H45.1399C44.9899 26.85 45.0499 26.52 45.0099 26.25C44.666 22.7845 43.1818 19.5312 40.7899 17C40.2983 17.5982 39.7706 18.1659 39.2099 18.7L38.9399 18.72Z" fill="#0968B1"/>
<path d="M17.1499 27.16L17.0899 26.85C17.2204 24.3861 18.0494 22.0103 19.4799 20C19.7824 19.5488 20.1421 19.1388 20.5499 18.78C20.0299 18.3 19.4899 17.78 18.9499 17.2L18.8899 17C16.6538 19.4009 15.2298 22.4447 14.8199 25.7C14.7299 26.18 14.8199 26.7 14.6899 27.15C15.5088 27.09 16.331 27.09 17.1499 27.15" fill="#0968B1"/>
<path d="M21.1601 18.21V18.1C23.3726 16.0163 26.2633 14.8018 29.3001 14.68L29.2301 14.49V12.58L29.3001 12.35C26.2077 12.4709 23.2226 13.5159 20.7301 15.35C20.2501 15.68 19.8201 16.19 19.3201 16.48H19.3901C20.027 16.9886 20.6161 17.5542 21.1501 18.17" fill="#0968B1"/>
<path d="M29.3399 21.91C28.0521 22.0208 26.8462 22.5883 25.9399 23.51H26.1199C26.3099 23.7 26.6199 23.66 26.7599 23.92C26.8999 24.18 26.6299 24.04 26.6299 24.16C26.6299 24.28 26.7299 24.16 26.7599 24.26C26.7899 24.36 26.8799 24.17 26.9399 24.11C26.9999 24.05 27.1699 24.3 27.3599 24.3C27.3903 24.2745 27.4255 24.2555 27.4635 24.2441C27.5015 24.2328 27.5414 24.2294 27.5808 24.2341C27.6201 24.2387 27.6581 24.2514 27.6924 24.2714C27.7266 24.2913 27.7564 24.3181 27.7799 24.35C27.9099 24.24 28.1799 24.35 28.2199 24.14C28.4699 23.88 28.3299 23.47 28.6999 23.3C28.8199 23.37 28.6999 23.49 28.6999 23.6C28.9399 23.71 29.2199 23.4 29.4199 23.6C29.2783 23.0315 29.2377 22.4425 29.2999 21.86" fill="#0968B1"/>
<path d="M0 59.74H59.73V0H0V59.74ZM51.25 31.11C50.41 32.3 49.4 33.41 48.63 34.62C48.7955 33.6191 48.734 32.5939 48.45 31.62C47.7501 29.6548 47.2836 27.6141 47.06 25.54V24.72C47.55 26.91 49.7 28.42 49.56 30.87C49.5639 31.4191 49.483 31.9656 49.32 32.49L49.41 32.38C49.6536 31.1601 49.9878 29.9601 50.41 28.79C51.12 27.17 52 25.54 51.64 23.59C52.1281 24.797 52.3436 26.097 52.2709 27.397C52.1983 28.6969 51.8395 29.9648 51.22 31.11H51.25ZM49.93 18.72C50.6366 19.7559 51.0703 20.9534 51.1909 22.2015C51.3115 23.4496 51.1152 24.708 50.62 25.86C50.2359 26.8084 49.964 27.7984 49.81 28.81C49.74 28.63 49.73 28.39 49.66 28.19C49.11 26.05 47.07 24.52 46.24 22.5C45.9659 21.832 45.7582 21.1387 45.62 20.43C46.52 22.08 48.71 22.94 49.31 24.75C49.4856 25.2473 49.6161 25.7593 49.7 26.28C49.7143 26.2802 49.7282 26.2753 49.7393 26.2661C49.7503 26.2569 49.7576 26.2441 49.76 26.23C49.5281 24.3421 49.5516 22.4316 49.83 20.55C49.8946 19.5863 49.6606 18.626 49.16 17.8C49.52 18.01 49.68 18.41 49.93 18.72ZM48.93 18.35C49.31 20.02 48.76 21.66 49.11 23.35C48.2 21.56 46.27 20.71 44.94 19.28C44.2245 18.4275 43.7728 17.385 43.64 16.28C44.4 18.12 46.46 18.53 47.64 20.07C47.9583 20.451 48.2209 20.8752 48.42 21.33C47.8505 19.8215 47.3893 18.2742 47.04 16.7C46.7821 15.9938 46.3145 15.3832 45.7 14.95C46.4901 15.1844 47.2038 15.6247 47.7678 16.2256C48.3318 16.8266 48.726 17.5666 48.91 18.37L48.93 18.35ZM44.77 14.53C45.8124 15.5603 46.5109 16.8875 46.77 18.33L46.96 18.78C45.2438 17.5357 43.7781 15.9784 42.64 14.19L41.32 12.85C42.5426 13.2154 43.6953 13.7833 44.73 14.53H44.77ZM22.58 13.23C24.835 12.1243 27.3086 11.5366 29.82 11.51C32.8251 11.5261 35.765 12.3882 38.3028 13.9976C40.8407 15.607 42.8741 17.8986 44.17 20.61C45.8852 24.0837 46.259 28.0679 45.22 31.8C44.0796 35.891 41.3607 39.3613 37.6616 41.4477C33.9624 43.534 29.586 44.0654 25.495 42.925C21.404 41.7846 17.9337 39.0657 15.8473 35.3666C13.761 31.6674 13.2296 27.291 14.37 23.2C14.978 21.0585 16.0208 19.0653 17.4333 17.3448C18.8459 15.6243 20.5979 14.2133 22.58 13.2V13.23ZM18 13.05C16.9181 14.1175 15.9619 15.3052 15.15 16.59C14.3308 17.4538 13.4519 18.2591 12.52 19C13 18 13.02 16.83 13.69 15.92C14.69 14.24 16.44 13.66 18.03 13.03L18 13.05ZM11.63 16.61C12.1591 15.9252 12.8959 15.4305 13.73 15.2C12.16 16.28 12.26 18.2 11.73 19.84C11.57 20.44 11.29 20.99 11.15 21.6H11.2C11.4908 20.8797 11.9304 20.2288 12.49 19.69C13.62 18.69 15.27 18.01 15.82 16.48C15.82 18.61 14.02 20.28 12.33 21.48C11.6081 22.0545 11.0095 22.7688 10.57 23.58C10.57 23.04 10.65 22.5 10.57 21.93C10.38 20.08 10.25 17.93 11.57 16.58L11.63 16.61ZM8.44 23C8.448 21.2251 9.09802 19.513 10.27 18.18C10.27 18.18 10.33 18.13 10.37 18.18C9.15 20.02 10.16 22.34 10.1 24.43L9.94 26.57C9.94 26.57 9.94 26.65 10.02 26.63C10.09 26.39 10.11 26.13 10.16 25.89C10.44 24.16 11.94 22.89 13.26 21.74C13.5373 21.4482 13.7607 21.1097 13.92 20.74C13.8061 21.6154 13.56 22.4685 13.19 23.27C12.19 25.27 10.28 26.89 9.94 29.17C9.78 26.99 8.29 25.35 8.44 23.04V23ZM7.52 25.71C7.61341 25.0974 7.77439 24.4971 8 23.92C7.51 26.4 9.18 28.19 9.73 30.35C9.88471 31.1724 10.0918 31.984 10.35 32.78C10.35 32.78 10.4 32.78 10.42 32.78C9.6 30.49 10.78 28.36 11.97 26.57C12.2419 26.07 12.4438 25.535 12.57 24.98C12.6059 26.091 12.5086 27.2022 12.28 28.29C11.99 29.66 11.56 30.95 11.19 32.29C10.9849 33.156 10.9645 34.0555 11.13 34.93L11 34.79C10.13 33.19 8.42 31.93 7.91 30.18C7.40906 28.7255 7.26502 27.1718 7.49 25.65L7.52 25.71ZM7.41 30.51C7.6 33.14 10.41 34.51 11.75 36.72C12.028 37.1963 12.3639 37.6363 12.75 38.03C12.68 37.76 12.42 37.52 12.33 37.23C11.8634 36.2642 11.683 35.185 11.81 34.12C11.94 32.77 12.5 31.52 12.29 30.12C13.44 32.62 13.09 35.72 13.73 38.42C13.9477 38.9923 14.1947 39.5531 14.47 40.1C12.13 38.46 8.89 36.93 7.84 34C7.43365 32.8948 7.29653 31.7087 7.44 30.54L7.41 30.51ZM8.86 36.59C10.18 39.59 13.49 39.83 15.72 41.66C16.1082 42.0103 16.5422 42.3064 17.01 42.54C16.4526 42.0796 15.9613 41.5445 15.55 40.95C14.25 39.14 14.71 36.61 13.73 34.67C14.6354 35.671 15.3991 36.7914 16 38C16.79 40 17.1 42.17 18.94 43.65C16.94 43 14.61 43.18 12.86 41.96C11.8592 41.3864 10.9875 40.6126 10.2993 39.6869C9.61105 38.7612 9.12109 37.7036 8.86 36.58V36.59ZM12.26 42.16C14.38 44.58 17.84 43.77 20.67 44.4C21.0556 44.5155 21.4578 44.5661 21.86 44.55C21.52 44.34 21.05 44.36 20.69 44.17C18.47 43.39 18.14 40.99 16.94 39.38C18.4571 40.5003 19.8786 41.7446 21.19 43.1C22.2066 43.9271 23.4249 44.4689 24.72 44.67C24.41 44.78 24.01 44.75 23.72 44.84C21.4 45.41 18.82 46.34 16.36 45.51C14.6503 44.9406 13.2206 43.7432 12.36 42.16H12.26ZM41 47.77C38.61 48.66 36.12 47.72 34.25 46.31C33.5 45.83 32.83 45.14 31.85 45.2C31.5135 45.1816 31.1762 45.2153 30.85 45.3C32.7013 46.1735 34.3917 47.3535 35.85 48.79C35.5734 49.0946 35.2687 49.3725 34.94 49.62C33.5274 47.9968 31.8337 46.6418 29.94 45.62C29.6097 45.6997 29.2929 45.8277 29 46C27.4269 46.9631 26.0413 48.2031 24.91 49.66L23.91 48.87C25.3771 47.3771 27.1013 46.161 29 45.28C27.18 44.71 26 46.23 24.62 47C23.7843 47.6036 22.8163 47.9985 21.7969 48.1515C20.7774 48.3046 19.7361 48.2115 18.76 47.88C17.6883 47.5117 16.7351 46.8624 16 46C16.8235 46.5029 17.7523 46.8079 18.7136 46.8912C19.6748 46.9745 20.6423 46.8338 21.54 46.48C23.87 45.48 26.29 44.18 29.1 44.8C29.54 44.8 29.97 45.24 30.39 44.87C32.5005 44.3718 34.7199 44.6523 36.64 45.66L38.49 46.4C39.3798 46.7243 40.3322 46.8397 41.2737 46.7374C42.2152 46.6351 43.1206 46.3178 43.92 45.81C43.1644 46.7268 42.1717 47.4186 41.05 47.81L41 47.77ZM43.6 45.3C40.92 46.3 38.22 45.07 35.6 44.65L35.1 44.59C36.3729 44.3827 37.5655 43.8331 38.55 43C39.8852 41.5848 41.3333 40.2805 42.88 39.1C41.69 40.62 41.57 42.79 39.61 43.77C39.0913 44.0097 38.5567 44.2135 38.01 44.38C38.7059 44.3208 39.3973 44.2173 40.08 44.07C42.71 43.66 45.72 44.07 47.56 41.84C46.7173 43.4529 45.2843 44.6781 43.56 45.26L43.6 45.3ZM45.05 42.52C43.68 42.89 42.22 43.01 40.89 43.46C43.14 41.53 43.01 38.54 44.52 36.26C44.9806 35.6019 45.4746 34.9677 46 34.36C45.09 36.2 45.48 38.58 44.43 40.36C44.0062 41.1129 43.4585 41.7891 42.81 42.36C43.02 42.36 43.2 42.17 43.38 42.05C45.09 40.34 47.32 39.87 49.17 38.48C49.9304 37.9094 50.5299 37.1514 50.91 36.28C50.56 39.11 47.75 41.76 45.1 42.6L45.05 42.52ZM48.49 37.79C47.43 38.48 46.35 39.13 45.33 39.91V39.82C46.89 37.22 46.13 33.66 47.09 30.82L47.45 29.87C47.25 31.64 48.03 33.15 47.97 34.93C47.9012 35.9654 47.5559 36.9635 46.97 37.82H47.06C47.7597 36.7807 48.5141 35.7793 49.32 34.82C50.7 33.48 52.11 32.11 52.32 30.25C52.78 33.35 51.05 36.07 48.48 37.82" fill="#0968B1"/>
<path d="M42.74 28L42.61 27.9L42.69 28.12C42.5724 30.6766 41.6911 33.1393 40.16 35.19C39.8927 35.5638 39.5765 35.9001 39.22 36.19C39.8564 36.7206 40.4515 37.2989 41 37.92L41.06 37.8C43.4993 35.134 44.9163 31.6907 45.06 28.08L45.15 27.89L45.03 27.94L42.74 28Z" fill="#0968B1"/>
<path d="M29.2299 18.76C27.2662 18.9208 25.4055 19.7057 23.9199 21C24.5095 21.4979 25.0736 22.0252 25.6099 22.58L25.7299 22.41C26.4536 21.8411 27.278 21.4137 28.1599 21.15C28.5525 21.035 28.9611 20.9844 29.3699 21C29.2799 20.2226 29.2799 19.4374 29.3699 18.66L29.2299 18.76Z" fill="#0968B1"/>
<path d="M30.2199 14.47C30.2275 14.4002 30.2553 14.3342 30.2999 14.28C30.4099 14.22 30.4999 14.28 30.5499 14.39C30.5999 14.5 30.6099 14.69 30.5499 14.76C30.6499 14.76 30.6899 14.7 30.7799 14.7C32.5392 14.834 34.2469 15.3565 35.7799 16.23C36.0899 16.08 36.4899 15.88 36.7799 16.15C37.1699 16.01 37.2399 16.48 37.5499 16.53C37.7583 16.6405 37.9408 16.7939 38.0856 16.98C38.2304 17.1662 38.3341 17.3809 38.3899 17.61C38.4599 17.75 38.6899 17.86 38.7199 18.01C39.0454 17.4843 39.4502 17.012 39.9199 16.61L40.1899 16.5C37.8799 14.2881 34.915 12.8846 31.7399 12.5C31.2198 12.4642 30.7022 12.3974 30.1899 12.3C30.2653 13.0314 30.2653 13.7686 30.1899 14.5L30.2199 14.47ZM37.3599 15.57C37.4398 15.5832 37.515 15.6169 37.5781 15.6677C37.6411 15.7185 37.69 15.7847 37.7199 15.86C37.7199 16.04 37.8899 16.19 37.7199 16.33C37.2899 16.44 37.2499 15.96 36.9199 15.84C36.8953 15.8075 36.8773 15.7704 36.867 15.731C36.8567 15.6915 36.8543 15.6504 36.8599 15.61C37.0099 15.43 37.1499 15.73 37.3199 15.61L37.3599 15.57ZM30.4799 14.16C30.5399 14.03 30.7299 14.08 30.8199 14.16L31.9999 13.56C32.2283 13.5445 32.4573 13.5784 32.6713 13.6595C32.8853 13.7407 33.0793 13.867 33.2399 14.03V14.09C33.1138 14.222 32.9539 14.317 32.7776 14.3646C32.6013 14.4121 32.4154 14.4106 32.2399 14.36C31.7099 14.46 30.9799 14.77 30.5599 14.22C30.5599 14.22 30.4899 14.13 30.5599 14.09" fill="#0968B1"/>
<path d="M30.2199 17.9C30.5236 17.8399 30.8362 17.8399 31.1399 17.9C32.6895 18.1006 34.1624 18.6925 35.4199 19.62C35.2414 19.4697 35.1153 19.2666 35.0599 19.04C35.0732 19.031 35.0888 19.0262 35.1049 19.0262C35.1209 19.0262 35.1366 19.031 35.1499 19.04C35.1499 18.8 34.9099 18.67 34.8699 18.44C34.8885 18.4133 34.9145 18.3925 34.9446 18.38C34.9747 18.3676 35.0078 18.3642 35.0399 18.37C35.2979 18.6213 35.5322 18.8957 35.7399 19.19C35.9199 19.12 36.0599 19.19 36.1899 19.33C36.3199 19.47 36.2799 19.76 36.4499 19.92C36.4499 20.39 37.0599 20.65 37.0199 21.12C37.0199 21.23 37.1699 21.12 37.2199 21.2L37.6999 21.79C37.6658 21.8432 37.654 21.9076 37.6671 21.9694C37.6802 22.0312 37.7171 22.0853 37.7699 22.12C37.9899 22.21 38.1099 21.94 38.3199 21.98C38.5299 22.02 38.3199 22.36 38.3199 22.55C38.4399 22.55 38.5899 22.46 38.6799 22.55C38.7699 22.64 38.5399 22.83 38.4699 22.95C38.3999 23.07 38.6099 23.08 38.7399 23.12C38.8699 23.16 38.9699 23.29 38.9299 23.41C39.3299 23.82 38.8099 24.27 38.9999 24.71C39.0429 24.8457 39.047 24.9908 39.0117 25.1287C38.9763 25.2666 38.9029 25.3918 38.7999 25.49C38.7999 25.84 38.4799 26.05 38.3599 26.35L37.9499 26.43C37.7399 26.64 38.1299 26.9 37.9499 27.04H38.8399L38.7099 27C38.6423 26.815 38.618 26.617 38.6388 26.4211C38.6596 26.2252 38.7249 26.0367 38.8299 25.87C38.9077 25.5508 39.0507 25.2512 39.2499 24.99C39.2499 24.99 39.4099 24.87 39.4599 24.99C39.4845 25.2708 39.4362 25.5533 39.3199 25.81C39.5153 26.2141 39.6015 26.6623 39.5699 27.11C40.3499 27.06 41.1299 27.05 41.8999 27.06L41.8299 26.9C41.759 25.476 41.4197 24.0781 40.8299 22.78C40.6699 22.78 40.5499 22.92 40.3499 22.87C40.3189 22.8607 40.2925 22.8402 40.2759 22.8124C40.2592 22.7847 40.2535 22.7517 40.2599 22.72C39.9885 22.3679 39.6946 22.0339 39.3799 21.72C38.9799 21.72 38.7899 21.29 38.3799 21.25C37.9699 21.21 38.2699 20.59 37.7999 20.73C37.6797 20.689 37.5713 20.6193 37.4842 20.527C37.3971 20.4346 37.3338 20.3224 37.2999 20.2C37.3218 19.9878 37.2923 19.7735 37.214 19.5751C37.1357 19.3767 37.0108 19.2 36.8499 19.06C36.5599 18.96 36.4399 19.34 36.1599 19.28C35.8799 19.22 36.0699 18.99 36.0199 18.86C35.9699 18.73 35.8299 18.65 35.8499 18.49C36.2299 18 35.3999 18 35.5799 17.49C35.5299 17.14 35.1799 17 34.9899 16.72C33.7668 16.1587 32.4651 15.7878 31.1299 15.62C30.7908 15.6352 30.4518 15.5878 30.1299 15.48L30.2099 15.63C30.2099 16.37 30.2099 17.16 30.2099 17.86" fill="#0968B1"/>
<path d="M29.4201 25.48C29.1765 25.7996 28.8176 26.0113 28.4201 26.07C28.3201 26.2 28.3401 26.48 28.0901 26.46C28.0101 26.63 27.7401 26.73 27.8501 26.99C27.7727 27.2878 27.7258 27.5927 27.7101 27.9C27.2401 28.2 27.3801 27.52 27.1401 27.37L27.0601 27.51C26.9601 27.51 26.9001 27.51 26.8401 27.41C26.7801 27.31 26.6401 27.36 26.5801 27.41C26.5201 27.46 26.3201 27.73 26.3601 27.97C26.4001 28.21 26.0701 28.06 26.1001 28.21C26.3729 28.198 26.644 28.1612 26.9101 28.1C27.0901 28.15 27.2401 28.01 27.4201 28C27.6001 27.99 27.5601 28.1 27.5301 28.2H27.6001C27.6613 28.1581 27.7072 28.0973 27.7307 28.0269C27.7542 27.9564 27.7539 27.8803 27.7301 27.81C27.7301 27.65 27.9301 27.65 28.0401 27.6C28.1501 27.55 28.0401 27.75 28.0401 27.83C28.4001 27.97 27.9601 28.23 27.9101 28.42C27.8601 28.61 27.9101 28.91 27.6101 28.87C27.5953 28.8666 27.5815 28.8601 27.5693 28.8511C27.5572 28.842 27.5471 28.8306 27.5395 28.8174C27.532 28.8043 27.5273 28.7898 27.5257 28.7747C27.5241 28.7597 27.5256 28.7444 27.5301 28.73H27.4801C27.4827 28.8038 27.5044 28.8758 27.5429 28.9388C27.5814 29.0019 27.6356 29.0539 27.7001 29.09C27.9201 28.9 27.9301 28.59 28.2501 28.55C28.5701 28.51 28.1801 28.11 28.4301 27.97C28.8401 27.97 29.2801 27.78 29.6101 28.12C29.6101 28.26 29.5301 28.32 29.6101 28.44C29.5512 28.6359 29.4563 28.819 29.3301 28.98C29.3454 29.0334 29.345 29.09 29.3291 29.1432C29.3131 29.1964 29.2822 29.2439 29.2401 29.28C29.1301 29.76 28.5801 29.53 28.2401 29.7C28.7466 30.0733 29.3741 30.2444 30.0001 30.18C30.3401 30.18 30.1901 29.74 30.3601 29.55C30.4801 28.99 30.9901 29.37 31.3001 29.22C31.4339 28.9916 31.5253 28.7409 31.5701 28.48C31.4731 28.4175 31.3992 28.3252 31.3595 28.2169C31.3198 28.1086 31.3165 27.9903 31.3501 27.88C31.2201 27.7 31.2301 27.37 30.9401 27.34C30.9189 27.3109 30.9076 27.2759 30.9076 27.24C30.9076 27.2041 30.9189 27.1691 30.9401 27.14C30.9401 26.97 31.1101 26.91 31.1601 26.78C30.9701 26.66 31.0201 26.4 31.0401 26.25C30.7301 26.33 30.6901 25.93 30.4601 25.84C30.4601 25.66 30.2101 25.62 30.0501 25.59C29.6701 25.78 29.6001 25.3 29.3201 25.19C29.3201 25.11 29.2201 24.98 29.3201 24.91C29.4201 24.84 29.6501 24.91 29.8201 24.91L29.6801 24.84C29.5501 24.7 29.2801 24.84 29.1101 24.84C29.2701 25 29.2001 25.29 29.3001 25.49" fill="#0968B1"/>
<path d="M13.9999 68.27C13.2122 68.2659 12.4256 68.3329 11.6499 68.47V76C12.3261 76.149 13.0177 76.2161 13.7099 76.2C16.7099 76.2 18.5599 74.71 18.5599 72.1C18.5599 69.49 16.7599 68.27 13.9999 68.27Z" fill="#0968B1"/>
<path d="M0 90.52H29V61.52H0V90.52ZM19.57 76C18.78 76.7324 17.8502 77.2977 16.8363 77.662C15.8225 78.0263 14.7455 78.1821 13.67 78.12C12.999 78.1401 12.328 78.0831 11.67 77.95V85.7H9.16V66.58C10.7407 66.2974 12.3443 66.1634 13.95 66.18C16.42 66.18 18.22 66.75 19.37 67.78C19.9277 68.2836 20.3701 68.9017 20.667 69.5921C20.9638 70.2824 21.1081 71.0287 21.09 71.78C21.143 72.5503 21.0352 73.3233 20.7736 74.0498C20.5119 74.7762 20.102 75.4404 19.57 76Z" fill="#0968B1"/>
<path d="M43.39 98.7C42.4074 98.6845 41.4257 98.7683 40.46 98.95V114.24C41.2986 114.349 42.1448 114.389 42.99 114.36C48.32 114.36 51.22 111.36 51.22 106.15C51.22 101.54 48.66 98.7 43.39 98.7Z" fill="#0968B1"/>
<path d="M30.74 121.12H59.74V92.12H30.74V121.12ZM51.08 113.58C49.24 115.39 46.26 116.37 42.5 116.37C40.9766 116.392 39.4534 116.315 37.94 116.14V97.14C39.7041 96.8723 41.4857 96.7353 43.27 96.73C46.86 96.73 49.41 97.54 51.11 99.12C52.0504 100.016 52.7838 101.107 53.2588 102.316C53.7338 103.525 53.939 104.823 53.86 106.12C53.9181 107.494 53.7022 108.865 53.225 110.154C52.7477 111.444 52.0185 112.625 51.08 113.63" fill="#0968B1"/>
<path d="M0 121.11H29V92.16H0V121.11ZM21.6 108.28C21.6 114.22 18.47 116.63 14.29 116.63C10.29 116.63 7.34 114.39 7.34 108.37V97H9.87V108.48C9.87 112.78 11.79 114.62 14.37 114.62C17.21 114.62 19.08 112.73 19.08 108.48V97H21.6V108.28Z" fill="#0968B1"/>
<path d="M30.74 90.52H59.74V61.52H30.74V90.52ZM38 66.37H40.76L46.93 76.16C48.2229 78.1698 49.3724 80.2684 50.37 82.44H50.46C50.23 79.86 50.17 77.51 50.17 74.52V66.37H52.52V85.71H50L43.82 75.9C42.4846 73.8302 41.2854 71.6756 40.23 69.45H40.15C40.29 71.89 40.32 74.21 40.32 77.45V85.71H38V66.37Z" fill="#0968B1"/>
</g>
<defs>
<clipPath id="clip0">
<rect width="59.73" height="121.12" fill="white"/>
</clipPath>
</defs>
</svg>
