<svg width="24" height="24" viewBox="0 0 24 24" fill="none" xmlns="http://www.w3.org/2000/svg">
<path d="M12 23.25C18.2132 23.25 23.25 18.2132 23.25 12C23.25 5.7868 18.2132 0.75 12 0.75C5.7868 0.75 0.75 5.7868 0.75 12C0.75 18.2132 5.7868 23.25 12 23.25Z" stroke="white" stroke-width="1.5"/>
<path d="M11.6519 0.784058V22.9091" stroke="white" stroke-width="1.5"/>
<path d="M0.276855 12.16H22.9819" stroke="white" stroke-width="1.5"/>
<path d="M11.5 23.25C14.6756 23.25 17.25 18.2132 17.25 12C17.25 5.7868 14.6756 0.75 11.5 0.75C8.32436 0.75 5.75 5.7868 5.75 12C5.75 18.2132 8.32436 23.25 11.5 23.25Z" stroke="white" stroke-width="1.5"/>
<path d="M2.7168 5.71094C2.7168 5.71094 5.33406 8.55795 11.7891 8.54395C18.2441 8.52995 21.625 6.18994 21.625 6.18994" stroke="white" stroke-width="1.5"/>
<path d="M21.627 18.545C21.627 18.545 18.4179 15.8451 11.9629 15.8571C5.50789 15.8691 2.71875 18.0651 2.71875 18.0651" stroke="white" stroke-width="1.5"/>
</svg>
