<svg width="20" height="18" viewBox="0 0 20 18" fill="none" xmlns="http://www.w3.org/2000/svg">
<path d="M4.93994 2.00002C4.93968 2.53046 4.72871 3.03906 4.35345 3.41394C3.97819 3.78883 3.46937 3.99929 2.93894 3.99902C2.40851 3.99876 1.89991 3.78779 1.52502 3.41253C1.15014 3.03727 0.939676 2.52846 0.939942 1.99802C0.940207 1.46759 1.15117 0.958988 1.52644 0.584103C1.9017 0.209218 2.41051 -0.00124153 2.94094 -0.000976312C3.47137 -0.000711096 3.97998 0.210257 4.35486 0.585517C4.72975 0.960777 4.94021 1.46959 4.93994 2.00002ZM4.99994 5.48002H0.999942V18H4.99994V5.48002ZM11.3199 5.48002H7.33994V18H11.2799V11.43C11.2799 7.77002 16.0499 7.43002 16.0499 11.43V18H19.9999V10.07C19.9999 3.90002 12.9399 4.13002 11.2799 7.16002L11.3199 5.48002Z" fill="white"/>
</svg>
