<svg width="61" height="122" viewBox="0 0 61 122" fill="none" xmlns="http://www.w3.org/2000/svg">
<g clip-path="url(#clip0)">
<path d="M37.03 21.5V21.6C36.3 22.36 35.49 23.15 34.79 23.93C34.8386 24.027 34.9153 24.1072 35.01 24.16C35.01 23.97 35.14 23.8 35.16 23.61C35.35 23.34 35.64 23.51 35.89 23.61C36.2652 23.5922 36.6412 23.6191 37.01 23.69C37.3 23.83 37.33 24.19 37.59 24.34C37.6191 24.3904 37.627 24.4503 37.612 24.5065C37.597 24.5627 37.5603 24.6107 37.51 24.64C37.59 25.24 37.88 24.48 38.18 24.64C38.3 24.69 38.47 24.64 38.56 24.81C38.65 24.98 38.91 25.01 38.93 25.25C38.95 25.49 38.78 25.4 38.7 25.46C38.77 25.7 38.45 25.85 38.56 26.11C39.02 26.2 39.04 25.66 39.25 25.42C39.1635 25.0004 39.0153 24.596 38.81 24.22C38.54 24.17 38.38 23.86 38.12 23.8C37.61 23.6 38.2 23.28 38.12 22.98C37.8049 22.4529 37.4399 21.9573 37.03 21.5Z" fill="white"/>
<path d="M40.01 30C39.7025 31.0651 39.2337 32.0768 38.62 33C38.35 33.33 38.1 33.8 37.75 34L38.48 34.64C38.48 34.64 38.48 34.53 38.48 34.48C38.48 34.43 38.48 34.27 38.65 34.29C39 34.29 39.01 34.65 39.21 34.84C39.21 35.15 39.43 35.39 39.34 35.67C41.2792 33.6036 42.4144 30.9111 42.54 28.08L42.65 27.95C41.93 28.02 41.18 27.95 40.43 27.95L40.26 27.89C40.2635 28.3722 40.2267 28.8539 40.15 29.33L40.41 29.62C40.4439 29.6767 40.4575 29.7433 40.4484 29.8088C40.4393 29.8743 40.4081 29.9347 40.36 29.98C40.3059 30.0183 40.2413 30.0389 40.175 30.0389C40.1087 30.0389 40.0441 30.0183 39.99 29.98" fill="white"/>
<path d="M37.22 37.54L37.33 37.39C37.8322 37.0371 38.3009 36.6388 38.73 36.2H38.79C38.69 36.2 38.57 36.27 38.46 36.2C38.3663 36.1478 38.291 36.0679 38.2444 35.9712C38.1979 35.8746 38.1824 35.7658 38.2 35.66L37.2 34.66L37.14 34.51C37.0562 34.6885 36.9331 34.8457 36.78 34.97C36.78 35.09 36.78 35.28 36.9 35.37C37.02 35.46 37.63 35.68 37.7 36.06C37.57 36.41 36.9 36.73 37.32 37.06C37.45 37.25 37.13 37.32 37.18 37.48" fill="white"/>
<path d="M31.5 33.34C31.71 33.34 31.57 33.6 31.72 33.68C32.05 33.57 32.29 33.96 32.56 33.68C32.56 33.3 32.96 33.34 33.19 33.24C33.42 33.14 33.96 32.74 33.92 32.24L33.86 32.17C33.61 32.17 33.49 32.36 33.3 32.51C33.11 32.66 32.97 32.27 32.79 32.36C32.79 32.36 32.79 32.42 32.87 32.43C32.95 32.44 32.93 32.61 32.87 32.66C32.6 32.91 32.47 32.54 32.21 32.57V32.66C32.21 32.72 32.21 32.81 32.12 32.77C31.96 32.51 31.63 32.61 31.47 32.38C31.37 32.32 31.27 32.38 31.2 32.46C31.13 32.54 30.89 32.46 30.95 32.65C30.76 32.72 30.73 32.93 30.59 33.06C30.34 33.06 30.23 33.3 30 33.29C30 33.29 30 33.42 30.07 33.43C30.2199 33.4756 30.3801 33.4756 30.53 33.43C30.77 33.05 31.17 33.37 31.53 33.23" fill="white"/>
<path d="M30.0699 40.41L30.1499 40.29L29.8999 40.35C26.858 40.208 23.9718 38.9639 21.7799 36.85V36.94L20.1399 38.59C22.5064 40.742 25.4637 42.1353 28.6299 42.59C29.1605 42.6209 29.6883 42.6877 30.2099 42.79L30.0899 42.59L30.0699 40.41Z" fill="white"/>
<path d="M31.5299 24.62C31.7099 24.72 31.8099 24.53 31.9699 24.49C32.1836 24.5434 32.3715 24.671 32.4999 24.85C32.6399 24.91 32.7799 24.85 32.9099 24.78C32.9899 24.11 33.8199 24.21 34.0699 23.59L33.9199 23.65C33.8499 23.56 33.6899 23.65 33.6999 23.45C33.8384 23.2984 34.0005 23.17 34.1799 23.07C33.4787 22.6228 32.7132 22.2856 31.9099 22.07C31.5899 21.99 31.2599 21.99 30.9099 21.88C30.9823 22.4238 31.0224 22.9714 31.0299 23.52L31.5999 23.71C31.7699 23.44 32.1299 23.38 32.2899 23.12C32.3999 23.03 32.5199 23.12 32.5999 23.21C32.6067 23.4277 32.5728 23.6448 32.4999 23.85C32.2799 24.28 31.7699 24.34 31.4999 24.65" fill="white"/>
<path d="M36.65 32.67C36.65 32.93 36.36 33.05 36.4 33.31C36.3408 33.3633 36.271 33.4033 36.1951 33.4275C36.1192 33.4516 36.0391 33.4593 35.96 33.45C35.3172 33.2069 34.6444 33.0522 33.96 32.99C33.9294 33.0029 33.904 33.0257 33.8877 33.0546C33.8714 33.0836 33.8652 33.1171 33.87 33.15C34.15 33.3 34.5 33.3 34.81 33.43C35.12 33.56 35.26 33.84 35.6 33.73C35.94 33.62 36.37 33.83 36.6 33.53C36.6 33.23 36.82 33.02 36.95 32.76H37.04C37.1583 32.9415 37.2367 33.146 37.27 33.36C37.49 33.12 37.67 32.85 37.87 32.61C38.4076 31.87 38.8011 31.0355 39.03 30.15C38.8153 30.1508 38.6023 30.188 38.4 30.26C38.17 30.26 37.89 30.38 37.69 30.26C37.49 30.14 37.57 30.26 37.58 30.35C37.59 30.44 37.42 30.62 37.24 30.57C37.06 30.52 37.09 30.35 37.04 30.24C37.0552 30.3226 37.0552 30.4074 37.04 30.49C36.9084 30.6542 36.7944 30.8319 36.7 31.02C36.54 31.21 36.26 31.14 36.09 31.29C36.09 31.68 35.64 31.6 35.4 31.72C35.4 31.72 35.4 31.77 35.46 31.81C35.5182 31.8324 35.5817 31.8367 35.6423 31.8224C35.703 31.8082 35.7579 31.776 35.8 31.73C36.14 31.82 36.07 31.4 36.26 31.25C36.45 31.1 36.58 31.09 36.76 31.2C36.9189 31.4345 36.9865 31.7191 36.95 32C36.76 32.19 36.85 32.51 36.72 32.73" fill="white"/>
<path d="M32.96 31.85C33.15 31.65 33.56 31.66 33.58 31.37C33.3 31.37 33.15 31.48 32.96 31.63C32.96 31.7 32.85 31.81 32.96 31.85Z" fill="white"/>
<path d="M30.9899 39.55C31.6214 39.4077 32.2636 39.3174 32.9099 39.28C32.7734 39.2501 32.6505 39.1763 32.5599 39.07C32.1799 39.07 32.0099 38.66 31.8899 38.36C31.7699 38.06 31.9699 37.97 32.0599 37.79C31.8999 37.46 31.4099 37.7 31.1199 37.58C31.0399 37.52 30.9899 37.42 30.8699 37.41L30.9899 37.58C31.0311 38.246 31.0311 38.914 30.9899 39.58" fill="white"/>
<path d="M39.42 36.68C39.2 37.12 38.7 37.4 38.33 37.68C37.81 38.2 36.97 38.31 36.7 39.06C36.43 39.31 36.33 39.71 35.94 39.86C35.8 40.24 35.39 40.21 35.16 40.49C34.49 41.09 34.06 40.11 33.46 39.99L32.24 40.21C31.8263 40.2799 31.4037 40.2799 30.99 40.21C31.05 41.0422 31.05 41.8777 30.99 42.71L31.15 42.62C34.8813 42.4655 38.4317 40.9707 41.15 38.41L39.47 36.81L39.42 36.68Z" fill="white"/>
<path d="M38.03 27.85L38.27 28.1C38.52 28.26 38.35 28.62 38.62 28.76C38.89 28.9 39.04 29.28 39.17 29.55C39.2068 29.4781 39.2305 29.4002 39.24 29.32C39.36 28.88 39.34 28.39 39.48 27.96C38.9945 28.0306 38.4994 27.993 38.03 27.85Z" fill="white"/>
<path d="M33.4899 19.23C32.6541 18.9752 31.7975 18.7945 30.9299 18.69L31.0099 18.87V21.02H31.2199C32.5251 21.1672 33.7641 21.6724 34.7999 22.48L34.8499 22.65C35.2099 22.15 35.7499 21.72 36.1699 21.24L36.5699 21.01L36.3799 20.93C35.5303 20.2094 34.5582 19.6472 33.5099 19.27" fill="white"/>
<path d="M29.7299 33.14C29.7899 32.93 29.7299 32.66 29.8099 32.48C29.8899 32.3 30.0999 32.31 30.2599 32.34C30.2826 32.3366 30.3042 32.3277 30.3227 32.3141C30.3412 32.3004 30.356 32.2824 30.3659 32.2617C30.3758 32.2409 30.3804 32.218 30.3793 32.1951C30.3783 32.1721 30.3716 32.1498 30.3599 32.13C30.1299 32.13 30.2299 31.83 30.1499 31.69C30.0699 31.55 30.2899 31.62 30.2599 31.52C30.2299 31.42 30.3399 31.25 30.2099 31.11C30.2099 31.11 30.2699 31.04 30.3099 31.01C29.8299 31.22 29.3099 30.92 28.8899 30.73C28.6899 30.61 28.3799 30.49 28.3299 30.24C27.891 30.812 27.3988 31.341 26.8599 31.82C27.6814 32.5085 28.6725 32.9643 29.7299 33.14Z" fill="white"/>
<path d="M18.7301 28.12L18.9101 29.59C19.0535 30.1346 19.1538 30.6897 19.2101 31.25C19.3001 31.13 19.2101 30.89 19.4601 30.87C19.3701 30.69 19.6301 30.54 19.4601 30.39C19.4766 29.9948 19.6407 29.6201 19.9201 29.34C20.3201 29.34 20.3501 28.79 20.7601 28.77C20.9701 28.77 21.0901 29.04 21.1801 29.13C20.9673 28.7943 20.8955 28.3883 20.9801 28L20.8001 28.08C20.0625 28.0938 19.3247 28.0671 18.5901 28L18.7301 28.12Z" fill="white"/>
<path d="M27.84 29.7L27.57 29.57C27.5089 29.7699 27.3948 29.9496 27.24 30.09C27.43 29.96 27.56 29.71 27.81 29.69" fill="white"/>
<path d="M21.2799 36.27C21.0062 36.0445 20.7581 35.7896 20.5399 35.51C20.4002 35.4731 20.2692 35.4091 20.1542 35.3216C20.0392 35.2341 19.9426 35.1248 19.8699 35C19.7899 34.91 19.8699 34.75 19.7699 34.69L19.6799 34.81C19.3999 34.94 19.2999 34.66 19.1099 34.54C18.9199 34.42 18.9799 33.93 18.6399 34.02C18.5199 34.02 18.4799 33.87 18.3999 33.79C18.0899 33.79 18.0099 33.48 17.8399 33.31C17.8399 33.38 17.8399 33.48 17.7399 33.53C17.4299 33.6 17.3099 33.21 17.0999 33.05C17.0399 33.05 16.9999 33.14 16.9199 33.12C16.7312 32.946 16.6167 32.7061 16.5999 32.45C16.3299 32.16 16.4499 31.69 16.4999 31.33C16.5499 31.23 16.6799 31.18 16.6599 31.06C16.6399 30.94 16.9099 30.88 17.0699 30.87C17.1396 30.903 17.1985 30.955 17.2399 31.02C17.3399 30.95 17.5699 31.02 17.4799 30.8C17.6348 30.6928 17.8131 30.6242 17.9999 30.6C18.1041 30.7775 18.2246 30.9449 18.3599 31.1L18.2499 30.92C18.0368 30.1289 17.9061 29.318 17.8599 28.5C17.8599 28.45 17.7599 28.43 17.8599 28.38C17.8487 28.2302 17.8487 28.0798 17.8599 27.93L17.6499 28.01L15.4299 28C15.5597 30.4544 16.2434 32.8475 17.4299 35C18.0615 36.0486 18.7666 37.0511 19.5399 38L21.1299 36.36L21.2799 36.27Z" fill="white"/>
<path d="M29.88 37.31C28.0069 37.2056 26.2103 36.5323 24.73 35.38C24.73 35.57 25.04 35.69 24.97 35.93C24.9 36.17 24.55 36.15 24.33 36.15C23.87 36.07 23.54 36.42 23.11 36.47C22.68 36.52 22.58 36.11 22.23 36.15C24.342 38.1009 27.0607 39.266 29.93 39.45L30.16 39.6L30.06 39.33V37.23L29.88 37.31Z" fill="white"/>
<path d="M23.8299 17.68C23.3299 18.02 22.8299 18.47 22.3699 18.77C22.9469 19.2212 23.4854 19.7196 23.9799 20.26L24.0299 20.41C25.3631 19.1706 27.0206 18.3349 28.8099 18C29.2229 17.9062 29.6477 17.8758 30.0699 17.91C30.0149 17.1443 30.0149 16.3757 30.0699 15.61C27.8466 15.7281 25.697 16.4469 23.8499 17.69" fill="white"/>
<path d="M26.0401 29.34C25.9601 29.34 25.9501 29.34 25.8901 29.34C25.8301 29.34 25.8001 29.34 25.7701 29.34C25.7701 28.89 25.2601 29.16 25.0701 28.92C25.2901 29.33 25.4101 29.8 25.6401 30.22C25.8701 30.64 26.1101 30.87 26.2501 31.22C26.4452 30.9371 26.6698 30.6756 26.9201 30.44C26.9343 30.3316 26.9095 30.2217 26.8501 30.13C26.7701 29.96 26.8501 29.72 26.7101 29.58C26.5001 29.65 26.7801 29.86 26.7101 29.98C26.6914 29.9899 26.6705 29.9951 26.6494 29.9951C26.6282 29.9952 26.6074 29.99 26.5887 29.9802C26.5699 29.9703 26.5539 29.956 26.542 29.9386C26.53 29.9211 26.5225 29.901 26.5201 29.88C26.431 29.858 26.3491 29.8133 26.2825 29.7502C26.2159 29.6871 26.1668 29.6078 26.1401 29.52C26.2901 29.43 26.1401 29.39 26.0601 29.31" fill="white"/>
<path d="M21.93 26C21.8994 26.3986 21.8324 26.7936 21.73 27.18C22.0579 27.0953 22.402 27.0953 22.73 27.18C22.54 27.09 22.73 26.85 22.59 26.73C22.45 26.61 22.54 26.28 22.73 26.15C22.73 25.83 23.05 25.66 23.09 25.36C23.13 25.06 23.56 25.25 23.74 25.08C23.92 24.91 23.74 24.9 23.74 24.82C23.9 24.6 24.15 24.61 24.34 24.49C24.4743 24.2641 24.6591 24.0724 24.88 23.93C25.35 23.93 25.36 23.28 25.81 23.26C25.1925 22.7474 24.6048 22.1998 24.05 21.62C22.9781 22.8732 22.2479 24.3819 21.93 26Z" fill="white"/>
<path d="M21.7799 19.44L20.9199 20.53C19.5569 22.4768 18.767 24.7668 18.6399 27.14H20.8299L21.0299 27.22C20.9499 27.17 20.9699 27.07 20.9399 26.99C21.0587 24.7545 21.9575 22.6313 23.4799 20.99C22.8782 20.4733 22.3166 19.9117 21.7999 19.31L21.7799 19.44Z" fill="white"/>
<path d="M22.24 29.23C22.24 29.08 22.04 29.04 22.07 28.9C22.1 28.76 22.07 28.13 22.47 28C22.344 28.0436 22.2102 28.0599 22.0774 28.0478C21.9447 28.0358 21.816 27.9956 21.7 27.93L21.82 28.12C21.9212 28.6334 21.9581 29.1574 21.93 29.68C22.02 29.53 22.04 29.32 22.24 29.23Z" fill="white"/>
<path d="M23.0599 28L22.9999 28.42C22.8999 28.67 22.5899 28.49 22.4499 28.65C22.3099 28.81 22.4499 28.98 22.5499 29.11C22.3199 29.62 23.0499 29.78 23.0399 30.24C23.2599 30.52 23.0399 30.94 23.3299 31.24C23.3999 31.76 23.2599 32.46 23.7099 32.87L23.7899 33.36C23.8799 33.7 23.3799 33.62 23.4499 33.92C23.5399 33.92 23.5599 34 23.5699 34.03C24.207 33.2895 24.8918 32.5913 25.6199 31.94L25.3199 31.64C24.7417 30.8119 24.3244 29.8824 24.0899 28.9L23.8599 28.79C23.8086 29.0208 23.7719 29.2546 23.7499 29.49L23.6699 29.59C23.4999 29.59 23.3999 29.45 23.2599 29.36C23.1199 29.27 23.1299 29.13 23.2599 29.06C23.2933 29.0545 23.3275 29.056 23.3603 29.0647C23.393 29.0733 23.4236 29.0887 23.4499 29.11C23.5199 29.02 23.4499 28.9 23.5299 28.79C23.6099 28.68 23.3899 28.42 23.5299 28.25C23.6799 28.25 23.7899 28.42 23.8499 28.52C23.9099 28.62 24.1299 28.44 24.2499 28.39C24.3699 28.34 24.4399 28.07 24.2499 27.99C24.3299 27.6818 24.3299 27.3582 24.2499 27.05C24.1599 26.79 23.8699 26.83 23.6499 26.86C23.0099 27.07 23.7599 27.55 23.5999 27.95C23.5099 28.18 23.2699 27.95 23.0999 28.06" fill="white"/>
<path d="M28.5101 34.33C28.6762 34.1541 28.8819 34.0204 29.1101 33.94C28.4001 34.08 27.7701 33.58 27.1701 33.3C26.8301 33.04 26.3801 32.83 26.1701 32.45C25.6944 33.0438 25.1619 33.5897 24.5801 34.08C24.8301 34.08 24.9701 34.36 25.1701 34.48C26.3702 35.3892 27.7624 36.0117 29.2401 36.3L28.8601 36.12C28.5701 35.8 28.1601 35.41 28.1501 34.96C28.4401 34.86 28.4001 34.55 28.5001 34.33" fill="white"/>
<path d="M39.6699 18.72C39.8299 18.72 39.8799 18.95 39.9899 19.07C40.5699 19.38 40.7299 20.01 41.2399 20.36C41.5199 20.95 42.1799 21.41 42.2399 22.1C42.9722 23.6518 43.3838 25.3354 43.4499 27.05L43.3799 27.14C43.4496 27.1403 43.5171 27.1154 43.5699 27.07H45.8699C45.7199 26.85 45.7799 26.52 45.7399 26.25C45.396 22.7845 43.9117 19.5312 41.5199 17C41.0283 17.5982 40.5006 18.1659 39.9399 18.7L39.6699 18.72Z" fill="white"/>
<path d="M17.8799 27.16L17.8199 26.85C17.9504 24.3861 18.7794 22.0103 20.2099 20C20.5124 19.5488 20.8721 19.1388 21.2799 18.78C20.7599 18.3 20.2199 17.78 19.6799 17.2L19.6199 17C17.3837 19.4009 15.9598 22.4447 15.5499 25.7C15.4599 26.18 15.5499 26.7 15.4199 27.15C16.2388 27.09 17.061 27.09 17.8799 27.15" fill="white"/>
<path d="M21.89 18.21V18.1C24.1026 16.0163 26.9932 14.8018 30.03 14.68L29.96 14.49V12.58L30.03 12.35C26.9377 12.4709 23.9526 13.5159 21.46 15.35C20.98 15.68 20.55 16.19 20.05 16.48H20.12C20.757 16.9886 21.3461 17.5542 21.88 18.17" fill="white"/>
<path d="M30.0699 21.91C28.7821 22.0208 27.5762 22.5883 26.6699 23.51H26.8499C27.0399 23.7 27.3499 23.66 27.4899 23.92C27.6299 24.18 27.3599 24.04 27.3599 24.16C27.3599 24.28 27.4599 24.16 27.4899 24.26C27.5199 24.36 27.6099 24.17 27.6699 24.11C27.7299 24.05 27.8999 24.3 28.0899 24.3C28.1203 24.2745 28.1555 24.2555 28.1935 24.2441C28.2315 24.2328 28.2714 24.2294 28.3107 24.2341C28.3501 24.2387 28.3881 24.2514 28.4223 24.2714C28.4566 24.2913 28.4864 24.3181 28.5099 24.35C28.6399 24.24 28.9099 24.35 28.9499 24.14C29.1999 23.88 29.0599 23.47 29.4299 23.3C29.5499 23.37 29.4299 23.49 29.4299 23.6C29.6699 23.71 29.9499 23.4 30.1499 23.6C30.0083 23.0315 29.9677 22.4425 30.0299 21.86" fill="white"/>
<path d="M0.72998 59.74H60.46V0H0.72998V59.74ZM51.98 31.11C51.14 32.3 50.13 33.41 49.36 34.62C49.5255 33.6191 49.464 32.5939 49.18 31.62C48.4801 29.6548 48.0136 27.6141 47.79 25.54V24.72C48.28 26.91 50.43 28.42 50.29 30.87C50.2939 31.4191 50.213 31.9656 50.05 32.49L50.14 32.38C50.3835 31.1601 50.7178 29.9601 51.14 28.79C51.85 27.17 52.73 25.54 52.37 23.59C52.8581 24.797 53.0735 26.097 53.0009 27.397C52.9283 28.6969 52.5695 29.9648 51.95 31.11H51.98ZM50.66 18.72C51.3666 19.7559 51.8003 20.9534 51.9209 22.2015C52.0415 23.4496 51.8451 24.708 51.35 25.86C50.9659 26.8084 50.694 27.7984 50.54 28.81C50.47 28.63 50.46 28.39 50.39 28.19C49.84 26.05 47.8 24.52 46.97 22.5C46.6959 21.832 46.4882 21.1387 46.35 20.43C47.25 22.08 49.44 22.94 50.04 24.75C50.2156 25.2473 50.3461 25.7593 50.43 26.28C50.4443 26.2802 50.4582 26.2753 50.4692 26.2661C50.4802 26.2569 50.4876 26.2441 50.49 26.23C50.258 24.3421 50.2816 22.4316 50.56 20.55C50.6245 19.5863 50.3906 18.626 49.89 17.8C50.25 18.01 50.41 18.41 50.66 18.72ZM49.66 18.35C50.04 20.02 49.49 21.66 49.84 23.35C48.93 21.56 47 20.71 45.67 19.28C44.9545 18.4275 44.5028 17.385 44.37 16.28C45.13 18.12 47.19 18.53 48.37 20.07C48.6882 20.451 48.9509 20.8752 49.15 21.33C48.5804 19.8215 48.1193 18.2742 47.77 16.7C47.512 15.9938 47.0445 15.3832 46.43 14.95C47.2201 15.1844 47.9337 15.6247 48.4978 16.2256C49.0618 16.8266 49.456 17.5666 49.64 18.37L49.66 18.35ZM45.5 14.53C46.5424 15.5603 47.2409 16.8875 47.5 18.33L47.69 18.78C45.9738 17.5357 44.5081 15.9784 43.37 14.19L42.05 12.85C43.2726 13.2154 44.4253 13.7833 45.46 14.53H45.5ZM23.31 13.23C25.565 12.1243 28.0386 11.5366 30.55 11.51C33.5551 11.5261 36.4949 12.3882 39.0328 13.9976C41.5707 15.607 43.604 17.8986 44.9 20.61C46.6151 24.0837 46.989 28.0679 45.95 31.8C44.8096 35.891 42.0907 39.3613 38.3915 41.4477C34.6924 43.534 30.3159 44.0654 26.225 42.925C22.134 41.7846 18.6636 39.0657 16.5773 35.3666C14.491 31.6674 13.9595 27.291 15.1 23.2C15.708 21.0585 16.7508 19.0653 18.1633 17.3448C19.5759 15.6243 21.3279 14.2133 23.31 13.2V13.23ZM18.73 13.05C17.6481 14.1175 16.6919 15.3052 15.88 16.59C15.0607 17.4538 14.1819 18.2591 13.25 19C13.73 18 13.75 16.83 14.42 15.92C15.42 14.24 17.17 13.66 18.76 13.03L18.73 13.05ZM12.36 16.61C12.889 15.9252 13.6259 15.4305 14.46 15.2C12.89 16.28 12.99 18.2 12.46 19.84C12.3 20.44 12.02 20.99 11.88 21.6H11.93C12.2208 20.8797 12.6604 20.2288 13.22 19.69C14.35 18.69 16 18.01 16.55 16.48C16.55 18.61 14.75 20.28 13.06 21.48C12.3381 22.0545 11.7395 22.7688 11.3 23.58C11.3 23.04 11.38 22.5 11.3 21.93C11.11 20.08 10.98 17.93 12.3 16.58L12.36 16.61ZM9.16998 23C9.17798 21.2251 9.828 19.513 11 18.18C11 18.18 11.06 18.13 11.1 18.18C9.87998 20.02 10.89 22.34 10.83 24.43L10.67 26.57C10.67 26.57 10.67 26.65 10.75 26.63C10.82 26.39 10.84 26.13 10.89 25.89C11.17 24.16 12.67 22.89 13.99 21.74C14.2673 21.4482 14.4907 21.1097 14.65 20.74C14.5361 21.6154 14.29 22.4685 13.92 23.27C12.92 25.27 11.01 26.89 10.67 29.17C10.51 26.99 9.01998 25.35 9.16998 23.04V23ZM8.24998 25.71C8.34339 25.0974 8.50437 24.4971 8.72998 23.92C8.23998 26.4 9.90998 28.19 10.46 30.35C10.6147 31.1724 10.8218 31.984 11.08 32.78C11.08 32.78 11.13 32.78 11.15 32.78C10.33 30.49 11.51 28.36 12.7 26.57C12.9719 26.07 13.1738 25.535 13.3 24.98C13.3359 26.091 13.2385 27.2022 13.01 28.29C12.72 29.66 12.29 30.95 11.92 32.29C11.7149 33.156 11.6945 34.0555 11.86 34.93L11.73 34.79C10.86 33.19 9.14998 31.93 8.63998 30.18C8.13904 28.7255 7.995 27.1718 8.21998 25.65L8.24998 25.71ZM8.13998 30.51C8.32998 33.14 11.14 34.51 12.48 36.72C12.758 37.1963 13.0939 37.6363 13.48 38.03C13.41 37.76 13.15 37.52 13.06 37.23C12.5934 36.2642 12.413 35.185 12.54 34.12C12.67 32.77 13.23 31.52 13.02 30.12C14.17 32.62 13.82 35.72 14.46 38.42C14.6777 38.9923 14.9247 39.5531 15.2 40.1C12.86 38.46 9.61998 36.93 8.56998 34C8.16363 32.8948 8.02651 31.7087 8.16998 30.54L8.13998 30.51ZM9.58998 36.59C10.91 39.59 14.22 39.83 16.45 41.66C16.8382 42.0103 17.2722 42.3064 17.74 42.54C17.1826 42.0796 16.6913 41.5445 16.28 40.95C14.98 39.14 15.44 36.61 14.46 34.67C15.3653 35.671 16.1291 36.7914 16.73 38C17.52 40 17.83 42.17 19.67 43.65C17.67 43 15.34 43.18 13.59 41.96C12.5892 41.3864 11.7175 40.6126 11.0293 39.6869C10.341 38.7612 9.85107 37.7036 9.58998 36.58V36.59ZM12.99 42.16C15.11 44.58 18.57 43.77 21.4 44.4C21.7856 44.5155 22.1877 44.5661 22.59 44.55C22.25 44.34 21.78 44.36 21.42 44.17C19.2 43.39 18.87 40.99 17.67 39.38C19.1871 40.5003 20.6086 41.7446 21.92 43.1C22.9366 43.9271 24.1549 44.4689 25.45 44.67C25.14 44.78 24.74 44.75 24.45 44.84C22.13 45.41 19.55 46.34 17.09 45.51C15.3803 44.9406 13.9506 43.7432 13.09 42.16H12.99ZM41.73 47.77C39.34 48.66 36.85 47.72 34.98 46.31C34.23 45.83 33.56 45.14 32.58 45.2C32.2435 45.1816 31.9062 45.2153 31.58 45.3C33.4312 46.1735 35.1217 47.3535 36.58 48.79C36.3034 49.0946 35.9987 49.3725 35.67 49.62C34.2574 47.9968 32.5636 46.6418 30.67 45.62C30.3396 45.6997 30.0229 45.8277 29.73 46C28.1569 46.9631 26.7712 48.2031 25.64 49.66L24.64 48.87C26.107 47.3771 27.8313 46.161 29.73 45.28C27.91 44.71 26.73 46.23 25.35 47C24.5143 47.6036 23.5463 47.9985 22.5268 48.1515C21.5074 48.3046 20.4661 48.2115 19.49 47.88C18.4183 47.5117 17.4651 46.8624 16.73 46C17.5534 46.5029 18.4823 46.8079 19.4436 46.8912C20.4048 46.9745 21.3723 46.8338 22.27 46.48C24.6 45.48 27.02 44.18 29.83 44.8C30.27 44.8 30.7 45.24 31.12 44.87C33.2305 44.3718 35.4498 44.6523 37.37 45.66L39.22 46.4C40.1098 46.7243 41.0622 46.8397 42.0037 46.7374C42.9452 46.6351 43.8506 46.3178 44.65 45.81C43.8944 46.7268 42.9017 47.4186 41.78 47.81L41.73 47.77ZM44.33 45.3C41.65 46.3 38.95 45.07 36.33 44.65L35.83 44.59C37.1029 44.3827 38.2955 43.8331 39.28 43C40.6152 41.5848 42.0633 40.2805 43.61 39.1C42.42 40.62 42.3 42.79 40.34 43.77C39.8212 44.0097 39.2866 44.2135 38.74 44.38C39.4359 44.3208 40.1273 44.2173 40.81 44.07C43.44 43.66 46.45 44.07 48.29 41.84C47.4473 43.4529 46.0143 44.6781 44.29 45.26L44.33 45.3ZM45.78 42.52C44.41 42.89 42.95 43.01 41.62 43.46C43.87 41.53 43.74 38.54 45.25 36.26C45.7106 35.6019 46.2046 34.9677 46.73 34.36C45.82 36.2 46.21 38.58 45.16 40.36C44.7362 41.1129 44.1885 41.7891 43.54 42.36C43.75 42.36 43.93 42.17 44.11 42.05C45.82 40.34 48.05 39.87 49.9 38.48C50.6604 37.9094 51.2599 37.1514 51.64 36.28C51.29 39.11 48.48 41.76 45.83 42.6L45.78 42.52ZM49.22 37.79C48.16 38.48 47.08 39.13 46.06 39.91V39.82C47.62 37.22 46.86 33.66 47.82 30.82L48.18 29.87C47.98 31.64 48.76 33.15 48.7 34.93C48.6312 35.9654 48.2859 36.9635 47.7 37.82H47.79C48.4897 36.7807 49.2441 35.7793 50.05 34.82C51.43 33.48 52.84 32.11 53.05 30.25C53.51 33.35 51.78 36.07 49.21 37.82" fill="white"/>
<path d="M43.47 28L43.34 27.9L43.4199 28.12C43.3024 30.6766 42.4211 33.1393 40.8899 35.19C40.6226 35.5638 40.3065 35.9001 39.95 36.19C40.5864 36.7206 41.1815 37.2989 41.7299 37.92L41.79 37.8C44.2293 35.134 45.6463 31.6907 45.79 28.08L45.88 27.89L45.7599 27.94L43.47 28Z" fill="white"/>
<path d="M29.9599 18.76C27.9962 18.9208 26.1355 19.7057 24.6499 21C25.2395 21.4979 25.8036 22.0252 26.3399 22.58L26.4599 22.41C27.1836 21.8411 28.008 21.4137 28.8899 21.15C29.2825 21.035 29.6911 20.9844 30.0999 21C30.0099 20.2226 30.0099 19.4374 30.0999 18.66L29.9599 18.76Z" fill="white"/>
<path d="M30.9499 14.47C30.9575 14.4002 30.9853 14.3342 31.0299 14.28C31.1399 14.22 31.2299 14.28 31.2799 14.39C31.3299 14.5 31.3399 14.69 31.2799 14.76C31.3799 14.76 31.4199 14.7 31.5099 14.7C33.2692 14.834 34.9769 15.3565 36.5099 16.23C36.8199 16.08 37.2199 15.88 37.5099 16.15C37.8999 16.01 37.9699 16.48 38.2799 16.53C38.4883 16.6405 38.6708 16.7939 38.8156 16.98C38.9604 17.1662 39.0641 17.3809 39.1199 17.61C39.1899 17.75 39.4199 17.86 39.4499 18.01C39.7754 17.4843 40.1802 17.012 40.6499 16.61L40.9199 16.5C38.6098 14.2881 35.645 12.8846 32.4699 12.5C31.9497 12.4642 31.4322 12.3974 30.9199 12.3C30.9953 13.0314 30.9953 13.7686 30.9199 14.5L30.9499 14.47ZM38.0899 15.57C38.1698 15.5832 38.245 15.6169 38.308 15.6677C38.3711 15.7185 38.42 15.7847 38.4499 15.86C38.4499 16.04 38.6199 16.19 38.4499 16.33C38.0199 16.44 37.9799 15.96 37.6499 15.84C37.6253 15.8075 37.6073 15.7704 37.597 15.731C37.5867 15.6915 37.5843 15.6504 37.5899 15.61C37.7399 15.43 37.8799 15.73 38.0499 15.61L38.0899 15.57ZM31.2099 14.16C31.2699 14.03 31.4599 14.08 31.5499 14.16L32.7299 13.56C32.9583 13.5445 33.1873 13.5784 33.4013 13.6595C33.6153 13.7407 33.8092 13.867 33.9699 14.03V14.09C33.8438 14.222 33.6839 14.317 33.5076 14.3646C33.3313 14.4121 33.1454 14.4106 32.9699 14.36C32.4399 14.46 31.7099 14.77 31.2899 14.22C31.2899 14.22 31.2199 14.13 31.2899 14.09" fill="white"/>
<path d="M30.9499 17.9C31.2536 17.8399 31.5661 17.8399 31.8699 17.9C33.4194 18.1006 34.8924 18.6925 36.1499 19.62C35.9714 19.4697 35.8453 19.2666 35.7899 19.04C35.8031 19.031 35.8188 19.0262 35.8349 19.0262C35.8509 19.0262 35.8666 19.031 35.8799 19.04C35.8799 18.8 35.6399 18.67 35.5999 18.44C35.6185 18.4133 35.6444 18.3925 35.6746 18.38C35.7047 18.3676 35.7378 18.3642 35.7699 18.37C36.0279 18.6213 36.2622 18.8957 36.4699 19.19C36.6499 19.12 36.7899 19.19 36.9199 19.33C37.0499 19.47 37.0099 19.76 37.1799 19.92C37.1799 20.39 37.7899 20.65 37.7499 21.12C37.7499 21.23 37.8999 21.12 37.9499 21.2L38.4299 21.79C38.3958 21.8432 38.384 21.9076 38.3971 21.9694C38.4102 22.0312 38.4471 22.0853 38.4999 22.12C38.7199 22.21 38.8399 21.94 39.0499 21.98C39.2599 22.02 39.0499 22.36 39.0499 22.55C39.1699 22.55 39.3199 22.46 39.4099 22.55C39.4999 22.64 39.2699 22.83 39.1999 22.95C39.1299 23.07 39.3399 23.08 39.4699 23.12C39.5999 23.16 39.6999 23.29 39.6599 23.41C40.0599 23.82 39.5399 24.27 39.7299 24.71C39.7729 24.8457 39.777 24.9908 39.7417 25.1287C39.7063 25.2666 39.6329 25.3918 39.5299 25.49C39.5299 25.84 39.2099 26.05 39.0899 26.35L38.6799 26.43C38.4699 26.64 38.8599 26.9 38.6799 27.04H39.5699L39.4399 27C39.3723 26.815 39.3479 26.617 39.3687 26.4211C39.3895 26.2252 39.4549 26.0367 39.5599 25.87C39.6376 25.5508 39.7806 25.2512 39.9799 24.99C39.9799 24.99 40.1399 24.87 40.1899 24.99C40.2144 25.2708 40.1662 25.5533 40.0499 25.81C40.2453 26.2141 40.3315 26.6623 40.2999 27.11C41.0799 27.06 41.8599 27.05 42.6299 27.06L42.5599 26.9C42.489 25.476 42.1497 24.0781 41.5599 22.78C41.3999 22.78 41.2799 22.92 41.0799 22.87C41.0489 22.8607 41.0225 22.8402 41.0059 22.8124C40.9892 22.7847 40.9835 22.7517 40.9899 22.72C40.7185 22.3679 40.4246 22.0339 40.1099 21.72C39.7099 21.72 39.5199 21.29 39.1099 21.25C38.6999 21.21 38.9999 20.59 38.5299 20.73C38.4097 20.689 38.3013 20.6193 38.2142 20.527C38.127 20.4346 38.0638 20.3224 38.0299 20.2C38.0518 19.9878 38.0223 19.7735 37.944 19.5751C37.8657 19.3767 37.7408 19.2 37.5799 19.06C37.2899 18.96 37.1699 19.34 36.8899 19.28C36.6099 19.22 36.7999 18.99 36.7499 18.86C36.6999 18.73 36.5599 18.65 36.5799 18.49C36.9599 18 36.1299 18 36.3099 17.49C36.2599 17.14 35.9099 17 35.7199 16.72C34.4968 16.1587 33.1951 15.7878 31.8599 15.62C31.5208 15.6352 31.1818 15.5878 30.8599 15.48L30.9399 15.63C30.9399 16.37 30.9399 17.16 30.9399 17.86" fill="white"/>
<path d="M30.1501 25.48C29.9065 25.7996 29.5476 26.0113 29.1501 26.07C29.0501 26.2 29.0701 26.48 28.8201 26.46C28.7401 26.63 28.4701 26.73 28.5801 26.99C28.5027 27.2878 28.4558 27.5927 28.4401 27.9C27.9701 28.2 28.1101 27.52 27.8701 27.37L27.7901 27.51C27.6901 27.51 27.6301 27.51 27.5701 27.41C27.5101 27.31 27.3701 27.36 27.3101 27.41C27.2501 27.46 27.0501 27.73 27.0901 27.97C27.1301 28.21 26.8001 28.06 26.8301 28.21C27.1028 28.198 27.374 28.1612 27.6401 28.1C27.8201 28.15 27.9701 28.01 28.1501 28C28.3301 27.99 28.2901 28.1 28.2601 28.2H28.3301C28.3913 28.1581 28.4372 28.0973 28.4607 28.0269C28.4841 27.9564 28.4839 27.8803 28.4601 27.81C28.4601 27.65 28.6601 27.65 28.7701 27.6C28.8801 27.55 28.7701 27.75 28.7701 27.83C29.1301 27.97 28.6901 28.23 28.6401 28.42C28.5901 28.61 28.6401 28.91 28.3401 28.87C28.3253 28.8666 28.3114 28.8601 28.2993 28.8511C28.2872 28.842 28.277 28.8306 28.2695 28.8174C28.262 28.8043 28.2573 28.7898 28.2557 28.7747C28.254 28.7597 28.2555 28.7444 28.2601 28.73H28.2101C28.2127 28.8038 28.2343 28.8758 28.2729 28.9388C28.3114 29.0019 28.3655 29.0539 28.4301 29.09C28.6501 28.9 28.6601 28.59 28.9801 28.55C29.3001 28.51 28.9101 28.11 29.1601 27.97C29.5701 27.97 30.0101 27.78 30.3401 28.12C30.3401 28.26 30.2601 28.32 30.3401 28.44C30.2812 28.6359 30.1862 28.819 30.0601 28.98C30.0753 29.0334 30.075 29.09 30.059 29.1432C30.0431 29.1964 30.0122 29.2439 29.9701 29.28C29.8601 29.76 29.3101 29.53 28.9701 29.7C29.4766 30.0733 30.1041 30.2444 30.7301 30.18C31.0701 30.18 30.9201 29.74 31.0901 29.55C31.2101 28.99 31.7201 29.37 32.0301 29.22C32.1638 28.9916 32.2553 28.7409 32.3001 28.48C32.2031 28.4175 32.1292 28.3252 32.0895 28.2169C32.0498 28.1086 32.0465 27.9903 32.0801 27.88C31.9501 27.7 31.9601 27.37 31.6701 27.34C31.6489 27.3109 31.6375 27.2759 31.6375 27.24C31.6375 27.2041 31.6489 27.1691 31.6701 27.14C31.6701 26.97 31.8401 26.91 31.8901 26.78C31.7001 26.66 31.7501 26.4 31.7701 26.25C31.4601 26.33 31.4201 25.93 31.1901 25.84C31.1901 25.66 30.9401 25.62 30.7801 25.59C30.4001 25.78 30.3301 25.3 30.0501 25.19C30.0501 25.11 29.9501 24.98 30.0501 24.91C30.1501 24.84 30.3801 24.91 30.5501 24.91L30.4101 24.84C30.2801 24.7 30.0101 24.84 29.8401 24.84C30.0001 25 29.9301 25.29 30.0301 25.49" fill="white"/>
<path d="M14.7299 68.27C13.9421 68.2659 13.1556 68.3329 12.3799 68.47V76C13.0561 76.149 13.7477 76.2161 14.4399 76.2C17.4399 76.2 19.2899 74.71 19.2899 72.1C19.2899 69.49 17.4899 68.27 14.7299 68.27Z" fill="white"/>
<path d="M0.72998 90.52H29.73V61.52H0.72998V90.52ZM20.3 76C19.51 76.7324 18.5801 77.2977 17.5663 77.662C16.5525 78.0263 15.4755 78.1821 14.4 78.12C13.729 78.1401 13.0579 78.0831 12.4 77.95V85.7H9.88998V66.58C11.4707 66.2974 13.0743 66.1634 14.68 66.18C17.15 66.18 18.95 66.75 20.1 67.78C20.6577 68.2836 21.1001 68.9017 21.397 69.5921C21.6938 70.2824 21.8381 71.0287 21.82 71.78C21.873 72.5503 21.7652 73.3233 21.5035 74.0498C21.2419 74.7762 20.832 75.4404 20.3 76Z" fill="white"/>
<path d="M44.1199 98.7C43.1374 98.6845 42.1557 98.7683 41.1899 98.95V114.24C42.0286 114.349 42.8748 114.389 43.7199 114.36C49.0499 114.36 51.9499 111.36 51.9499 106.15C51.9499 101.54 49.3899 98.7 44.1199 98.7Z" fill="white"/>
<path d="M31.47 121.12H60.47V92.12H31.47V121.12ZM51.81 113.58C49.97 115.39 46.99 116.37 43.23 116.37C41.7066 116.392 40.1834 116.315 38.67 116.14V97.14C40.4341 96.8723 42.2156 96.7353 44 96.73C47.59 96.73 50.14 97.54 51.84 99.12C52.7804 100.016 53.5138 101.107 53.9888 102.316C54.4638 103.525 54.669 104.823 54.59 106.12C54.6481 107.494 54.4322 108.865 53.9549 110.154C53.4776 111.444 52.7485 112.625 51.81 113.63" fill="white"/>
<path d="M0.72998 121.11H29.73V92.16H0.72998V121.11ZM22.33 108.28C22.33 114.22 19.2 116.63 15.02 116.63C11.02 116.63 8.06998 114.39 8.06998 108.37V97H10.6V108.48C10.6 112.78 12.52 114.62 15.1 114.62C17.94 114.62 19.81 112.73 19.81 108.48V97H22.33V108.28Z" fill="white"/>
<path d="M31.47 90.52H60.47V61.52H31.47V90.52ZM38.73 66.37H41.49L47.66 76.16C48.9529 78.1698 50.1024 80.2684 51.1 82.44H51.19C50.96 79.86 50.9 77.51 50.9 74.52V66.37H53.25V85.71H50.73L44.55 75.9C43.2145 73.8302 42.0153 71.6756 40.96 69.45H40.88C41.02 71.89 41.05 74.21 41.05 77.45V85.71H38.73V66.37Z" fill="white"/>
</g>
<defs>
<clipPath id="clip0">
<rect width="59.73" height="121.12" fill="white" transform="translate(0.72998)"/>
</clipPath>
</defs>
</svg>
