<svg width="20" height="16" viewBox="0 0 20 16" fill="none" xmlns="http://www.w3.org/2000/svg">
<path d="M10.107 0H10.106C7.73627 0.0161813 5.90477 0.803096 4.67344 2.346C3.57912 3.71724 3.01882 5.63111 3 8.005V8.00606C3.01882 10.3801 3.57916 12.2828 4.67344 13.654C5.90483 15.1969 7.74581 15.9838 10.1155 16H10.1164C12.2226 15.9856 13.7162 15.4411 14.9468 14.2294C16.5599 12.6408 16.512 10.6475 15.9792 9.42249C15.5735 8.49036 14.7723 7.74438 13.6988 7.28047C13.5601 5.02608 12.273 3.71038 10.1577 3.69706C8.90806 3.68946 7.78056 4.24069 7.08999 5.27355L8.35877 6.13146C8.7672 5.52068 9.41373 5.22604 10.1481 5.23274C11.2113 5.23942 11.9101 5.81764 12.1062 6.83205C11.5145 6.74079 10.8785 6.71428 10.2021 6.7525C8.17948 6.86733 6.85475 8.04594 6.94308 9.68024C7.03547 11.3889 8.71485 12.3199 10.3094 12.234C12.2195 12.1308 13.3545 10.7415 13.6237 8.96953C14.066 9.25199 14.3924 9.61225 14.5772 10.0372C14.9141 10.8117 14.9355 12.0891 13.8754 13.1331C12.9429 14.0514 11.8219 14.4517 10.1113 14.4642C8.21462 14.4503 6.7912 13.8514 5.86736 12.6938C4.99995 11.6069 4.54678 10.0306 4.5298 8.00001C4.54678 5.96936 4.99995 4.39306 5.86736 3.30618C6.7912 2.14857 8.21458 1.54969 10.1112 1.53569C12.0218 1.54979 13.4709 2.15162 14.4309 3.31573C14.9603 3.95782 15.292 4.72538 15.5134 5.51758L17 5.12664C16.722 4.11634 16.2825 3.15282 15.6093 2.33646C14.3423 0.800013 12.4814 0.0162417 10.107 0ZM10.2886 8.28557C10.9661 8.24704 11.5941 8.28949 12.1522 8.40364C12.0444 9.59503 11.5443 10.6292 10.227 10.7005C9.37487 10.7478 8.5126 10.3729 8.47068 9.59684C8.43949 9.01992 8.87242 8.36602 10.2886 8.28557Z" fill="white"/>
</svg>
